<?xml version="1.0" standalone="no"?>
<!DOCTYPE svg PUBLIC "-//W3C//DTD SVG 1.1//EN" "http://www.w3.org/Graphics/SVG/1.1/DTD/svg11.dtd" >
<svg>
<metadata>
Created by FontForge 20090914 at Fri Dec 24 19:55:18 2021
 By www-data
</metadata>
<defs>
<font id="Casual-Regular" horiz-adv-x="600" >
  <font-face 
    font-family="Casual"
    font-weight="400"
    font-stretch="normal"
    units-per-em="1000"
    panose-1="0 0 5 0 0 0 0 0 0 0"
    ascent="800"
    descent="-200"
    x-height="500"
    cap-height="700"
    bbox="-40.999 -270.003 840 880"
    underline-thickness="50"
    underline-position="-50"
    unicode-range="U+0020-U+015F"
  />
<missing-glyph horiz-adv-x="500" 
d="M410 -200h-317v1000h317v-1000zM168 733v-33h65v-37h-66v-33h166v33h-66v37h66v33h-165zM167 604v-104h166v34h-66v70h-100zM233 534h-33v36h33v-36zM167 473v-33h66v-37h-66v-33h100v70h66v33h-166zM300 413v-66h-133v-34h166v100h-33zM233 291v-56h34v23h33v-47h-100
v80h-33v-113h166v113h-100zM167 118v-113h166v113h-166zM300 38h-100v47h100v-47zM167 -18v-33h70l-70 -47v-33h166v33h-102l70 47h32v33h-166z" />
    <glyph glyph-name=".notdef" horiz-adv-x="500" 
d="M410 -200h-317v1000h317v-1000zM168 733v-33h65v-37h-66v-33h166v33h-66v37h66v33h-165zM167 604v-104h166v34h-66v70h-100zM233 534h-33v36h33v-36zM167 473v-33h66v-37h-66v-33h100v70h66v33h-166zM300 413v-66h-133v-34h166v100h-33zM233 291v-56h34v23h33v-47h-100
v80h-33v-113h166v113h-100zM167 118v-113h166v113h-166zM300 38h-100v47h100v-47zM167 -18v-33h70l-70 -47v-33h166v33h-102l70 47h32v33h-166z" />
    <glyph glyph-name="space" unicode=" " horiz-adv-x="300" 
 />
    <glyph glyph-name="zero" unicode="0" 
 />
    <glyph glyph-name="one" unicode="1" 
 />
    <glyph glyph-name="two" unicode="2" 
 />
    <glyph glyph-name="three" unicode="3" 
 />
    <glyph glyph-name="four" unicode="4" 
 />
    <glyph glyph-name="five" unicode="5" 
 />
    <glyph glyph-name="six" unicode="6" 
 />
    <glyph glyph-name="seven" unicode="7" 
 />
    <glyph glyph-name="eight" unicode="8" horiz-adv-x="420" 
 />
    <glyph glyph-name="nine" unicode="9" 
 />
    <glyph glyph-name="A" unicode="A" horiz-adv-x="620" 
d="M440 0c-18.667 69.333 -38.668 132.666 -60.001 189.999h-250l-70 -190h-30l200 530l60 170h20l109 -300c20.667 -55.333 41.334 -107.166 62.001 -155.499l109 -244.5h-150zM371.999 210c-16 42 -39.333 95 -70 159c-21.333 43.333 -40 84 -56 122l-106 -281h232z" />
    <glyph glyph-name="B" unicode="B" horiz-adv-x="580" 
d="M414 353c32.667 -11.333 61.833 -31.3271 87.5 -59.9941s38.5 -66.334 38.5 -113.001c0 -54.667 -17.833 -95.334 -53.5 -122.001s-75.667 -43.834 -120 -51.501s-66.5 -9.83398 -66.5 -6.50098h-270c4.66699 77.333 8.33398 145 11.001 203s4 107 4 147
s-1.33301 89 -4 147s-6.33398 125.667 -11.001 203h290c0 3.33301 17.667 0.666016 53 -8.00098s67 -25.667 95 -51s42 -62.333 42 -111c0 -44 -11 -77.833 -33 -101.5s-46.5 -39.334 -73.5 -47.001s-51.5 -11.5 -73.5 -11.5c23.333 0 51.333 -5.66699 84 -17z
M336.499 648.006c-22.333 24 -49.5 36 -81.5 36c-29.333 0 -54.333 -8 -75 -24v-270c16 -5.33301 33 -8 51 -8c38 0 70.667 12.333 98 37s41 65 41 121c0 48 -11.167 84 -33.5 108zM249.999 13.0059c25.333 0 49.333 6.00195 72 18.002s41.334 31.167 56.001 57.5
s22 60.166 22 101.499c0 63.333 -16.333 108.666 -49 135.999s-71.334 41 -116.001 41c-19.333 0 -37.666 -2.33301 -54.999 -7v-330c19.333 -11.333 42.666 -17 69.999 -17z" />
    <glyph glyph-name="C" unicode="C" horiz-adv-x="720" 
d="M185.5 22c-55 34.667 -94.666 79.166 -118.999 133.499s-36.5 112.5 -36.5 174.5c0 78 16.833 147.333 50.5 208s80 107.834 139 141.501s125.833 50.5 200.5 50.5c64 0 116 -11.167 156 -33.5s69 -46 87 -71s27 -40.167 27 -45.5c0 -11.333 -8.33301 -27.5 -25 -48.5
s-36 -39.833 -58 -56.5s-41 -25 -57 -25c-15.333 0 -23 7.33301 -23 22c0 4 1 10 3 18c6 28 9 53.667 9 77c0 45.333 -11.5 80.5 -34.5 105.5s-57.833 37.5 -104.5 37.5c-36 0 -70.5 -7.5 -103.5 -22.5s-60.667 -41 -83 -78s-33.5 -86.833 -33.5 -149.5
c0 -71.333 14.667 -141 44 -209s69.166 -123.5 119.499 -166.5s105.833 -64.5 166.5 -64.5s114 23.333 160 70l20 -10c-10 -13.333 -26.5 -28.333 -49.5 -45s-54.833 -31.667 -95.5 -45s-89 -20 -145 -20c-88 0 -159.5 17.333 -214.5 52z" />
    <glyph glyph-name="D" unicode="D" horiz-adv-x="660" 
d="M41 203c2.66699 58 4 106.999 4 146.999s-1.33301 89 -4 147s-6.33398 125.667 -11.001 203h330c26.667 0 61 -10 103 -30s80.333 -56 115 -108s52 -122.667 52 -212c0 -83.333 -15.667 -151.166 -47 -203.499s-68 -89.833 -110 -112.5s-79.667 -34 -113 -34h-330
c4.66699 77.333 8.33398 145 11.001 203zM290 19.999c44.667 0 81.167 16.333 109.5 49s48.833 74 61.5 124s19 102.333 19 157c0 70 -10 130 -30 180s-45.667 87.667 -77 113s-64 38 -98 38c-6.66699 0 -11.667 -0.333008 -15 -1l-80 -10c-10 -130 -15 -236.333 -15 -319
c0 -82 5 -185.667 15 -311c40 -13.333 76.667 -20 110 -20z" />
    <glyph glyph-name="E" unicode="E" 
d="M200 680c-4.66699 -70.667 -8.33398 -132.5 -11.001 -185.5s-4 -97.833 -4 -134.5h85c24.667 0 45.334 6.66699 62.001 20s32.667 30 48 50c11.333 15.333 21 23 29 23c7.33301 0 11 -7.66699 11 -23v-160c0 -15.333 -3.66699 -23 -11 -23s-17 7.66699 -29 23
c-15.333 20 -31.333 36.667 -48 50s-37.334 20 -62.001 20h-85c0 -36.667 1.33301 -81.5 4 -134.5s6.33398 -114.833 11.001 -185.5h160c24 0 45.667 8.5 65 25.5s39 38.5 59 64.5c5.33301 8 10.666 14.667 15.999 20c12 17.333 23.667 26 35 26c10 0 15 -8.66699 15 -26
v-130h-500c4.66699 77.333 8.33398 145 11.001 203s4 107 4 147s-1.33301 89 -4 147s-6.33398 125.667 -11.001 203h500v-130c0 -17.333 -5 -26 -15 -26c-11.333 0 -23 8.66699 -35 26c-5.33301 5.33301 -10.666 12 -15.999 20c-20 26 -39.667 47.5 -59 64.5
s-41 25.5 -65 25.5h-160z" />
    <glyph glyph-name="F" unicode="F" horiz-adv-x="580" 
d="M540 700l-0.00195312 -130c0 -17.333 -5 -26 -15 -26c-11.333 0 -23 8.66699 -35 26c-5.33301 5.33301 -10.666 12 -15.999 20c-20 26 -39.667 47.5 -59 64.5s-41 25.5 -65 25.5h-160c-9.33301 -143.333 -14.333 -250 -15 -320h85c24.667 0 45.334 6.66699 62.001 20
s32.667 30 48 50c11.333 15.333 21 23 29 23c7.33301 0 11 -7.66699 11 -23v-160c0 -15.333 -3.66699 -23 -11 -23s-17 7.66699 -29 23c-15.333 20 -31.333 36.667 -48 50s-37.334 20 -62.001 20h-85c0 -38 1.33301 -85.333 4 -142s6.33398 -122.667 11.001 -198h-150
c4.66699 77.333 8.33398 145 11.001 203s4 107 4 147s-1.33301 89 -4 147s-6.33398 125.667 -11.001 203h500z" />
    <glyph glyph-name="G" unicode="G" horiz-adv-x="760" 
d="M723.5 283c1.66699 -11.333 2.49902 -24.333 2.49902 -39c0 -42 -7.83301 -84.167 -23.5 -126.5s-46.167 -79.166 -91.5 -110.499s-109 -47 -191 -47c-92.667 -0.666992 -170 18.666 -232 57.999s-107.667 89.666 -137 150.999s-44 125 -44 191
c0 33.333 4.33301 66.666 13 99.999c63.333 171.333 190 258 380 260c105.333 -1.33301 195.333 -28.333 270 -81l-10 -29c-41.333 28.667 -76 49 -104 61s-63.333 18.333 -106 19c-132.667 -2 -222.667 -82 -270 -240c-9.33301 -46.667 -14 -90 -14 -130
c0 -63.333 10.167 -120.166 30.5 -170.499s49.666 -89.666 87.999 -117.999s83.5 -42.166 135.5 -41.499c30.667 0 57.5 6.66699 80.5 20s40.833 31.166 53.5 53.499s19 45.5 19 69.5c0 24.667 -7 47.5 -21 68.5s-34.667 37.167 -62 48.5
c-12.667 6.66699 -19 16.334 -19 29.001c0 7.33301 3 14.333 9 21c16.667 8 46.334 12 89.001 12c21.333 0 44 -1 68 -3s43 -3.83301 57 -5.5s22.667 -2.83398 26 -3.50098c0.666992 0 1.83398 -5.66699 3.50098 -17zM669.999 639v1c2 -2.66699 2 -3 0 -1z" />
    <glyph glyph-name="H" unicode="H" horiz-adv-x="640" 
d="M599 497c-2.66699 -58 -4 -107 -4 -147s1.33301 -89 4 -147s6.33398 -125.667 11.001 -203h-150c4.66699 74.667 8.33398 140.334 11.001 197.001s4 104.334 4 143.001h-310c0 -38.667 1.33301 -86.334 4 -143.001s6.33398 -122.334 11.001 -197.001h-150
c4.66699 77.333 8.33398 145 11.001 203s4 107 4 147s-1.33301 89 -4 147s-6.33398 125.667 -11.001 203h150l-1 -21c-1.33301 -20 -3.83301 -65.333 -7.5 -136s-5.83398 -128.334 -6.50098 -173.001h310c-0.666992 44.667 -2.83398 102.334 -6.50098 173.001
s-6.16699 116 -7.5 136l-1 21h150c-4.66699 -77.333 -8.33398 -145 -11.001 -203z" />
    <glyph glyph-name="I" unicode="I" horiz-adv-x="230" 
d="M46.5 70.5c3 37 6 82.833 9 137.5s4.5 108.667 4.5 162c0 54.667 -1.5 106.5 -4.5 155.5s-6 88.333 -9 118s-5.16699 48.5 -6.5 56.5h160c-1.33301 -7.33301 -3.5 -25.833 -6.5 -55.5s-6 -69 -9 -118s-4.5 -101.167 -4.5 -156.5c0 -54 1.5 -108.5 4.5 -163.5
s6 -100.667 9 -137s5.16699 -59.5 6.5 -69.5h-160c1.33301 10 3.5 33.5 6.5 70.5z" />
    <glyph glyph-name="J" unicode="J" horiz-adv-x="500" 
d="M336.5 378.5c2.33301 -49 3.5 -138.499 3.5 -268.499c0 -43.333 -6.33301 -74.166 -19 -92.499s-33 -27.5 -61 -27.5c-23.333 0 -40.666 5.83301 -51.999 17.5s-18.5 27.167 -21.5 46.5s-5.16699 48 -6.5 86c-0.666992 18 -1.5 32.667 -2.5 44s-2.66699 18.5 -5 21.5
s-6.5 4.5 -12.5 4.5c-23.333 0 -44.166 -5.83301 -62.499 -17.5s-32.666 -25.5 -42.999 -41.5s-15.5 -30 -15.5 -42c0 -4.66699 0.333008 -7.66699 1 -9c8.66699 -17.333 18.667 -33.833 30 -49.5s34.666 -33 69.999 -52s82 -28.5 140 -28.5
c57.333 0 102.666 10.833 135.999 32.5s48 57.5 44 107.5c-4.66699 56.667 -8.33398 106.667 -11.001 150s-4 82.333 -4 117c0 33.333 1.33301 77.166 4 131.499s6.33398 118.166 11.001 191.499h-150c15.333 -165.333 24.166 -272.5 26.499 -321.5z" />
    <glyph glyph-name="K" unicode="K" horiz-adv-x="610" 
d="M420 0c-40 62 -68.833 105.667 -86.5 131s-37.834 51.333 -60.501 78l-118 134c0 -39.333 1.33301 -87.5 4 -144.5s6.33398 -123.167 11.001 -198.5h-150c4.66699 77.333 8.33398 145 11.001 203s4 107 4 147s-1.33301 89 -4 147s-6.33398 125.667 -11.001 203h150
c-9.33301 -165.333 -14.333 -274 -15 -326l345 326h30l-291 -283c74 -101.333 125.167 -169.833 153.5 -205.5s87.5 -106.167 177.5 -211.5h-150z" />
    <glyph glyph-name="L" unicode="L" horiz-adv-x="580" 
d="M42 663c4.66699 -68 8.33301 -128.168 11 -180.501s4 -97.166 4 -134.499c0 -36.667 -1.33301 -80.334 -4 -131.001s-6 -108.334 -10 -173.001l-3 -44h500v160c0 7.33301 -1.5 13 -4.5 17s-7.16699 6 -12.5 6s-11 -2.16699 -17 -6.5s-11.333 -9.83301 -16 -16.5
c-2 -3.33301 -10 -17.833 -24 -43.5s-31.833 -48.667 -53.5 -69s-42.5 -29.5 -62.5 -27.5h-160c-4 72.667 -7.16699 135.834 -9.5 189.501s-3.5 100.5 -3.5 140.5c0 64 4.33301 180.667 13 350h-150c1.33301 -17.333 2 -29.666 2 -36.999z" />
    <glyph glyph-name="M" unicode="M" horiz-adv-x="760" 
d="M722.5 342.5c5 -58.333 17.499 -172.499 37.499 -342.499h-160c-4 122 -7.33301 207.667 -10 257s-7 99 -13 149s-18.333 138 -37 264l-190 -650c-2 -6 -5.16699 -10.5 -9.5 -13.5s-9.16602 -4.5 -14.499 -4.5c-6 0 -11.5 1.66699 -16.5 5s-8.16699 7.66602 -9.5 12.999
c-44.667 164.667 -75.5 274.167 -92.5 328.5s-52.833 161.5 -107.5 321.5l-60 -670h-30l60 700h170c30 -120 50.833 -200 62.5 -240s37.5 -120 77.5 -240l140 480h180c10 -180 17.5 -299.167 22.5 -357.5z" />
    <glyph glyph-name="N" unicode="N" 
d="M550 700v-690c0 -5.33301 -2 -9.83301 -6 -13.5s-9 -5.5 -15 -5.5c-11.333 0 -21 6.33301 -29 19l-60 98l-124.5 200c-25.667 40 -53.667 80.667 -84 122l-151.5 200v-630h-30v700h160l124 -206.5c23.333 -37.667 46.333 -71.667 69 -102l117 -151.5v460h30z" />
    <glyph glyph-name="O" unicode="O" horiz-adv-x="800" 
d="M583 681.5c56.667 -25.667 103.666 -66.3311 140.999 -121.998s56 -125.5 56 -209.5c0 -80.667 -17.667 -148.834 -53 -204.501s-81.333 -97.167 -138 -124.5s-116.334 -41 -179.001 -41c-68.667 0 -132.5 13.667 -191.5 41s-106.833 68.666 -143.5 123.999
s-55 123.666 -55 204.999c0 84.667 20.333 154.834 61 210.501s90.834 96.167 150.501 121.5s119.167 38 178.5 38c58.667 0 116.334 -12.833 173.001 -38.5zM237.499 600.503c-38.333 -66.333 -57.5 -153.167 -57.5 -260.5c0 -104 19.167 -186.667 57.5 -248
s95.833 -92 172.5 -92c76 0 131.667 30.833 167 92.5s53 147.5 53 257.5c0 108 -17.667 193.333 -53 256s-91 94 -167 94c-76.667 0 -134.167 -33.167 -172.5 -99.5z" />
    <glyph glyph-name="P" unicode="P" horiz-adv-x="570" 
d="M385.5 690c37 -10 70.332 -29 99.999 -57s44.5 -69 44.5 -123c0 -52.667 -14 -93.167 -42 -121.5s-59.667 -47.666 -95 -57.999s-53 -13.833 -53 -10.5c-13.333 0 -45.333 2 -96 6c-38.667 2.66699 -61.667 4 -69 4c0.666992 -44.667 2.83398 -102.334 6.50098 -173.001
s6.16699 -116 7.5 -136l1 -21h-150c4.66699 77.333 8.33398 145 11.001 203s4 107 4 147s-1.33301 89 -4 147s-6.33398 125.667 -11.001 203h290c0 3.33301 18.5 0 55.5 -10zM255.999 341c40 0 72.332 14.001 96.999 42.001s37 70.333 37 127
c0 58.667 -12.167 101.667 -36.5 129s-54.166 41 -89.499 41c-26 0 -50.667 -6.66699 -74 -20l-11 -171c-2.66699 -44.667 -4 -88.334 -4 -131.001c28.667 -11.333 55.667 -17 81 -17z" />
    <glyph glyph-name="Q" unicode="Q" horiz-adv-x="780" 
d="M572 681.5c56.667 -25.667 103.832 -66.168 141.499 -121.501s56.5 -125.333 56.5 -210c0 -80 -17.667 -147.833 -53 -203.5s-81.833 -97.334 -139.5 -125.001s-120.167 -41.5 -187.5 -41.5c-64.667 0 -126 13.333 -184 40s-105.167 67.834 -141.5 123.501
s-54.5 124.5 -54.5 206.5c0 84.667 20.333 154.834 61 210.501s90.834 96.167 150.501 121.5s119.167 38 178.5 38c58 0 115.333 -12.833 172 -38.5zM227.498 599.999c-38.333 -66.667 -57.5 -153.333 -57.5 -260c0 -104.667 19 -187.5 57 -248.5s95.667 -91.5 173 -91.5
c76.667 0 132.5 30.833 167.5 92.5s52.5 147.5 52.5 257.5c0 107.333 -17.667 192.5 -53 255.5s-91 94.5 -167 94.5c-76.667 0 -134.167 -33.333 -172.5 -100zM549.998 20c29.333 -12.667 48.501 -31.668 57.501 -57.001s13.5 -55.333 13.5 -90v-36
c0 -12.667 0.5 -22.667 1.5 -30s3.5 -13 7.5 -17c6.66699 -10.667 16.667 -16 30 -16c16 0 34.667 6.83301 56 20.5s40.666 28.834 57.999 45.501s26 26.667 26 30c0 2.66699 -9.33301 15.167 -28 37.5s-44.167 45.333 -76.5 69s-70.833 41.5 -115.5 53.5z" />
    <glyph glyph-name="R" unicode="R" horiz-adv-x="570" 
d="M498.5 186c9 -46 13.5 -91.3301 13.5 -135.997c0 -13.333 -0.333008 -24.333 -1 -33s-1 -14.334 -1 -17.001h-140c2.66699 17.333 4 33 4 47c0 38.667 -4.83301 80.5 -14.5 125.5s-22.834 80.833 -39.501 107.5c-13.333 21.333 -32.166 41.666 -56.499 60.999
s-48.833 29 -73.5 29h-30c0 -104.667 1 -175.667 3 -213s7.66699 -89.666 17 -156.999h-150c4.66699 77.333 8.33398 145 11.001 203s4 107 4 147s-1.33301 89 -4 147s-6.33398 125.667 -11.001 203h290c15.333 0 38 -4.83301 68 -14.5s57.833 -27 83.5 -52
s38.5 -59.5 38.5 -103.5c0 -51.333 -16.5 -88.833 -49.5 -112.5s-67.833 -38.834 -104.5 -45.501c16 -6.66699 32.667 -16.334 50 -29.001s32 -27 44 -43c23.333 -30 39.5 -68 48.5 -114zM255 390.003c40 0 72.499 12.167 97.499 36.5s37.5 58.833 37.5 103.5
c0 50 -13.667 87.333 -41 112s-59.666 37 -96.999 37c-28 0 -52 -6.33301 -72 -19c-8.66699 -44.667 -14.167 -84.5 -16.5 -119.5s-3.5 -78.5 -3.5 -130.5c34 -13.333 65.667 -20 95 -20z" />
    <glyph glyph-name="S" unicode="S" 
d="M45.5 75c23 -22.667 61.165 -46 114.498 -70s107.666 -36 162.999 -36c48 0 90.833 9.33301 128.5 28s67 44 88 76s31.5 66.667 31.5 104c0 33.333 -8.83301 63.166 -26.5 89.499s-39.334 49.166 -65.001 68.499s-60.167 42.333 -103.5 69l-26 16
c-34.667 22.667 -63 43 -85 61s-40.167 38.333 -54.5 61s-21.5 47.334 -21.5 74.001c0 35.333 8.5 60 25.5 74s36.833 21 59.5 21c28 0 50.167 -6.5 66.5 -19.5s28.5 -28.5 36.5 -46.5s15.667 -40.667 23 -68c5.33301 -20 10 -35 14 -45s9.33301 -17.333 16 -22
c4 -3.33301 9 -5 15 -5c16.667 0 35 11.333 55 34s36.167 43 48.5 61s19.5 28 21.5 30c-0.666992 4 -12.667 14.5 -36 31.5s-53.5 32.667 -90.5 47s-78.167 21.5 -123.5 21.5c-52 0 -96.167 -10 -132.5 -30s-63.5 -46.5 -81.5 -79.5s-27 -68.833 -27 -107.5
c0 -33.333 7.83301 -61.666 23.5 -84.999s34.834 -42.833 57.501 -58.5s54.334 -34.5 95.001 -56.5c14 -6.66699 22.333 -11 25 -13c42.667 -22.667 75.834 -43 99.501 -61s41.334 -38 53.001 -60s17.5 -48.333 17.5 -79c0 -34 -7.83301 -60.833 -23.5 -80.5
s-37.834 -29.5 -66.501 -29.5c-41.333 0 -76.833 15 -106.5 45s-51.167 59.333 -64.5 88s-26.333 61 -39 97c-7.33301 18 -17 27 -29 27c-26 0 -50.667 -22.333 -74 -67s-35.666 -68 -36.999 -70z" />
    <glyph glyph-name="T" unicode="T" horiz-adv-x="630" 
d="M26.5 560c3.66699 -4.66699 7.83008 -7 12.4971 -7c4 0 8 2.33301 12 7s7 11.334 9 20.001c6.66699 29.333 16.834 53.333 30.501 72s36.834 28 69.501 28h80c4.66699 -73.333 8.33398 -137.333 11.001 -192s4 -101.334 4 -140.001s-1.33301 -87 -4 -145
s-6.33398 -125.667 -11.001 -203h150c-4.66699 77.333 -8.33398 145 -11.001 203s-4 106.333 -4 145s1.33301 85.334 4 140.001s6.33398 118.667 11.001 192h80c24.667 0 43.5 -7.5 56.5 -22.5s24.5 -34.833 34.5 -59.5l9 -18c9.33301 -17.333 18.333 -26 27 -26
s13 8.66699 13 26v120h-590v-120c0.666992 -8.66699 2.83398 -15.334 6.50098 -20.001z" />
    <glyph glyph-name="U" unicode="U" horiz-adv-x="580" 
d="M47 468c2 -47.333 2.99707 -113.333 2.99707 -198c0 -73.333 9.16699 -131.166 27.5 -173.499s45.5 -72.333 81.5 -90s83 -26.5 141 -26.5c70.667 0 124.834 11.5 162.501 34.5s63.334 57.167 77.001 102.5s20.5 106.333 20.5 183v400h-30v-400
c0 -51.333 -4 -98.333 -12 -141s-26 -79.834 -54 -111.501s-69.333 -47.5 -124 -47.5c-38.667 0 -68.5 8 -89.5 24s-35.5 36.667 -43.5 62s-13.667 56.666 -17 93.999c-4.66699 52 -7 110.667 -7 176c0 52.667 1.33301 104.5 4 155.5s5.33398 93 8.00098 126l5 62.5h-170
c9.33301 -107.333 15 -184.666 17 -231.999z" />
    <glyph glyph-name="V" unicode="V" horiz-adv-x="590" 
d="M580 700l-200 -530l-60 -170h-20l-102 293c-20 54.667 -40.833 106.5 -62.5 155.5l-115.5 251.5h150c26 -88 49.167 -157.667 69.5 -209s44.833 -107.333 73.5 -168c20.667 -42.667 38 -80.667 52 -114l185 491h30z" />
    <glyph glyph-name="W" unicode="W" horiz-adv-x="850" 
d="M840 700l-220 -700h-30l-139 374l-141 -374h-30l-270 700h140l202 -510l84 224l-106 286h140l186 -492l154 492h30z" />
    <glyph glyph-name="X" unicode="X" 
d="M651 602c0 -4.66699 -2.33203 -8.33203 -6.99902 -10.999s-11.334 -4 -20.001 -4c-7.33301 0 -15.333 1 -24 3c-9.33301 2 -19.666 3 -30.999 3c-24 0 -48.667 -5 -74 -15s-47 -26 -65 -48l-81 -126l231 -404h-150l-158 276l-172 -276l-120 70
c-14 6.66699 -21 14.667 -21 24c0 5.33301 2.83301 9.66602 8.5 12.999s13.5 5 23.5 5c3.33301 0 9.66602 -0.666992 18.999 -2c12 -3.33301 25.333 -5 40 -5c24 0 47.5 5 70.5 15s42.833 26.667 59.5 50l81 126l-231 404h150l158 -276l172 276l120 -70
c14 -10 21 -19.333 21 -28z" />
    <glyph glyph-name="Y" unicode="Y" horiz-adv-x="590" 
d="M370 370c-4.66699 -35.333 -8.33398 -66.5 -11.001 -93.5s-4 -51.167 -4 -72.5s1.33301 -49 4 -83s6.33398 -74.333 11.001 -121h-150c4.66699 46.667 8.33398 87 11.001 121s4 61.667 4 83s-1.33301 45.5 -4 72.5s-6.33398 58.167 -11.001 93.5l-200 330h150l185 -305
l185 305h30z" />
    <glyph glyph-name="Z" unicode="Z" 
d="M548 177.5c6.66699 4.33301 12.333 6.50195 17 6.50195c10 0 15 -8 15 -24v-160h-500h-60l359 680h-129c-24.667 1.33301 -47.167 -9.83398 -67.5 -33.501s-40.833 -53.167 -61.5 -88.5l-11 -18c-4.66699 -8 -10.167 -14 -16.5 -18s-12.5 -6 -18.5 -6
c-10.667 0 -15.667 8 -15 24v160h460h20l-359 -680h209c22 0 42.5 10.5 61.5 31.5s39.833 48.833 62.5 83.5l16 25c5.33301 7.33301 11.333 13.166 18 17.499z" />
    <glyph glyph-name="a" unicode="a" horiz-adv-x="560" 
d="M507 2c7.33301 0 14.168 1.16797 20.501 3.50098s10.5 3.83301 12.5 4.5v-20c-33.333 -12.667 -64.666 -19 -93.999 -19c-32 0 -57.167 7.16699 -75.5 21.5s-28.5 30.166 -30.5 47.499v1c-22.667 -17.333 -49.834 -33.5 -81.501 -48.5s-64.5 -22.5 -98.5 -22.5
c-30.667 0 -60 8.66699 -88 26s-42 52 -42 104c0 66.667 24 112.5 72 137.5s103 37.5 165 37.5c14 0 35.667 -1.33301 65 -4c0 24.667 -0.666992 61 -2 109c-0.666992 34 -2.33398 59.333 -5.00098 76s-8.83398 29.834 -18.501 39.501s-25.167 14.5 -46.5 14.5
c-23.333 0 -42.166 -6 -56.499 -18s-25 -26.167 -32 -42.5s-13.833 -36.5 -20.5 -60.5c-5.33301 -20.667 -10.5 -35.834 -15.5 -45.501s-11.5 -14.5 -19.5 -14.5c-11.333 0 -23.5 9.66699 -36.5 29s-24 39.5 -33 60.5s-14.5 34.833 -16.5 41.5c78 46.667 154.667 70 230 70
c70 0 120.833 -18 152.5 -54s47.5 -91.333 47.5 -166v-240c0 -45.333 15.667 -68 47 -68zM339.002 60.001c-1.33301 29.333 -3.33301 93.332 -6 191.999c-23.333 4.66699 -37.666 7.33398 -42.999 8.00098c-4 0.666992 -11 1 -21 1c-31.333 0 -59 -8.5 -83 -25.5
s-36 -48.833 -36 -95.5c0 -38 8.66699 -67.5 26 -88.5s38.666 -31.5 63.999 -31.5c28 0 61 13.333 99 40z" />
    <glyph glyph-name="b" unicode="b" 
d="M398.5 502c39.667 -18.667 73 -48.335 100 -89.002s40.833 -91.667 41.5 -153c-0.666992 -59.333 -13.834 -110.166 -39.501 -152.499s-57.667 -74.166 -96 -95.499s-76.5 -32 -114.5 -32c-28 0 -52.167 4.66699 -72.5 14s-37.166 20.666 -50.499 33.999
c1.33301 -18.667 2.33301 -28 3 -28h-150c-2 0 -2.16699 6.83301 -0.5 20.5s2.5 22.167 2.5 25.5c11.333 98 17.333 192.667 18 284c-0.666992 62.667 -2.5 121.334 -5.5 176.001s-6 98.5 -9 131.5s-4.83301 53.833 -5.5 62.5h160c-2 0 -5 -23.333 -9 -70s-7 -100 -9 -160
c26 40 65.333 60 118 60c39.333 0 78.833 -9.33301 118.5 -28zM363 80.999c23.333 47.333 35.668 107 37.001 179c-1.33301 62 -11.833 117.5 -31.5 166.5s-55.834 73.5 -108.501 73.5c-32 0 -55.667 -8.16699 -71 -24.5s-24.666 -34.5 -27.999 -54.5
c-0.666992 -22 -1 -55.667 -1 -101v-47c0 -80 1.66699 -150 5 -210c20 -35.333 51.667 -53 95 -53c45.333 0 79.666 23.667 102.999 71z" />
    <glyph glyph-name="c" unicode="c" horiz-adv-x="550" 
d="M157 9.5c-42 26.333 -72.0059 59.834 -90.0059 100.501s-27 84 -27 130c0 51.333 10.667 99 32 143s53.833 79.5 97.5 106.5s97.167 40.5 160.5 40.5c51.333 0 91.833 -8.83301 121.5 -26.5s50.167 -36.334 61.5 -56.001s17 -32.167 17 -37.5
c-3.33301 -4.66699 -11.166 -14.334 -23.499 -29.001s-26.666 -28.834 -42.999 -42.501s-31.166 -20.5 -44.499 -20.5c-14 0 -20.333 7.33301 -19 22l3 21c3.33301 30 5 49 5 57c0 27.333 -7 49.5 -21 66.5s-39.667 25.5 -77 25.5c-42 0 -77.5 -13.167 -106.5 -39.5
s-43.5 -73.166 -43.5 -140.499c0 -55.333 11.333 -107.666 34 -156.999s51.834 -88.833 87.501 -118.5s71.834 -44.5 108.501 -44.5c20.667 0 36.834 0.833008 48.501 2.5s24 6 37 13s27.833 18.5 44.5 34.5l10 -10c-14.667 -16.667 -38 -34.167 -70 -52.5
s-78.667 -27.5 -140 -27.5c-66.667 0 -121 13.167 -163 39.5z" />
    <glyph glyph-name="d" unicode="d" horiz-adv-x="570" 
d="M560 589c-6.66699 -71.333 -10.001 -157.665 -10.001 -258.998c0 -53.333 1.5 -104.333 4.5 -153s6 -88.334 9 -119.001s5.16699 -50 6.5 -58h-150l2 42c-12.667 -16.667 -29.167 -31.167 -49.5 -43.5s-44.5 -18.5 -72.5 -18.5c-33.333 0 -69.333 8.16699 -108 24.5
s-72 43.833 -100 82.5s-42 89.667 -42 153c0 55.333 11.833 105.166 35.5 149.499s54.667 78.833 93 103.5s78.833 37 121.5 37c31.333 0 57.333 -6 78 -18s36.667 -27.333 48 -46c-2.66699 56 -5.66699 106 -9 150s-5.66602 72 -6.99902 84h160
c0 -2.66699 -3.33301 -39.667 -10 -111zM423.999 72.001c4 77.333 6 153.332 6 227.999c0 29.333 -0.666992 69.333 -2 120c-3.33301 20.667 -12.5 39.167 -27.5 55.5s-38.5 24.5 -70.5 24.5c-52.667 0 -89.167 -23.167 -109.5 -69.5s-30.5 -103.166 -30.5 -170.499
c0 -80 11.5 -141.667 34.5 -185s58.167 -65 105.5 -65c42 0 73.333 20.667 94 62z" />
    <glyph glyph-name="e" unicode="e" horiz-adv-x="550" 
d="M394.5 310.5l-209.5 -131.502c18.667 -51.333 46 -92.333 82 -123s73.667 -46 113 -46c24.667 0 43.5 0.833008 56.5 2.5s26.167 6 39.5 13s28 18.5 44 34.5l10 -10c-12 -12 -23.833 -22.667 -35.5 -32s-33.667 -19.666 -66 -30.999s-71.833 -17 -118.5 -17
c-65.333 0 -118.833 11.833 -160.5 35.5s-72 55.167 -91 94.5s-28.5 82.666 -28.5 129.999c0 51.333 10.5 99.833 31.5 145.5s53.333 82.834 97 111.501s97.5 43 161.5 43c53.333 0 96.333 -9.16699 129 -27.5s55.5 -38.5 68.5 -60.5s17.167 -36 12.5 -42
c-4 -5.33301 -49.167 -35.166 -135.5 -89.499zM367.5 475.998c-15 22.667 -40.833 33.999 -77.5 33.999c-35.333 0 -65.833 -14.833 -91.5 -44.5s-38.5 -78.167 -38.5 -145.5c0 -40.667 5.66699 -79.667 17 -117c52 26.667 100.5 57.834 145.5 93.501
s67.5 72.167 67.5 109.5c0 24 -7.5 47.333 -22.5 70z" />
    <glyph glyph-name="f" unicode="f" horiz-adv-x="540" 
d="M435.5 708c29.667 -14.667 52.833 -30.6699 69.5 -48.0029s25 -27.333 25 -30c0 -1.33301 -6.83301 -10.166 -20.5 -26.499s-28.834 -31.166 -45.501 -44.499s-32.334 -20 -47.001 -20c-6 0 -12.167 1.83301 -18.5 5.5s-9.16602 8.83398 -8.49902 15.501
c4 33.333 6 56.333 6 69c0 26.667 -5.5 46.834 -16.5 60.501s-30.833 20.5 -59.5 20.5c-40 0 -70 -14.333 -90 -43s-30 -74.334 -30 -137.001v-30h150v-30h-150v-470h-120v440c0 13.333 0.333008 23.333 1 30h-61v30h63c10.667 82.667 39.5 141.667 86.5 177
s100.5 53 160.5 53c40.667 0 75.834 -7.33301 105.501 -22z" />
    <glyph glyph-name="g" unicode="g" horiz-adv-x="520" 
d="M502 535.5c0.666992 -7.66699 0.994141 -16.8281 0.994141 -27.4951c0 -30 -4.33301 -49.333 -13 -58c-2 -2 -4 -3 -6 -3c-3.33301 0 -8 4.33301 -14 13c-13.333 18.667 -27.5 32.5 -42.5 41.5s-29.167 13.5 -42.5 13.5c-11.333 0 -21 -3 -29 -9
c24.667 -12 44.834 -27.833 60.501 -47.5s23.5 -42.5 23.5 -68.5c0 -29.333 -9.66699 -53.666 -29 -72.999s-43.5 -33.666 -72.5 -42.999s-58.5 -14 -88.5 -14c-38.667 0 -74.667 6.33301 -108 19c-17.333 -2 -32 -8.16699 -44 -18.5s-18 -27.166 -18 -50.499
c0 -20.667 6 -34.5 18 -41.5s32 -10.5 60 -10.5c17.333 0 31 0.333008 41 1l61 1c62 0 114.167 -9.16699 156.5 -27.5s63.5 -55.833 63.5 -112.5c0 -40.667 -12.167 -77.834 -36.5 -111.501s-55.166 -60.167 -92.499 -79.5s-74.333 -29 -111 -29
c-27.333 0 -58.166 4.83301 -92.499 14.5s-64.166 25 -89.499 46s-38 47.5 -38 79.5c0 27.333 8.66699 49.166 26 65.499s38 28.166 62 35.499c-32 10 -56.333 25.667 -73 47s-25 45.333 -25 72c0 34.667 12.5 62.5 37.5 83.5s50.833 35.167 77.5 42.5
c-23.333 11.333 -41.666 25.666 -54.999 42.999s-20 37.666 -20 60.999c0 30 10.667 55.833 32 77.5s47.5 37.667 78.5 48s60.833 15.166 89.5 14.499c30 1.33301 60.667 -4.66699 92 -18l18 18c24.667 24.667 52 37 82 37c10 0 19.333 -1.33301 28 -4
s15.5 -5.33398 20.5 -8.00098l9.5 -5.00098c0.666992 -2 1.33398 -6.83301 2.00098 -14.5zM321.494 306.006c12.333 16.667 18.5 44.666 18.5 83.999c0 40.667 -6.16699 70.834 -18.5 90.501s-36.166 29.5 -71.499 29.5c-36 0 -61.667 -10.5 -77 -31.5s-23 -50.5 -23 -88.5
c0 -37.333 7.5 -64.833 22.5 -82.5s40.833 -26.834 77.5 -27.501c35.333 0.666992 59.166 9.33398 71.499 26.001zM387.494 23.5049c-15 9.66699 -36.498 14.5 -64.498 14.5c-12.667 0 -34.334 -1.33301 -65.001 -4s-53.334 -4 -68.001 -4c-8 0 -18.667 0.666992 -32 2
c-25.333 -26.667 -38 -57.334 -38 -92.001c0 -34 11 -62.5 33 -85.5s51 -34.5 87 -34.5c25.333 0 51.333 6.5 78 19.5s48.667 30.833 66 53.5s26 48.334 26 77.001c0 26 -7.5 43.833 -22.5 53.5z" />
    <glyph glyph-name="h" unicode="h" horiz-adv-x="550" 
d="M350 0c0 -3.33301 1.83398 1.83594 5.50098 15.5029s7 36.834 10 69.501s4.5 77.667 4.5 135c0 81.333 -3.33301 142.166 -10 182.499s-15.5 66.666 -26.5 78.999s-25.5 18.5 -43.5 18.5c-40.667 0 -76.667 -24 -108 -72c-1.33301 -42.667 -2 -75.334 -2 -98.001
c0 -52.667 1.5 -103.5 4.5 -152.5s6 -88.833 9 -119.5s5.16699 -50 6.5 -58h-160c1.33301 8.66699 3.5 29.167 6.5 61.5s6 73.666 9 123.999s4.5 101.833 4.5 154.5s-1.5 105.667 -4.5 159s-6 97.833 -9 133.5s-5.16699 58.167 -6.5 67.5h160
c-1.33301 -12 -3.83301 -40.5 -7.5 -85.5s-6.83398 -94.167 -9.50098 -147.5c39.333 42 91.666 63 156.999 63c43.333 0 75.833 -10.667 97.5 -32s35.834 -52 42.501 -92s10 -95.333 10 -166c0 -64 1.5 -113.833 4.5 -149.5s6.33301 -60.667 10 -75s5.5 -19.5 5.5 -15.5
h-160z" />
    <glyph glyph-name="i" unicode="i" horiz-adv-x="230" 
d="M70 580c-13.333 13.333 -20 30 -20 50s6.66699 36.667 20 50s30 20 50 20s36.667 -6.66699 50 -20s20 -30 20 -50s-6.66699 -36.667 -20 -50s-30 -20 -50 -20s-36.667 6.66699 -50 20zM200 510c-1.33301 -4 -3.5 -14.6738 -6.5 -32.0068s-6 -44.666 -9 -81.999
s-4.5 -82.666 -4.5 -135.999s1.5 -99.166 4.5 -137.499s6 -67.166 9 -86.499s5.16699 -31.333 6.5 -36h-160c1.33301 5.33301 3.5 18.5 6.5 39.5s6 51.5 9 91.5s4.5 86.333 4.5 139s-1.5 96.834 -4.5 132.501s-6.33301 63.334 -10 83.001s-5.5 27.834 -5.5 24.501h160z" />
    <glyph glyph-name="j" unicode="j" horiz-adv-x="440" 
d="M300 580c-13.333 13.333 -20 30 -20 50s6.66699 36.667 20 50s30 20 50 20s36.667 -6.66699 50 -20s20 -30 20 -50s-6.66699 -36.667 -20 -50s-30 -20 -50 -20s-36.667 6.66699 -50 20zM410 -60c2 -50.667 -12.666 -86.665 -43.999 -107.998s-73.333 -32 -126 -32
c-68.667 0 -119.667 13.5 -153 40.5s-54.333 48.667 -63 65s-13.334 24.833 -14.001 25.5c0 0.666992 2.66699 10.167 8 28.5s17.333 36.333 36 54s40.667 26.5 66 26.5c9.33301 0 16.166 -1.83301 20.499 -5.5s7.5 -11.834 9.5 -24.501
c0.666992 -6 1.33398 -14 2.00098 -24s1 -17.667 1 -23c0.666992 -44.667 5 -79.667 13 -105s26 -38 54 -38c21.333 0 36.333 9.16699 45 27.5s13.667 49.166 15 92.499c1.33301 18.667 3.33301 58.5 6 119.5s4 114.5 4 160.5c0 44.667 -1.5 88.5 -4.5 131.5
s-6 78.333 -9 106s-5.16699 45.167 -6.5 52.5h160c-1.33301 -8 -3.5 -26.333 -6.5 -55s-6 -63.667 -9 -105s-4.5 -81.333 -4.5 -120v-290zM10.001 -68.998v-1v1z" />
    <glyph glyph-name="k" unicode="k" horiz-adv-x="540" 
d="M186 272l-23.999 -21.001c2 -57.333 5.16699 -110.166 9.5 -158.499s7.16602 -79.166 8.49902 -92.499h-160c1.33301 10 3.5 33.667 6.5 71s6 83.333 9 138s4.5 108.334 4.5 161.001s-1.5 103.5 -4.5 152.5s-6 88.833 -9 119.5s-5.16699 50 -6.5 58h160
c-1.33301 -8.66699 -3.5 -28.834 -6.5 -60.501s-6 -72.834 -9 -123.501s-4.5 -102.667 -4.5 -156c0 -37.333 0.333008 -65 1 -83l249 223h30l-175 -157l245 -343h-130z" />
    <glyph glyph-name="l" unicode="l" horiz-adv-x="290" 
d="M214 -16.5c19.333 9 35.1699 18.667 47.5029 29s18.5 16.166 18.5 17.499l-10 20c-2.66699 -2.66699 -8.33398 -7.66699 -17.001 -15s-19 -14.333 -31 -21s-23 -10 -33 -10c-14.667 0 -24.334 8.66699 -29.001 26c-6.66699 24.667 -10 98 -10 220
c0 111.333 1.5 200.333 4.5 267s6.33301 115.5 10 146.5s5.5 43.167 5.5 36.5h-160c0 6 1.83301 -7.66699 5.5 -41s7 -81.166 10 -143.499s4.5 -140.833 4.5 -235.5v-220c0 -14 5.16699 -28 15.5 -42s24.833 -25.5 43.5 -34.5s39 -13.5 61 -13.5
c23.333 0 44.666 4.5 63.999 13.5z" />
    <glyph glyph-name="m" unicode="m" horiz-adv-x="790" 
d="M620 0c0 -4 1.83398 1.33496 5.50098 16.002s7 40.667 10 78s4.5 89.333 4.5 156c0 74.667 -2.5 129.5 -7.5 164.5s-12.833 58 -23.5 69s-27 16.5 -49 16.5c-20.667 0 -39.834 -10.5 -57.501 -31.5s-33.167 -46.833 -46.5 -77.5c3.33301 -24.667 5 -57.334 5 -98.001
l-1 -93c0 -51.333 1.5 -91.833 4.5 -121.5s6.33301 -51 10 -64s5.5 -17.833 5.5 -14.5h-160c0 -4 1.83301 1.33301 5.5 16s7 40.667 10 78s4.5 89.333 4.5 156c0 74.667 -2.5 129.5 -7.5 164.5s-12.833 58 -23.5 69s-27 16.5 -49 16.5c-30 0 -59 -24 -87 -72
c-2 -40 -3 -89.333 -3 -148c0 -62 1.5 -113.833 4.5 -155.5s6.33301 -73.834 10 -96.501s5.5 -32 5.5 -28h-160c1.33301 5.33301 3.5 18.5 6.5 39.5s6 51.5 9 91.5s4.5 86.333 4.5 139s-1.5 98.334 -4.5 137.001s-6 67.667 -9 87s-5.16699 31.333 -6.5 36h150
c-0.666992 -3.33301 -1.5 -11.333 -2.5 -24s-1.83301 -29.667 -2.5 -51c34.667 50 83 75 145 75c36.667 0 65 -8.33301 85 -25s34.333 -40.667 43 -72c15.333 28 36.833 51.167 64.5 69.5s63.5 27.5 107.5 27.5c41.333 0 72 -9.5 92 -28.5s33 -44.667 39 -77
s9 -74.833 9 -127.5v-77c0 -58.667 1.5 -104.334 4.5 -137.001s6.33301 -55.667 10 -69s5.5 -18 5.5 -14h-160z" />
    <glyph glyph-name="n" unicode="n" horiz-adv-x="550" 
d="M340 0c0 -3.33301 1.83203 1.83398 5.49902 15.501s7 36.834 10 69.501s4.5 77.667 4.5 135c0 81.333 -3.33301 142.166 -10 182.499s-15.5 66.666 -26.5 78.999s-25.5 18.5 -43.5 18.5c-39.333 0 -75 -23 -107 -69l-1 -32c-1.33301 -45.333 -2 -85 -2 -119
c0 -62 1.5 -113.833 4.5 -155.5s6.33301 -73.834 10 -96.501s5.5 -32 5.5 -28h-160c1.33301 5.33301 3.5 18.5 6.5 39.5s6 51.5 9 91.5s4.5 86.333 4.5 139s-1.5 98.334 -4.5 137.001s-6 67.667 -9 87s-5.16699 31.333 -6.5 36h150l-5 -61c39.333 40.667 91 61 155 61
c43.333 0 75.833 -10.667 97.5 -32s35.834 -52 42.501 -92s10 -95.333 10 -166c0 -64 1.5 -113.833 4.5 -149.5s6.33301 -60.667 10 -75s5.5 -19.5 5.5 -15.5h-160z" />
    <glyph glyph-name="o" unicode="o" horiz-adv-x="610" 
d="M436 504c41.333 -18.667 75.667 -49.3281 103 -91.9951s41 -96.667 41 -162c0 -62.667 -12.833 -114.834 -38.5 -156.501s-59 -72.334 -100 -92.001s-84.833 -30.167 -131.5 -31.5c-50.667 1.33301 -97.167 12.166 -139.5 32.499s-76.333 51.333 -102 93
s-38.5 93.167 -38.5 154.5c0 64.667 14 118.167 42 160.5s63.5 73.166 106.5 92.499s86.833 28.333 131.5 27c42.667 1.33301 84.667 -7.33398 126 -26.001zM221.001 469.006c-20 -20.667 -33.499 -49.666 -40.499 -86.999s-10.5 -84.666 -10.5 -141.999
c0 -53.333 3.16699 -96.333 9.5 -129s19.666 -58.834 39.999 -78.501s50.5 -30.5 90.5 -32.5c38.667 1.33301 67.5 11.833 86.5 31.5s31 45.5 36 77.5s7.5 75.667 7.5 131c0 65.333 -2.83301 115.666 -8.5 150.999s-18 62.333 -37 81s-48.167 28 -87.5 28
c-37.333 0 -66 -10.333 -86 -31z" />
    <glyph glyph-name="p" unicode="p" 
d="M436 495.5c38.667 -23 70.666 -56.5 95.999 -100.5s38 -95.667 38 -155c0 -60.667 -13 -110.5 -39 -149.5s-58.167 -67.167 -96.5 -84.5s-76.5 -26 -114.5 -26c-57.333 0 -99.333 20 -126 60c2 -57.333 4.83301 -108.666 8.5 -153.999s6.16699 -74 7.5 -86h-160
c1.33301 11.333 3.5 37.166 6.5 77.499s6 89.333 9 147s4.5 112.834 4.5 165.501s-1.5 104.167 -4.5 154.5s-6 91.666 -9 123.999s-5.16699 52.833 -6.5 61.5h150l-3 -56c34 37.333 75 56 123 56c38.667 0 77.334 -11.5 116.001 -34.5zM400.999 80.5
c19.333 47 28.999 100.167 28.999 159.5c0 72 -12 133.333 -36 184s-58.667 76 -104 76c-41.333 0 -72.666 -19 -93.999 -57c-4 -86.667 -6 -167.667 -6 -243c0 -26.667 0.666992 -64.667 2 -114c4 -18.667 13.167 -36 27.5 -52s37.833 -24 70.5 -24
c54.667 0 91.667 23.5 111 70.5z" />
    <glyph glyph-name="q" unicode="q" 
d="M563.5 462.5c-3 -35.667 -6.00098 -80.166 -9.00098 -133.499s-4.5 -106.333 -4.5 -159s1.5 -106.334 4.5 -161.001s6 -100.667 9 -138s5.16699 -61 6.5 -71h-160c1.33301 12 4 40.5 8 85.5s7 96.833 9 155.5c-26 -40.667 -68.333 -61 -127 -61
c-38 0 -76.167 8.66699 -114.5 26s-70.5 45.5 -96.5 84.5s-39 88.833 -39 149.5c0 59.333 12.667 111 38 155s57.333 77.5 96 100.5s77.334 34.5 116.001 34.5c48 0 89 -18.667 123 -56l-3 56h150c-1.33301 -9.33301 -3.5 -31.833 -6.5 -67.5zM401.999 35.501
c14.667 17 23.667 34.834 27 53.501c0.666992 19.333 1 49.666 1 90.999c0 80 -2 168 -6 264c-20.667 37.333 -52 56 -94 56c-45.333 0 -80 -25.333 -104 -76s-36 -112 -36 -184c0 -59.333 9.66699 -112.5 29 -159.5s56.333 -70.5 111 -70.5c33.333 0 57.333 8.5 72 25.5z
" />
    <glyph glyph-name="r" unicode="r" horiz-adv-x="480" 
d="M286 491c29.333 0 55.835 -6.83301 79.502 -20.5s43.334 -27.334 59.001 -41.001s24.167 -20.167 25.5 -19.5c-2 -2 -9.5 -12 -22.5 -30s-28.5 -34.667 -46.5 -50s-35 -22 -51 -20h-2c-4.66699 0 -8.83398 1.66699 -12.501 5s-5.5 8.33301 -5.5 15c10 30 15 54.667 15 74
c0 22.667 -5.33301 39.334 -16 50.001s-23.667 16 -39 16c-26.667 0 -46.667 -10 -60 -30c-20 -20.667 -33.667 -48.667 -41 -84c0 -28 0.333008 -50 1 -66l-2 2c0.666992 -1.33301 1.33398 -2 2.00098 -2v-10v-46c0 -51.333 1.5 -94.333 4.5 -129s6.33301 -61.667 10 -81
s5.5 -27.333 5.5 -24h-160l5 39.5c2.66699 21 5.5 51.5 8.5 91.5s5.16699 86.333 6.5 139c-1.33301 52.667 -3.5 96.834 -6.5 132.501s-5.83301 61.667 -8.5 78s-4.33398 26.166 -5.00098 29.499h150c-0.666992 -3.33301 -1.83398 -12 -3.50098 -26s-3.16699 -32 -4.5 -54
c19.333 38 52 58 98 60c3.33301 0.666992 8.66602 1 15.999 1zM170.002 290z" />
    <glyph glyph-name="s" unicode="s" horiz-adv-x="490" 
d="M349.5 514.5c29.667 -10.333 53.835 -21.6699 72.502 -34.0029s28 -19.166 28 -20.499c-2.66699 -6.66699 -8.5 -20.5 -17.5 -41.5s-19.667 -41.167 -32 -60.5s-23.833 -29 -34.5 -29c-7.33301 0 -13.166 4.5 -17.499 13.5s-9.5 23.833 -15.5 44.5
c-6.66699 24 -13.834 44.5 -21.501 61.5s-18.834 31.5 -33.501 43.5s-34 18 -58 18c-25.333 0 -45 -7 -59 -21s-21 -33.667 -21 -59s6.66699 -46.166 20 -62.499s29.833 -29.166 49.5 -38.499s46.167 -19.666 79.5 -30.999c34.667 -11.333 62.834 -22.166 84.501 -32.499
s39.834 -24.833 54.501 -43.5s22 -42.667 22 -72c0 -32 -8.5 -61.833 -25.5 -89.5s-40 -49.667 -69 -66s-60.833 -24.5 -95.5 -24.5c-30 0 -63.5 5.16699 -100.5 15.5s-71.167 21.833 -102.5 34.5s-47 19.334 -47 20.001c0 2 4.66699 15.5 14 40.5s19.833 47.167 31.5 66.5
s23.167 27 34.5 23c6 -2 12.167 -7 18.5 -15s15.166 -21 26.499 -39c25.333 -38.667 49.666 -69.334 72.999 -92.001s50.666 -34 81.999 -34c23.333 0 42.5 8.33301 57.5 25s22.5 35 22.5 55c0 24 -11.667 44 -35 60s-59.333 34 -108 54c-36 15.333 -65.5 29 -88.5 41
s-42.833 26.667 -59.5 44s-26.334 37.666 -29.001 60.999l-1 14c0 25.333 6 52.166 18 80.499s33 53 63 74s70 31.5 120 31.5c36.667 0 69.834 -5.16699 99.501 -15.5z" />
    <glyph glyph-name="t" unicode="t" horiz-adv-x="390" 
d="M223.5 578.5c-3 -11 -5.99902 -23.8359 -8.99902 -38.5029s-4.5 -28 -4.5 -40h150v-30h-150c-1.33301 -14.667 -3.33301 -47.667 -6 -99s-4 -105 -4 -161c0 -53.333 2 -94.5 6 -123.5s11.667 -50.667 23 -65s28.333 -21.5 51 -21.5c22 0 39.167 9.5 51.5 28.5
s20.166 33.833 23.499 44.5s5 16.334 5 17.001h20c-0.666992 -0.666992 -2.83398 -10.667 -6.50098 -30s-18 -39.166 -43 -59.499s-58.5 -30.5 -100.5 -30.5c-53.333 0 -91.666 16.333 -114.999 49s-35 76.334 -35 131.001c0 9.33301 1.33301 47.333 4 114
c4 122 6 190.667 6 206h-90v30h90c0 12 -1.5 25.333 -4.5 40s-6 27.5 -9 38.5s-5.16699 18.167 -6.5 21.5h160c-1.33301 -3.33301 -3.5 -10.5 -6.5 -21.5z" />
    <glyph glyph-name="u" unicode="u" horiz-adv-x="620" 
d="M531 -1c6.66699 0 14.333 2.33594 23 7.00293s16.334 9.5 23.001 14.5s11 8.16699 13 9.5v-20c0 -1.33301 -4.16699 -5.33301 -12.5 -12s-20 -13 -35 -19s-32.5 -9 -52.5 -9c-37.333 0 -65 9.16699 -83 27.5s-27 39.166 -27 62.499v3
c-16.667 -26.667 -39.5 -48.834 -68.5 -66.501s-66.167 -26.5 -111.5 -26.5c-43.333 0 -76 9.5 -98 28.5s-36.333 43.5 -43 73.5s-10 67.333 -10 112l1 76c0 38.667 -1.5 76.5 -4.5 113.5s-6 67.5 -9 91.5s-5.16699 39 -6.5 45h160c0 4 -1.83301 -6.66699 -5.5 -32
s-7 -61 -10 -107s-4.5 -103 -4.5 -171c0 -50 1.66699 -88.5 5 -115.5s10.666 -47.833 21.999 -62.5s29 -22 53 -22c31.333 0 58.333 12.667 81 38s41 54.333 55 87c2.66699 25.333 4 43.666 4 54.999c0 74 -1.5 135.5 -4.5 184.5s-6.33301 86.667 -10 113
s-5.5 37.166 -5.5 32.499h160c0 4.66699 -1.83301 -6.16602 -5.5 -32.499s-7 -64 -10 -113s-4.5 -110.5 -4.5 -184.5v-150c0 -20.667 7 -31 21 -31z" />
    <glyph glyph-name="v" unicode="v" horiz-adv-x="430" 
d="M420 500l-130.001 -389.997h-1l-49 -140c0 2.66699 -3.33301 18.5 -10 47.5s-17.5 65.667 -32.5 110s-34.167 91.833 -57.5 142.5c-18 38.667 -36.5 75 -55.5 109s-35.167 61.333 -48.5 82s-22 33.667 -26 39h160c0 -6.66699 3.5 -26.334 10.5 -59.001
s20.167 -76.334 39.5 -131.001c22.667 -66.667 42.334 -114.334 59.001 -143.001l111 333h30z" />
    <glyph glyph-name="w" unicode="w" horiz-adv-x="670" 
d="M660 500l-130.002 -389.995h-1l-49 -140c0 2.66699 -3.33301 18.5 -10 47.5s-17.5 65.667 -32.5 110s-34.167 91.833 -57.5 142.5c-10.667 23.333 -20 42.333 -28 57l-72 -217h-1l-49 -140c0 2.66699 -3.33301 18.5 -10 47.5s-17.5 65.667 -32.5 110
s-34.167 91.833 -57.5 142.5c-18 38.667 -36.5 75 -55.5 109s-35.167 61.333 -48.5 82s-22 33.667 -26 39h160c0 -6.66699 3.5 -26.334 10.5 -59.001s20.167 -76.334 39.5 -131.001c22.667 -66.667 42.334 -114.334 59.001 -143.001l65 195
c-18.667 34 -36.167 63.833 -52.5 89.5s-26.833 41.834 -31.5 48.501h130h30c0 -6.66699 3.5 -26.334 10.5 -59.001s20.167 -76.334 39.5 -131.001c22.667 -66.667 42.334 -114.334 59.001 -143.001l111 333h30z" />
    <glyph glyph-name="x" unicode="x" horiz-adv-x="520" 
d="M310 250c22 -46 44.168 -87.502 66.501 -124.502s40.833 -65.833 55.5 -86.5l28 -39h-160c0 6 -4.83301 26.5 -14.5 61.5s-25.5 78.167 -47.5 129.5l-138 -191h-30l156 217l-6 13c-22.667 48 -45.834 92 -69.501 132s-43.5 71.5 -59.5 94.5s-26.333 37.5 -31 43.5h160
c0.666992 -4 3 -14.167 7 -30.5s11 -39.166 21 -68.499s23 -62.666 39 -99.999l143 199h30l-162 -225z" />
    <glyph glyph-name="y" unicode="y" horiz-adv-x="430" 
d="M410 500l-76.501 -231.503l-55.5 -171.5l-48 -147c-7.33301 -22 -19.333 -44.667 -36 -68s-34 -42.833 -52 -58.5s-32 -23.5 -42 -23.5c-9.33301 0 -20.333 6.5 -33 19.5s-23.667 28.333 -33 46s-14 32.5 -14 44.5c0 20 10 30 30 30c10.667 0 27.334 -4.66699 50.001 -14
c24 -10 42 -15 54 -15c21.333 0 36.666 13 45.999 39c2.66699 6.66699 10 27.334 22 62.001c-15.333 80.667 -42.666 163.334 -81.999 248.001c-18 38.667 -37.333 75.834 -58 111.501s-38.5 64.5 -53.5 86.5l-28.5 42h160c0 -11.333 2.66699 -30.833 8 -58.5
s19.333 -71.5 42 -131.5c25.333 -68 47.333 -115.667 66 -143c33.333 97.333 59 176.5 77 237.5s27 92.833 27 95.5h30z" />
    <glyph glyph-name="z" unicode="z" horiz-adv-x="440" 
d="M413 125c4.66699 0 7.00098 -4.99707 7.00098 -14.9971v-110h-250h-110h-50l28 39c14.667 20.667 33.167 49.5 55.5 86.5s44.5 78.5 66.5 124.5c38.667 79.333 67.334 156 86.001 230h-46c-18 1.33301 -34.5 -5.83398 -49.5 -21.501s-26.667 -30.334 -35 -44.001
s-13.5 -21.834 -15.5 -24.501c-3.33301 -6 -7.5 -10.5 -12.5 -13.5s-9.5 -4.5 -13.5 -4.5c-9.33301 0 -14 6 -14 18v110h190h130h30c-4.66699 -6 -15 -20.5 -31 -43.5s-35.833 -54.5 -59.5 -94.5s-46.834 -84 -69.501 -132c-38.667 -82.667 -64 -152.667 -76 -210h116
c13.333 0.666992 26.166 7 38.499 19s26.5 28 42.5 48c10.667 13.333 17 21 19 23c10 10 17.667 15 23 15z" />
    <glyph glyph-name="Ccedilla" unicode="&#xc7;" horiz-adv-x="720" 
d="M660 90l19.999 -10.0039c-10 -13.333 -26 -28.166 -48 -44.499s-52.833 -31.166 -92.5 -44.499s-86.167 -20.333 -139.5 -21l-60 -60c6 5.33301 14.333 10 25 14s22.334 6 35.001 6c16.667 0 35.834 -6.33301 57.501 -19s32.5 -39.667 32.5 -81
c0.666992 -42.667 -11.666 -70 -36.999 -82s-53 -18 -83 -18c-15.333 0 -31.666 4.66699 -48.999 14s-31 21.333 -41 36h10c0.666992 0.666992 3.66699 0.166992 9 -1.5s9.66602 -3.16699 12.999 -4.5c14.667 -5.33301 27.167 -9.66602 37.5 -12.999s20.5 -5 30.5 -5
c33.333 0 50 21.333 50 64c0 28.667 -5.83301 48.834 -17.5 60.501s-26.167 17.5 -43.5 17.5c-8.66699 0 -16.834 -1.16699 -24.501 -3.5s-12.5 -3.83301 -14.5 -4.5l-20 20l53 61c-81.333 3.33301 -147.5 22.666 -198.5 57.999s-87.833 79.5 -110.5 132.5
s-34 109.167 -34 168.5c0 78 16.833 147.333 50.5 208s80 107.834 139 141.501s125.833 50.5 200.5 50.5c64 0 116 -11.167 156 -33.5s69 -46 87 -71s27 -40.167 27 -45.5c0 -11.333 -8.33301 -27.5 -25 -48.5s-36 -39.833 -58 -56.5s-41 -25 -57 -25
c-15.333 0 -23 7.33301 -23 22c0 4 1 10 3 18c6 28 9 53.667 9 77c0 45.333 -11.5 80.5 -34.5 105.5s-57.833 37.5 -104.5 37.5c-36 0 -70.5 -7.5 -103.5 -22.5s-60.667 -41 -83 -78s-33.5 -86.833 -33.5 -149.5c0 -71.333 14.667 -141 44 -209
s69.166 -123.5 119.499 -166.5s105.833 -64.5 166.5 -64.5s114 23.333 160 70z" />
    <glyph glyph-name="Odieresis" unicode="&#xd6;" horiz-adv-x="870" 
d="M270 760c-13.333 13.333 -20 30 -20 50s6.66699 36.667 20 50s30 20 50 20s36.667 -6.66699 50 -20s20 -30 20 -50s-6.66699 -36.667 -20 -50s-30 -20 -50 -20s-36.667 6.66699 -50 20zM510 760c-13.333 13.333 -20 30 -20 50s6.66699 36.667 20 50s30 20 50 20
s36.667 -6.66699 50 -20s20 -30 20 -50s-6.66699 -36.667 -20 -50s-30 -20 -50 -20s-36.667 6.66699 -50 20zM613 681.5c56.667 -25.667 103.666 -66.333 140.999 -122s56 -125.5 56 -209.5c0 -80.667 -17.667 -148.834 -53 -204.501s-81.333 -97.167 -138 -124.5
s-116.334 -41 -179.001 -41c-68.667 0 -132.5 13.5 -191.5 40.5s-106.833 68.333 -143.5 124s-55 124.167 -55 205.5c0 84.667 20.333 154.834 61 210.501s90.834 96.167 150.501 121.5s119.167 38 178.5 38c58.667 0 116.334 -12.833 173.001 -38.5zM267.499 600.501
c-38.333 -66.333 -57.5 -153.167 -57.5 -260.5c0 -103.333 19.167 -185.833 57.5 -247.5s95.833 -92.5 172.5 -92.5c76 0 131.667 30.667 167 92s53 147.333 53 258c0 108 -17.667 193.333 -53 256s-91 94 -167 94c-76.667 0 -134.167 -33.167 -172.5 -99.5z" />
    <glyph glyph-name="Udieresis" unicode="&#xdc;" 
d="M150 760c-13.333 13.333 -20 30 -20 50s6.66699 36.667 20 50s30 20 50 20s36.667 -6.66699 50 -20s20 -30 20 -50s-6.66699 -36.667 -20 -50s-30 -20 -50 -20s-36.667 6.66699 -50 20zM390 760c-13.333 13.333 -20 30 -20 50s6.66699 36.667 20 50s30 20 50 20
s36.667 -6.66699 50 -20s20 -30 20 -50s-6.66699 -36.667 -20 -50s-30 -20 -50 -20s-36.667 6.66699 -50 20zM47 468c2 -47.333 2.99707 -113.333 2.99707 -198c0 -73.333 9.16699 -131.166 27.5 -173.499s45.5 -72.333 81.5 -90s83 -26.5 141 -26.5
c70.667 0 124.834 11.5 162.501 34.5s63.334 57.167 77.001 102.5s20.5 106.333 20.5 183v400h-30v-400c0 -51.333 -4 -98.333 -12 -141s-26 -79.834 -54 -111.501s-69.333 -47.5 -124 -47.5c-38.667 0 -68.5 8 -89.5 24s-35.5 36.667 -43.5 62s-13.667 56.666 -17 93.999
c-4.66699 52 -7 110.667 -7 176c0 52.667 1.33301 104.5 4 155.5s5.33398 93 8.00098 126l5 62.5h-170c9.33301 -107.333 15 -184.666 17 -231.999z" />
    <glyph glyph-name="ccedilla" unicode="&#xe7;" 
d="M438.5 12.5c11.667 1.66699 23.9922 5.99805 36.9922 12.998s27.833 18.5 44.5 34.5l10 -10c-14.667 -16.667 -38 -34.167 -70 -52.5s-78.667 -27.5 -140 -27.5l-60 -60c6 5.33301 14.333 10 25 14s22.334 6 35.001 6c16.667 0 35.834 -6.33301 57.501 -19
s32.5 -39.667 32.5 -81c0.666992 -42.667 -11.666 -70 -36.999 -82s-53 -18 -83 -18c-15.333 0 -31.666 4.66699 -48.999 14s-31 21.333 -41 36h10c0.666992 0.666992 3.66699 0.166992 9 -1.5s9.66602 -3.16699 12.999 -4.5c14.667 -5.33301 27.167 -9.66602 37.5 -12.999
s20.5 -5 30.5 -5c33.333 0 50 21.333 50 64c0 28.667 -5.83301 48.834 -17.5 60.501s-26.167 17.5 -43.5 17.5c-8.66699 0 -16.834 -1.16699 -24.501 -3.5s-12.5 -3.83301 -14.5 -4.5l-20 20l54 61c-58 5.33301 -105.167 21.333 -141.5 48s-62.5 59.334 -78.5 98.001
s-24 79.667 -24 123c0 51.333 10.667 99 32 143s53.833 79.5 97.5 106.5s97.167 40.5 160.5 40.5c51.333 0 91.833 -8.83301 121.5 -26.5s50.167 -36.334 61.5 -56.001s17 -32.167 17 -37.5c-3.33301 -4.66699 -11.166 -14.334 -23.499 -29.001
s-26.666 -28.834 -42.999 -42.501s-31.166 -20.5 -44.499 -20.5c-14 0 -20.333 7.33301 -19 22l3 21c3.33301 30 5 49 5 57c0 27.333 -7 49.5 -21 66.5s-39.667 25.5 -77 25.5c-42 0 -77.5 -13.167 -106.5 -39.5s-43.5 -73.166 -43.5 -140.499
c0 -55.333 11.333 -107.666 34 -156.999s51.834 -88.833 87.501 -118.5s71.834 -44.5 108.501 -44.5c20.667 0 36.834 0.833008 48.501 2.5z" />
    <glyph glyph-name="odieresis" unicode="&#xf6;" 
d="M160 580c-13.333 13.333 -20 30 -20 50s6.66699 36.667 20 50s30 20 50 20s36.667 -6.66699 50 -20s20 -30 20 -50s-6.66699 -36.667 -20 -50s-30 -20 -50 -20s-36.667 6.66699 -50 20zM360 580c-13.333 13.333 -20 30 -20 50s6.66699 36.667 20 50s30 20 50 20
s36.667 -6.66699 50 -20s20 -30 20 -50s-6.66699 -36.667 -20 -50s-30 -20 -50 -20s-36.667 6.66699 -50 20zM436 504c41.333 -18.667 75.667 -49.3281 103 -91.9951s41 -96.667 41 -162c0 -62.667 -12.833 -114.834 -38.5 -156.501s-59 -72.334 -100 -92.001
s-84.833 -30.167 -131.5 -31.5c-50.667 1.33301 -97.167 12.166 -139.5 32.499s-76.333 51.333 -102 93s-38.5 93.167 -38.5 154.5c0 64.667 14 118.167 42 160.5s63.5 73.166 106.5 92.499s86.833 28.333 131.5 27c42.667 1.33301 84.667 -7.33398 126 -26.001z
M221.001 469.006c-20 -20.667 -33.499 -49.666 -40.499 -86.999s-10.5 -84.666 -10.5 -141.999c0 -53.333 3.16699 -96.333 9.5 -129s19.666 -58.834 39.999 -78.501s50.5 -30.5 90.5 -32.5c38.667 1.33301 67.5 11.833 86.5 31.5s31 45.5 36 77.5s7.5 75.667 7.5 131
c0 65.333 -2.83301 115.666 -8.5 150.999s-18 62.333 -37 81s-48.167 28 -87.5 28c-37.333 0 -66 -10.333 -86 -31z" />
    <glyph glyph-name="udieresis" unicode="&#xfc;" 
d="M130 580c-13.333 13.333 -20 30 -20 50s6.66699 36.667 20 50s30 20 50 20s36.667 -6.66699 50 -20s20 -30 20 -50s-6.66699 -36.667 -20 -50s-30 -20 -50 -20s-36.667 6.66699 -50 20zM330 580c-13.333 13.333 -20 30 -20 50s6.66699 36.667 20 50s30 20 50 20
s36.667 -6.66699 50 -20s20 -30 20 -50s-6.66699 -36.667 -20 -50s-30 -20 -50 -20s-36.667 6.66699 -50 20zM531 -1c6.66699 0 14.333 2.33594 23 7.00293s16.334 9.5 23.001 14.5s11 8.16699 13 9.5v-20c0 -1.33301 -4.16699 -5.33301 -12.5 -12s-20 -13 -35 -19
s-32.5 -9 -52.5 -9c-37.333 0 -65 9.16699 -83 27.5s-27 39.166 -27 62.499v3c-16.667 -26.667 -39.5 -48.834 -68.5 -66.501s-66.167 -26.5 -111.5 -26.5c-43.333 0 -76 9.5 -98 28.5s-36.333 43.5 -43 73.5s-10 67.333 -10 112l1 76c0 38.667 -1.5 76.5 -4.5 113.5
s-6 67.5 -9 91.5s-5.16699 39 -6.5 45h160c0 4 -1.83301 -6.66699 -5.5 -32s-7 -61 -10 -107s-4.5 -103 -4.5 -171c0 -50 1.66699 -88.5 5 -115.5s10.666 -47.833 21.999 -62.5s29 -22 53 -22c31.333 0 58.333 12.667 81 38s41 54.333 55 87
c2.66699 25.333 4 43.666 4 54.999c0 74 -1.5 135.5 -4.5 184.5s-6.33301 86.667 -10 113s-5.5 37.166 -5.5 32.499h160c0 4.66699 -1.83301 -6.16602 -5.5 -32.499s-7 -64 -10 -113s-4.5 -110.5 -4.5 -184.5v-150c0 -20.667 7 -31 21 -31z" />
    <glyph glyph-name="Gbreve" unicode="&#x11e;" horiz-adv-x="790" 
d="M298 779c-19.333 19.333 -32.166 39.166 -38.499 59.499s-9.5 34.166 -9.5 41.499h30c0 -13.333 6.33301 -30 19 -50s39.667 -30 81 -30c37.333 0 61.666 10 72.999 30s17 36.667 17 50h30c0 -7.33301 -3 -21.166 -9 -41.499s-17.833 -40.166 -35.5 -59.499
s-42.834 -29 -75.501 -29c-35.333 0 -62.666 9.66699 -81.999 29zM723.5 283c1.66699 -11.333 2.49902 -24.333 2.49902 -39c0 -42 -7.83301 -84.167 -23.5 -126.5s-46.167 -79.166 -91.5 -110.499s-109 -47 -191 -47c-92.667 -0.666992 -170 18.666 -232 57.999
s-107.667 89.666 -137 150.999s-44 125 -44 191c0 33.333 4.33301 66.666 13 99.999c63.333 171.333 190 258 380 260c105.333 -1.33301 195.333 -28.333 270 -81l-10 -29c-41.333 28.667 -76 49 -104 61s-63.333 18.333 -106 19c-132.667 -2 -222.667 -82 -270 -240
c-9.33301 -46.667 -14 -90 -14 -130c0 -63.333 10.167 -120.166 30.5 -170.499s49.666 -89.666 87.999 -117.999s83.5 -42.166 135.5 -41.499c30.667 0 57.5 6.66699 80.5 20s40.833 31.166 53.5 53.499s19 45.5 19 69.5c0 24.667 -7 47.5 -21 68.5s-34.667 37.167 -62 48.5
c-12.667 6.66699 -19 16.334 -19 29.001c0 7.33301 3 14.333 9 21c16.667 8 46.334 12 89.001 12c21.333 0 44 -1 68 -3s43 -3.83301 57 -5.5s22.667 -2.83398 26 -3.50098c0.666992 0 1.83398 -5.66699 3.50098 -17zM669.999 639v1c2 -2.66699 2 -3 0 -1z" />
    <glyph glyph-name="gbreve" unicode="&#x11f;" 
d="M219 589c-19.333 19.333 -32.333 39.3301 -39 59.9971s-10 34.334 -10 41.001h30c0 -5.33301 2 -14 6 -26s13.333 -24 28 -36s36.667 -18 66 -18c38.667 0 63.334 9.83301 74.001 29.5s16 36.5 16 50.5h30c0 -7.33301 -2.83301 -21.166 -8.5 -41.499
s-17.334 -40.166 -35.001 -59.499s-43.167 -29 -76.5 -29c-34.667 0 -61.667 9.66699 -81 29zM542 535.497c0.666992 -7.66699 0.995117 -16.8281 0.995117 -27.4951c0 -30 -4.33301 -49.333 -13 -58c-2 -2 -4 -3 -6 -3c-3.33301 0 -8 4.33301 -14 13
c-13.333 18.667 -27.5 32.5 -42.5 41.5s-29.167 13.5 -42.5 13.5c-11.333 0 -21 -3 -29 -9c24.667 -12 44.834 -27.833 60.501 -47.5s23.5 -42.5 23.5 -68.5c0 -29.333 -9.66699 -53.666 -29 -72.999s-43.5 -33.666 -72.5 -42.999s-58.5 -14 -88.5 -14
c-38.667 0 -74.667 6.33301 -108 19c-17.333 -2 -32 -8.16699 -44 -18.5s-18 -27.166 -18 -50.499c0 -20.667 6.16699 -34.5 18.5 -41.5s32.166 -10.5 59.499 -10.5c17.333 0 31 0.333008 41 1l61 1c62 0 114.167 -9.16699 156.5 -27.5s63.5 -55.833 63.5 -112.5
c0 -40.667 -12.167 -77.834 -36.5 -111.501s-55.166 -60.167 -92.499 -79.5s-74.333 -29 -111 -29c-27.333 0 -58.166 4.83301 -92.499 14.5s-64.166 25 -89.499 46s-38 47.5 -38 79.5c0 27.333 8.66699 49.166 26 65.499s38 28.166 62 35.499c-32 10 -56.333 25.667 -73 47
s-25 45.333 -25 72c0 34.667 12.5 62.5 37.5 83.5s50.833 35.167 77.5 42.5c-23.333 11.333 -41.666 25.666 -54.999 42.999s-20 37.666 -20 60.999c0 30 10.667 55.833 32 77.5s47.5 37.667 78.5 48s60.833 15.166 89.5 14.499c30 1.33301 60.667 -4.66699 92 -18l18 18
c24.667 24.667 52 37 82 37c10 0 19.333 -1.33301 28 -4s15.5 -5.33398 20.5 -8.00098l9.5 -5.00098c0.666992 -2 1.33398 -6.83301 2.00098 -14.5zM361.495 306.003c12.333 16.667 18.5 44.666 18.5 83.999c0 40.667 -6.16699 70.834 -18.5 90.501
s-36.166 29.5 -71.499 29.5c-36 0 -61.667 -10.5 -77 -31.5s-23 -50.5 -23 -88.5c0 -37.333 7.5 -64.833 22.5 -82.5s40.833 -26.834 77.5 -27.501c35.333 0.666992 59.166 9.33398 71.499 26.001zM427.495 23.502c-15 9.66699 -36.498 14.5 -64.498 14.5
c-12.667 0 -34.334 -1.33301 -65.001 -4s-53.334 -4 -68.001 -4c-8 0 -18.667 0.666992 -32 2c-25.333 -26.667 -38 -57.334 -38 -92.001c0 -34 11 -62.5 33 -85.5s51 -34.5 87 -34.5c25.333 0 51.333 6.5 78 19.5s48.667 30.833 66 53.5s26 48.334 26 77.001
c0 26 -7.5 43.833 -22.5 53.5z" />
    <glyph glyph-name="Idotaccent" unicode="&#x130;" 
d="M230 760c-13.333 13.333 -20 30 -20 50s6.66699 36.667 20 50s30 20 50 20s36.667 -6.66699 50 -20s20 -30 20 -50s-6.66699 -36.667 -20 -50s-30 -20 -50 -20s-36.667 6.66699 -50 20zM206.5 70.5c3 37 6 82.833 9 137.5s4.5 108.667 4.5 162
c0 54.667 -1.5 106.5 -4.5 155.5s-6 88.333 -9 118s-5.16699 48.5 -6.5 56.5h160c-1.33301 -7.33301 -3.5 -25.833 -6.5 -55.5s-6 -69 -9 -118s-4.5 -101.167 -4.5 -156.5c0 -54 1.5 -108.5 4.5 -163.5s6 -100.667 9 -137s5.16699 -59.5 6.5 -69.5h-160
c1.33301 10 3.5 33.5 6.5 70.5z" />
    <glyph glyph-name="dotlessi" unicode="&#x131;" 
d="M370 510c-1.33301 -4 -3.5 -14.6738 -6.5 -32.0068s-6 -44.666 -9 -81.999s-4.5 -82.666 -4.5 -135.999s1.5 -99.166 4.5 -137.499s6 -67.166 9 -86.499s5.16699 -31.333 6.5 -36h-160c1.33301 5.33301 3.5 18.5 6.5 39.5s6 51.5 9 91.5s4.5 86.333 4.5 139
s-1.5 96.834 -4.5 132.501s-6.33301 63.334 -10 83.001s-5.5 27.834 -5.5 24.501h160z" />
    <glyph glyph-name="Scedilla" unicode="&#x15e;" 
d="M374 405c44 -26.667 79.0029 -49.833 105.003 -69.5s47.833 -42.667 65.5 -69s26.5 -56.166 26.5 -89.499c0 -40 -11.333 -76.167 -34 -108.5s-54 -57.333 -94 -75s-84.667 -25.834 -134 -24.501l-59 -59c6 5.33301 14.333 10 25 14s22.334 6 35.001 6
c16 0 35 -6.33301 57 -19s33 -39.667 33 -81c0.666992 -42.667 -11.666 -70 -36.999 -82s-53 -18 -83 -18c-15.333 0 -31.666 4.66699 -48.999 14s-31 21.333 -41 36h10c0.666992 0.666992 3.66699 0.166992 9 -1.5s9.66602 -3.16699 12.999 -4.5
c14.667 -5.33301 27.167 -9.66602 37.5 -12.999s20.5 -5 30.5 -5c33.333 0 50 21.333 50 64c0 28.667 -5.83301 48.834 -17.5 60.501s-26.167 17.5 -43.5 17.5c-8.66699 0 -16.834 -1.16699 -24.501 -3.5s-12.5 -3.83301 -14.5 -4.5l-20 20l54 62
c-60 7.33301 -111.667 25 -155 53s-72.166 49 -86.499 63l-22.5 22c1.33301 2 13.666 25.333 36.999 70s48 67 74 67c12 0 21.667 -9 29 -27c13.333 -36 26.166 -67.667 38.499 -95s32.5 -56 60.5 -86s61.667 -46.333 101 -49c32 -2.66699 56.667 6 74 26s26 48 26 84
c0 30.667 -5.83301 57 -17.5 79s-29.334 42 -53.001 60s-56.834 38.333 -99.501 61c-10.667 5.33301 -18.334 9.66602 -23.001 12.999c-40.667 21.333 -72.667 39.833 -96 55.5s-42.833 35.334 -58.5 59.001s-23.5 52.167 -23.5 85.5c0 38.667 9 74.5 27 107.5
s45.167 59.5 81.5 79.5s80.5 30 132.5 30c45.333 0 86.5 -7.16699 123.5 -21.5s67.167 -30 90.5 -47s35.333 -27.5 36 -31.5c-2 -2 -10.167 -13.5 -24.5 -34.5s-31 -41.333 -50 -61s-35.833 -29.5 -50.5 -29.5c-6 0 -11 1.66699 -15 5c-6.66699 4.66699 -12 12 -16 22
s-8.66699 25 -14 45c-7.33301 27.333 -15 50 -23 68s-20.167 33.5 -36.5 46.5s-38.5 19.5 -66.5 19.5c-22.667 0 -42.5 -7 -59.5 -21s-25.5 -38.667 -25.5 -74c0 -27.333 7.16699 -52.333 21.5 -75s32.5 -42.834 54.5 -60.501s50.333 -37.834 85 -60.501z" />
    <glyph glyph-name="scedilla" unicode="&#x15f;" 
d="M220 367.5c13.333 -16.333 29.833 -29.1719 49.5 -38.5049s46.167 -19.666 79.5 -30.999c34.667 -11.333 62.834 -22.166 84.501 -32.499s39.834 -24.833 54.501 -43.5s22 -42.667 22 -72c0 -32 -8.5 -61.833 -25.5 -89.5s-40 -49.667 -69 -66s-60.833 -24.5 -95.5 -24.5
h-10l-60 -60c6 5.33301 14.333 10 25 14s22.334 6 35.001 6c16 0 35 -6.33301 57 -19s33 -39.667 33 -81c0.666992 -42.667 -11.666 -70 -36.999 -82s-53 -18 -83 -18c-15.333 0 -31.666 4.66699 -48.999 14s-31 21.333 -41 36h10
c0.666992 0.666992 3.66699 0.166992 9 -1.5s9.66602 -3.16699 12.999 -4.5c14.667 -5.33301 27.167 -9.66602 37.5 -12.999s20.5 -5 30.5 -5c33.333 0 50 21.333 50 64c0 28.667 -5.83301 48.834 -17.5 60.501s-26.167 17.5 -43.5 17.5
c-8.66699 0 -16.834 -1.16699 -24.501 -3.5s-12.5 -3.83301 -14.5 -4.5l-20 20l56 64c-28.667 4 -58.167 11 -88.5 21s-56 19.333 -77 28s-34.5 14.334 -40.5 17.001c0 2 4.66699 15.5 14 40.5s19.833 47.167 31.5 66.5s23.167 27 34.5 23c6 -2 12.167 -7 18.5 -15
s15.166 -21 26.499 -39c25.333 -38.667 49.666 -69.334 72.999 -92.001s50.666 -34 81.999 -34c23.333 0 42.5 8.33301 57.5 25s22.5 35 22.5 55c0 24 -11.667 44 -35 60s-59.333 34 -108 54c-36 15.333 -65.5 29 -88.5 41s-42.833 26.667 -59.5 44
s-26.334 37.666 -29.001 60.999l-1 14c0 25.333 6 52.166 18 80.499s33 53 63 74s70 31.5 120 31.5c36.667 0 69.834 -5.16699 99.501 -15.5s53.834 -21.666 72.501 -33.999s28 -19.166 28 -20.499c-2.66699 -6.66699 -8.5 -20.5 -17.5 -41.5s-19.667 -41.167 -32 -60.5
s-23.833 -29 -34.5 -29c-7.33301 0 -13.166 4.5 -17.499 13.5s-9.5 23.833 -15.5 44.5c-6.66699 24 -13.834 44.5 -21.501 61.5s-18.834 31.5 -33.501 43.5s-34 18 -58 18c-25.333 0 -45 -7 -59 -21s-21 -33.667 -21 -59s6.66699 -46.166 20 -62.499z" />
  </font>
</defs>
</svg>
