<svg width="1440" height="218" viewBox="0 0 1440 218" fill="none" xmlns="http://www.w3.org/2000/svg">
<path d="M355.367 165.143C351.274 155.648 347.115 147.036 342.89 139.306L307.263 144.472L301.213 172.995L296.938 173.615L314.489 93.9523L319.527 68.4859L322.377 68.0726C332.776 87.6146 340.021 101.115 344.109 108.573C348.198 116.032 352.217 123.015 356.168 129.524C360.105 135.937 366.963 146.777 376.743 162.044L355.367 165.143ZM341.337 136.621C338.189 130.967 333.769 123.896 328.076 115.409C324.14 109.674 320.64 104.264 317.575 99.1796L308.275 141.415L341.337 136.621Z" fill="black"/>
<path d="M408.796 82.4515C414.052 81.9558 418.856 82.2743 423.205 83.407C427.641 84.435 431.283 85.7308 434.13 87.2944C436.969 88.7624 438.397 89.592 438.415 89.7832C438.123 90.775 437.452 92.8632 436.402 96.0478C435.439 99.1278 434.18 102.139 432.626 105.082C431.167 108.016 429.673 109.555 428.143 109.699C427.092 109.799 426.173 109.258 425.387 108.079C424.687 106.795 423.768 104.712 422.628 101.83C421.348 98.4799 420.022 95.6639 418.65 93.3827C417.364 90.9969 415.589 89.0429 413.324 87.5208C411.059 85.9987 408.206 85.3999 404.765 85.7244C401.133 86.0668 398.408 87.3363 396.591 89.5326C394.773 91.729 394.035 94.6431 394.378 98.275C394.72 101.907 395.96 104.827 398.097 107.037C400.224 109.15 402.737 110.745 405.635 111.822C408.629 112.89 412.591 114.011 417.523 115.185C422.647 116.341 426.809 117.539 430.012 118.78C433.301 119.916 436.123 121.723 438.478 124.201C440.833 126.679 442.209 130.021 442.606 134.226C443.038 138.814 442.202 143.232 440.095 147.48C438.075 151.624 435.071 155.041 431.082 157.732C427.197 160.509 422.77 162.132 417.8 162.6C413.499 163.006 408.6 162.696 403.104 161.672C397.712 160.734 392.685 159.569 388.021 158.176C383.358 156.784 381.022 156.04 381.013 155.944C380.986 155.658 381.474 153.683 382.479 150.021C383.475 146.263 384.654 142.921 386.018 139.996C387.477 137.062 389.046 135.805 390.724 136.226C391.612 136.431 392.539 137.067 393.508 138.133C394.572 139.19 396.038 140.932 397.906 143.359C402.06 148.56 405.964 152.627 409.615 155.562C413.267 158.496 417.339 159.751 421.831 159.327C425.176 159.012 427.787 157.56 429.664 154.973C431.637 152.376 432.489 149.644 432.218 146.777C431.894 143.336 429.951 140.626 426.389 138.648C422.828 136.67 417.423 134.576 410.176 132.366C404.808 130.655 400.37 129.097 396.862 127.692C393.451 126.278 390.433 124.441 387.809 122.181C385.185 119.922 383.525 117.137 382.827 113.828L382.494 111.835C382.152 108.203 382.651 104.299 383.993 100.122C385.326 95.8501 388.003 92.0299 392.025 88.6614C396.037 85.1974 401.628 83.1275 408.796 82.4515Z" fill="black"/>
<path d="M481.936 76.9522C487.208 76.6597 491.995 77.1632 496.298 78.4629C500.691 79.6613 504.28 81.0967 507.065 82.769C509.844 84.3454 511.239 85.2295 511.25 85.4212C510.92 86.401 510.169 88.4618 508.997 91.6035C507.916 94.6441 506.542 97.6048 504.875 100.486C503.304 103.361 501.751 104.841 500.218 104.926C499.163 104.985 498.266 104.41 497.526 103.201C496.876 101.891 496.038 99.774 495.01 96.8504C493.86 93.4529 492.644 90.5879 491.36 88.2554C490.168 85.8218 488.469 83.8007 486.265 82.1924C484.06 80.5841 481.233 79.8756 477.782 80.0671C474.14 80.2692 471.368 81.4325 469.467 83.5571C467.565 85.6817 466.716 88.5652 466.918 92.2076C467.12 95.85 468.246 98.8162 470.296 101.106C472.341 103.3 474.79 104.991 477.644 106.179C480.594 107.361 484.511 108.634 489.394 109.998C494.469 111.351 498.582 112.709 501.735 114.072C504.978 115.335 507.728 117.249 509.986 119.816C512.243 122.383 513.489 125.775 513.723 129.993C513.978 134.594 512.972 138.976 510.703 143.14C508.524 147.203 505.39 150.502 501.301 153.036C497.312 155.661 492.825 157.112 487.841 157.389C483.528 157.628 478.645 157.13 473.192 155.894C467.84 154.749 462.861 153.39 458.255 151.819C453.649 150.248 451.343 149.414 451.338 149.318C451.322 149.031 451.886 147.077 453.032 143.456C454.171 139.739 455.479 136.445 456.954 133.575C458.525 130.7 460.142 129.504 461.803 129.989C462.682 130.229 463.584 130.9 464.511 132.002C465.533 133.099 466.931 134.896 468.704 137.394C472.655 142.751 476.398 146.966 479.934 150.039C483.469 153.112 487.49 154.524 491.995 154.274C495.35 154.088 498.015 152.738 499.991 150.224C502.062 147.706 503.018 145.009 502.859 142.133C502.667 138.682 500.83 135.9 497.348 133.786C493.866 131.671 488.546 129.37 481.389 126.883C476.091 124.966 471.716 123.237 468.266 121.698C464.911 120.154 461.966 118.202 459.432 115.843C456.897 113.483 455.345 110.637 454.776 107.303L454.52 105.299C454.318 101.656 454.968 97.7741 456.47 93.6526C457.967 89.4352 460.789 85.7212 464.938 82.5104C469.081 79.2038 474.747 77.3511 481.936 76.9522Z" fill="black"/>
<path d="M564.358 74.174C570.5 73.9175 576.56 75.1019 582.54 77.7272C588.52 80.3526 593.51 84.7164 597.511 90.8187C601.511 96.921 603.561 104.676 603.659 114.083C603.754 123.107 601.961 130.662 598.281 136.749C594.696 142.739 589.943 147.205 584.021 150.148C578.195 152.993 571.923 154.547 565.205 154.81C557.908 154.694 551.172 153.229 544.998 150.414C538.919 147.501 533.976 143.089 530.17 137.177C526.459 131.167 524.557 123.747 524.464 114.915C524.366 105.604 526.301 97.9031 530.269 91.8131C534.237 85.6271 539.277 81.1099 545.392 78.2615C551.602 75.4121 557.924 74.0496 564.358 74.174ZM563.971 78.4983C558.596 78.5548 554.484 80.0861 551.635 83.0922C548.786 86.0983 546.862 90.2947 545.863 95.6815C544.959 101.067 544.551 107.888 544.638 116.144C544.718 123.823 545.216 130.01 546.129 134.705C547.138 139.399 549.098 143.17 552.008 146.02C555.013 148.772 559.397 150.262 565.16 150.49C570.725 150.239 574.838 148.708 577.496 145.896C580.25 142.987 581.938 139.225 582.562 134.61C583.281 129.994 583.599 123.703 583.516 115.735C583.417 106.328 582.909 99.0845 581.991 94.0059C581.17 88.9262 579.353 85.0571 576.541 82.3985C573.825 79.7389 569.635 78.4388 563.971 78.4983Z" fill="black"/>
<path d="M647.672 81.1139C648.156 81.0368 648.925 81.0188 649.98 81.0601C654.201 81.2253 657.95 82.3807 661.229 84.5266C664.607 86.5802 667.36 88.6574 669.488 90.7582C671.715 92.7668 672.926 93.7269 673.122 93.6385C672.823 93.915 671.663 95.3108 669.644 97.8257C667.72 100.344 665.419 102.656 662.743 104.761C660.067 106.866 657.583 107.73 655.292 107.352L655.004 107.341C654.333 107.314 653.719 107.05 653.162 106.548C652.701 106.05 652.489 105.321 652.527 104.362C654.135 100.101 654.993 96.58 655.102 93.7981C655.23 90.5366 654.556 88.1084 653.081 86.5135C651.606 84.9186 649.766 84.078 647.56 83.9917C643.722 83.8416 640.788 85.1679 638.757 87.9706C635.763 90.8317 633.639 94.7837 632.385 99.8265C632.227 103.855 632.151 107.023 632.157 109.329L631.881 109.03C631.969 109.225 632.061 109.325 632.157 109.329L632.101 110.768L631.842 117.387C631.553 124.773 631.503 130.968 631.691 135.971C631.976 140.978 632.303 144.882 632.674 147.682C633.141 150.487 633.383 151.649 633.402 151.17L610.38 150.269C610.506 149.505 610.819 147.644 611.319 144.685C611.823 141.631 612.379 137.233 612.988 131.492C613.693 125.756 614.289 119.102 614.778 111.531C614.882 103.945 614.794 97.6011 614.514 92.4982C614.333 87.3032 614.095 83.547 613.802 81.2298C613.512 78.8166 613.328 77.3683 613.251 76.8849L634.835 77.7294C634.72 78.2053 634.479 79.4449 634.113 81.448C633.842 83.455 633.549 86.0375 633.233 89.1956C636.229 83.8366 641.042 81.1427 647.672 81.1139Z" fill="black"/>
<path d="M714.535 69.5151C714.303 69.9769 713.877 71.0001 713.259 72.5849C712.745 74.0822 712.158 75.8624 711.498 77.9254C710.934 79.9966 710.578 81.8931 710.43 83.6147L731.95 85.4691L731.579 89.7732L710.059 87.9187C709.686 90.0065 708.991 94.7162 707.974 102.048C706.957 109.38 706.102 117.063 705.41 125.097C704.75 132.749 704.526 138.703 704.738 142.961C704.957 147.123 705.789 150.327 707.234 152.571C708.687 154.72 711.039 155.934 714.291 156.214C717.447 156.486 720.002 155.357 721.954 152.828C724.01 150.211 725.344 148.157 725.954 146.668C726.564 145.179 726.873 144.387 726.881 144.291L729.75 144.538C729.647 144.626 729.188 146.032 728.375 148.756C727.658 151.488 725.354 154.181 721.464 156.832C717.678 159.397 712.772 160.419 706.747 159.9C699.095 159.241 693.797 156.424 690.854 151.448C687.91 146.473 686.776 140.064 687.452 132.221C687.567 130.882 688.228 125.447 689.435 115.916C691.517 98.4618 692.653 88.635 692.843 86.4352L679.93 85.3225L680.301 81.0185L693.213 82.1312C693.362 80.4095 693.287 78.476 692.991 76.3306C692.789 74.1934 692.516 72.3391 692.169 70.7675C691.927 69.1086 691.73 68.0318 691.58 67.5371L714.535 69.5151Z" fill="black"/>
<path d="M815.84 106.045C815.223 106.78 808.464 110.73 795.565 117.895C782.768 124.97 772.401 130.689 764.466 135.055C766.738 142.585 770.34 148.699 775.27 153.396C780.2 158.094 785.493 160.601 791.148 160.916C794.694 161.114 797.383 161.167 799.215 161.077C801.148 160.897 803.1 160.38 805.071 159.529C807.046 158.581 809.249 157.021 811.677 154.849L813.035 156.367C811.213 157.996 809.403 159.434 807.602 160.679C805.898 161.931 802.652 163.24 797.865 164.607C793.173 165.98 787.472 166.48 780.763 166.106C771.369 165.582 763.747 163.475 757.895 159.783C752.145 156.001 748.037 151.205 745.573 145.395C743.205 139.59 742.21 133.285 742.589 126.479C743.001 119.099 744.874 112.233 748.209 105.88C751.645 99.4376 756.593 94.3291 763.053 90.5549C769.609 86.786 777.488 85.158 786.689 85.671C794.357 86.0985 800.465 87.7851 805.012 90.7308C809.565 93.5806 812.663 96.6379 814.308 99.9025C816.049 103.172 816.559 105.22 815.84 106.045ZM795.76 104.06C795.952 100.61 795.037 97.1936 793.014 93.8117C791.087 90.4352 787.488 88.6 782.216 88.3061C777.136 88.0229 772.606 89.9337 768.628 94.0386C764.75 98.053 762.542 104.901 762.002 114.582C761.676 120.429 762.178 126.081 763.508 131.54C771.198 128.123 778.396 124.053 785.101 119.331C791.908 114.518 795.461 109.428 795.76 104.06Z" fill="black"/>
<path d="M914.392 157.489C914.443 158.063 914.614 157.276 914.903 155.13C915.287 152.975 915.431 149.203 915.332 143.814C915.329 138.416 914.899 130.937 914.04 121.376C913.078 110.667 911.992 102.861 910.78 97.9572C909.656 92.9497 908.26 89.7498 906.593 88.3573C904.917 86.8692 902.501 86.2669 899.346 86.5503C896.382 86.8165 893.747 88.5953 891.44 91.8869C889.22 95.0742 887.351 98.9529 885.834 103.523C886.63 107.018 887.29 111.681 887.813 117.514L888.868 130.865C889.529 138.228 890.244 144.043 891.013 148.311C891.869 152.475 892.622 155.492 893.272 157.361C894.008 159.127 894.355 159.77 894.312 159.292L871.365 161.353C871.416 161.927 871.587 161.14 871.876 158.994C872.261 156.839 872.404 153.067 872.305 147.678C872.303 142.281 871.872 134.801 871.013 125.24C870.051 114.531 868.965 106.725 867.753 101.821C866.629 96.8139 865.233 93.6139 863.566 92.2214C861.89 90.7334 859.475 90.131 856.319 90.4144C852.017 90.8008 848.166 94.6165 844.769 101.861C844.997 107.624 845.489 114.712 846.245 123.127C847.043 132.019 847.904 139.46 848.828 145.449C849.838 151.334 850.729 155.881 851.499 159.089C852.364 162.288 852.771 163.601 852.72 163.027L829.772 165.088C829.895 164.306 830.014 162.416 830.13 159.418C830.334 156.315 830.369 151.878 830.236 146.107C830.199 140.327 829.841 133.66 829.163 126.107C828.485 118.553 827.657 112.025 826.681 106.522C825.801 101.011 824.997 96.89 824.27 94.1601C823.638 91.4216 823.197 89.7263 822.946 89.0742L844.459 87.1421C844.406 87.6288 844.366 88.7891 844.338 90.6229C844.405 92.4482 844.529 94.895 844.708 97.9632C849.036 90.3456 855.646 86.1375 864.538 85.3389C869.797 84.8666 873.968 85.6968 877.051 87.8296C880.134 89.9624 882.499 93.2199 884.146 97.6022C885.984 93.3889 888.748 89.8153 892.436 86.8817C896.211 83.8438 901.254 82.0415 907.565 81.4747C913.493 80.9424 918.016 81.9338 921.133 84.449C924.242 86.8686 926.437 90.3824 927.719 94.9902C928.991 99.5025 929.967 105.535 930.645 113.089L931.637 124.133C932.393 132.547 933.172 139.079 933.975 143.73C934.874 148.372 935.649 151.628 936.298 153.497C937.044 155.358 937.391 156.002 937.339 155.428L914.392 157.489Z" fill="black"/>
<path d="M1011.62 86.2919C1011.13 87.1176 1005.11 92.1176 993.55 101.292C982.078 110.36 972.784 117.695 965.667 123.297C969.138 130.355 973.689 135.799 979.32 139.629C984.95 143.459 990.581 145.069 996.212 144.457C999.743 144.073 1002.41 143.687 1004.2 143.299C1006.08 142.805 1007.92 141.978 1009.72 140.816C1011.52 139.559 1013.43 137.66 1015.48 135.121L1017.06 136.397C1015.53 138.302 1013.98 140.015 1012.41 141.538C1010.93 143.05 1007.94 144.872 1003.44 147.003C999.037 149.123 993.494 150.546 986.813 151.272C977.46 152.288 969.596 151.453 963.221 148.766C956.93 145.973 952.095 141.912 948.715 136.582C945.431 131.241 943.421 125.183 942.685 118.407C941.886 111.058 942.614 103.978 944.867 97.1666C947.205 90.2495 951.253 84.402 957.011 79.6241C962.864 74.8358 970.371 71.9438 979.534 70.9482C987.169 70.1186 993.47 70.7858 998.436 72.9499C1003.39 75.0186 1006.95 77.5291 1009.1 80.4815C1011.36 83.4236 1012.19 85.3604 1011.62 86.2919ZM991.484 87.6108C991.11 84.175 989.65 80.954 987.102 77.9476C984.65 74.9308 980.799 73.7077 975.55 74.2781C970.492 74.8277 966.335 77.4521 963.079 82.1513C959.909 86.7447 958.848 93.861 959.895 103.5C960.528 109.322 961.946 114.817 964.149 119.985C971.178 115.359 977.615 110.169 983.46 104.416C989.39 98.5571 992.064 92.9553 991.484 87.6108Z" fill="black"/>
<path d="M1070.5 155.967C1070.46 156.446 1070.76 155.746 1071.38 153.869C1072.11 151.903 1072.85 148.59 1073.59 143.929C1074.43 139.276 1075.17 132.833 1075.8 124.602C1076.7 112.924 1076.89 104.177 1076.38 98.3606C1075.87 92.4482 1074.87 88.5679 1073.38 86.7197C1071.99 84.7831 1070 83.7153 1067.41 83.5163C1061.77 83.0814 1056.39 85.9892 1051.29 92.2398L1050.79 96.8231C1050.1 103.317 1049.56 109.005 1049.19 113.886C1048.5 122.788 1048.12 130.269 1048.04 136.328C1048.06 142.3 1048.18 146.931 1048.41 150.222C1048.73 153.521 1048.92 154.883 1048.96 154.309L1025.99 152.539C1026.24 151.788 1026.67 149.944 1027.28 147.006C1028 143.98 1028.77 139.61 1029.59 133.897C1030.51 128.191 1031.27 121.557 1031.85 113.995C1032.43 106.434 1032.7 99.8586 1032.64 94.2702C1032.69 88.6892 1032.58 84.4923 1032.31 81.6797C1032.15 78.8744 1031.99 77.1294 1031.85 76.4446L1053.39 78.1033L1051.99 86.8061C1058.09 81.4023 1065.73 79.0542 1074.92 79.7619C1081.14 80.2411 1085.67 82.1301 1088.5 85.4289C1091.42 88.7351 1093.14 93.2965 1093.65 99.1132C1094.17 104.93 1094.03 112.911 1093.25 123.057C1092.55 132.246 1092.18 139.44 1092.17 144.638C1092.26 149.748 1092.46 153.374 1092.77 155.516C1093.19 157.571 1093.43 158.311 1093.47 157.736L1070.5 155.967Z" fill="black"/>
<path d="M1148.43 80.8572C1148.2 81.322 1147.79 82.3507 1147.19 83.9435C1146.7 85.4475 1146.13 87.2352 1145.5 89.3067C1144.97 91.3852 1144.63 93.2861 1144.51 95.0095L1166.05 96.5812L1165.74 100.89L1144.19 99.3181C1143.85 101.41 1143.22 106.129 1142.3 113.473C1141.37 120.818 1140.62 128.511 1140.03 136.554C1139.48 144.214 1139.33 150.171 1139.6 154.426C1139.87 158.585 1140.74 161.777 1142.22 164.002C1143.7 166.131 1146.07 167.315 1149.32 167.552C1152.48 167.783 1155.02 166.62 1156.94 164.065C1158.96 161.421 1160.27 159.351 1160.86 157.854C1161.45 156.357 1161.75 155.56 1161.76 155.465L1164.63 155.674C1164.53 155.763 1164.09 157.175 1163.31 159.909C1162.63 162.651 1160.36 165.373 1156.5 168.076C1152.75 170.69 1147.86 171.777 1141.83 171.337C1134.17 170.778 1128.83 168.031 1125.83 163.095C1122.82 158.158 1121.6 151.765 1122.17 143.914C1122.27 142.573 1122.86 137.13 1123.94 127.583C1125.79 110.104 1126.8 100.263 1126.96 98.0607L1114.03 97.1177L1114.35 92.8091L1127.27 93.7522C1127.4 92.0287 1127.3 90.0964 1126.98 87.955C1126.75 85.8207 1126.45 83.9701 1126.08 82.4032C1125.82 80.7476 1125.61 79.6735 1125.45 79.1808L1148.43 80.8572Z" fill="black"/>
<path d="M-39.3073 144.793C-46.8073 151.793 3.49268 158.693 264.693 130.293M1203.19 122.293C1207.19 119.793 1374.19 131.793 1510.69 216.793" stroke="black"/>
</svg>
