<svg width="17" height="18" viewBox="0 0 17 18" fill="none" xmlns="http://www.w3.org/2000/svg">
<path d="M12.1894 1H4.81061C2.4297 1 0.5 2.98278 0.5 5.4284V13.0088C0.5 15.4548 2.43004 17.4372 4.81095 17.4372H12.189C14.57 17.4372 16.5 15.4544 16.5 13.0085V5.4284C16.5 2.98243 14.5703 1 12.1894 1Z" stroke="black"/>
<path d="M8.50006 13.1862C10.6331 13.1862 12.3622 11.4098 12.3622 9.2185C12.3622 7.02721 10.6331 5.25082 8.50006 5.25082C6.36707 5.25082 4.63794 7.02721 4.63794 9.2185C4.63794 11.4098 6.36707 13.1862 8.50006 13.1862Z" stroke="black"/>
<path d="M13.2366 5.00128C13.5854 5.00128 13.8682 4.7108 13.8682 4.35248C13.8682 3.99415 13.5854 3.70367 13.2366 3.70367C12.8878 3.70367 12.6051 3.99415 12.6051 4.35248C12.6051 4.7108 12.8878 5.00128 13.2366 5.00128Z" stroke="black"/>
</svg>
