<svg width="69" height="30" viewBox="0 0 69 30" fill="none" xmlns="http://www.w3.org/2000/svg">
<path d="M13.1172 7.99616V11.154C13.1172 11.5751 12.9958 11.7856 12.7529 11.7856C12.4776 11.7856 12.1942 11.5751 11.9027 11.154C11.7731 11.0245 11.6436 10.8625 11.514 10.6682C11.0282 10.0366 10.5505 9.51841 10.0808 9.11355C9.61122 8.69251 9.08491 8.48198 8.50192 8.48198H4.61533C4.38861 11.9637 4.26715 14.5548 4.25096 16.2552H6.31571C6.9149 16.2552 7.41691 16.0932 7.82177 15.7693C8.22662 15.4455 8.61528 15.0406 8.98774 14.5548C9.26304 14.1823 9.49786 13.9961 9.69219 13.9961C9.87032 13.9961 9.95939 14.1823 9.95939 14.5548V18.4414C9.95939 18.8138 9.87032 19.0001 9.69219 19.0001C9.51405 19.0001 9.27924 18.8138 8.98774 18.4414C8.61528 17.9556 8.22662 17.5507 7.82177 17.2268C7.41691 16.9029 6.9149 16.741 6.31571 16.741H4.25096C4.25096 17.6641 4.28335 18.8138 4.34812 20.1903C4.4129 21.5668 4.50197 23.1701 4.61533 25H0.971648C1.08501 23.1215 1.17407 21.4778 1.23885 20.0689C1.30363 18.66 1.33602 17.4697 1.33602 16.4981C1.33602 15.5264 1.30363 14.3362 1.23885 12.9273C1.17407 11.5184 1.08501 9.87468 0.971648 7.99616H13.1172ZM21.6211 12.1257C22.6575 12.0933 23.6777 12.3038 24.6818 12.7572C25.6858 13.2107 26.5198 13.9556 27.1837 14.992C27.8477 16.0285 28.1797 17.3402 28.1797 18.9272C28.1797 20.4494 27.8639 21.7207 27.2323 22.7409C26.617 23.745 25.8072 24.4899 24.8032 24.9757C23.8154 25.4453 22.7547 25.6963 21.6211 25.7287C20.3903 25.6963 19.2567 25.4372 18.2203 24.9514C17.2001 24.4494 16.3742 23.6964 15.7426 22.6923C15.1272 21.6721 14.8195 20.4171 14.8195 18.9272C14.8195 17.3564 15.1596 16.0608 15.8398 15.0406C16.5199 14.0042 17.3782 13.2512 18.4146 12.7815C19.4672 12.3119 20.5361 12.0933 21.6211 12.1257ZM21.5482 12.8544C20.6413 12.8544 19.945 13.1054 19.4591 13.6074C18.9733 14.1094 18.6413 14.8139 18.4632 15.7208C18.3013 16.6276 18.2203 17.7774 18.2203 19.1701C18.2203 20.4656 18.2932 21.5102 18.4389 22.3037C18.6009 23.0972 18.9247 23.7369 19.4106 24.2227C19.9126 24.6923 20.6494 24.9514 21.6211 25C22.5603 24.9676 23.2567 24.7166 23.7101 24.247C24.1797 23.7611 24.4712 23.1296 24.5846 22.3523C24.7141 21.5749 24.7789 20.5142 24.7789 19.1701C24.7789 17.5831 24.706 16.3604 24.5603 15.5021C24.4307 14.6439 24.1312 13.988 23.6615 13.5346C23.2081 13.0811 22.5036 12.8544 21.5482 12.8544ZM35.4756 13.0973C35.5566 13.0811 35.6861 13.073 35.8642 13.073C36.5768 13.073 37.2165 13.2431 37.7833 13.5831C38.3662 13.907 38.844 14.239 39.2164 14.5791C39.6051 14.903 39.8156 15.0568 39.848 15.0406C39.7994 15.0892 39.6132 15.3321 39.2893 15.7693C38.9816 16.2066 38.6092 16.6114 38.1719 16.9839C37.7347 17.3564 37.3217 17.5183 36.9331 17.4697H36.8845C36.7711 17.4697 36.6659 17.4292 36.5687 17.3483C36.4877 17.2673 36.4472 17.1458 36.4472 16.9839C36.6901 16.2552 36.8116 15.656 36.8116 15.1864C36.8116 14.6358 36.6821 14.2309 36.4229 13.9718C36.1638 13.7127 35.8481 13.5831 35.4756 13.5831C34.8278 13.5831 34.342 13.826 34.0181 14.3119C33.5323 14.8139 33.2003 15.494 33.0222 16.3523C33.0222 17.0325 33.0303 17.5669 33.0465 17.9556L32.9979 17.907C33.0141 17.9394 33.0303 17.9556 33.0465 17.9556V18.1985V19.3159C33.0465 20.5628 33.0789 21.6073 33.1436 22.4494C33.2246 23.2915 33.3056 23.9474 33.3865 24.417C33.4837 24.8866 33.5323 25.081 33.5323 25H29.6457C29.6619 24.8704 29.7024 24.5547 29.7672 24.0526C29.8319 23.5344 29.8967 22.7895 29.9615 21.8179C30.0425 20.8462 30.0991 19.7207 30.1315 18.4414C30.0991 17.162 30.0425 16.0932 29.9615 15.2349C29.8967 14.3605 29.8319 13.7289 29.7672 13.3402C29.7024 12.9354 29.6619 12.6925 29.6457 12.6115H33.2894C33.2732 12.6925 33.2408 12.903 33.1922 13.2431C33.1598 13.5831 33.1274 14.0204 33.095 14.5548C33.5647 13.6317 34.3582 13.1459 35.4756 13.0973ZM53.4625 15.2835C53.3653 15.4131 52.2641 16.1418 50.1589 17.4697C48.0698 18.7815 46.3775 19.8422 45.082 20.6519C45.5354 21.8988 46.1994 22.8948 47.0739 23.6397C47.9484 24.3846 48.8633 24.7571 49.8188 24.7571C50.418 24.7571 50.8714 24.7409 51.1791 24.7085C51.503 24.6599 51.8269 24.5547 52.1507 24.3927C52.4746 24.2146 52.8309 23.9312 53.2196 23.5425L53.4625 23.7854C53.171 24.0769 52.8795 24.336 52.588 24.5628C52.3127 24.7895 51.7783 25.0405 50.9848 25.3158C50.2074 25.5911 49.252 25.7287 48.1184 25.7287C46.5314 25.7287 45.2277 25.4453 44.2075 24.8785C43.2035 24.2956 42.4666 23.5263 41.997 22.5709C41.5436 21.6154 41.3169 20.5628 41.3169 19.413C41.3169 18.1661 41.5679 16.992 42.0699 15.8908C42.5881 14.7734 43.3735 13.8665 44.4261 13.1702C45.4949 12.4738 46.8067 12.1257 48.3613 12.1257C49.6568 12.1257 50.7014 12.3524 51.4949 12.8058C52.2884 13.2431 52.839 13.7289 53.1467 14.2633C53.4706 14.7977 53.5758 15.1378 53.4625 15.2835ZM50.0617 15.1378C50.0617 14.5548 49.8755 13.988 49.503 13.4374C49.1467 12.8868 48.5233 12.6115 47.6326 12.6115C46.7743 12.6115 46.0294 12.9759 45.3978 13.7046C44.7824 14.4171 44.4747 15.5912 44.4747 17.2268C44.4747 18.2147 44.6124 19.162 44.8877 20.0689C46.1508 19.4211 47.3249 18.6681 48.4099 17.8098C49.5111 16.9353 50.0617 16.0446 50.0617 15.1378ZM61.4738 12.1257C62.5102 12.0933 63.5305 12.3038 64.5345 12.7572C65.5385 13.2107 66.3725 13.9556 67.0365 14.992C67.7005 16.0285 68.0324 17.3402 68.0324 18.9272C68.0324 20.4494 67.7167 21.7207 67.0851 22.7409C66.4697 23.745 65.66 24.4899 64.656 24.9757C63.6681 25.4453 62.6074 25.6963 61.4738 25.7287C60.2431 25.6963 59.1095 25.4372 58.073 24.9514C57.0528 24.4494 56.2269 23.6964 55.5953 22.6923C54.98 21.6721 54.6723 20.4171 54.6723 18.9272C54.6723 17.3564 55.0124 16.0608 55.6925 15.0406C56.3727 14.0042 57.231 13.2512 58.2674 12.7815C59.32 12.3119 60.3888 12.0933 61.4738 12.1257ZM61.4009 12.8544C60.4941 12.8544 59.7977 13.1054 59.3119 13.6074C58.8261 14.1094 58.4941 14.8139 58.316 15.7208C58.154 16.6276 58.073 17.7774 58.073 19.1701C58.073 20.4656 58.1459 21.5102 58.2917 22.3037C58.4536 23.0972 58.7775 23.7369 59.2633 24.2227C59.7653 24.6923 60.5022 24.9514 61.4738 25C62.4131 24.9676 63.1094 24.7166 63.5629 24.247C64.0325 23.7611 64.324 23.1296 64.4373 22.3523C64.5669 21.5749 64.6317 20.5142 64.6317 19.1701C64.6317 17.5831 64.5588 16.3604 64.413 15.5021C64.2835 14.6439 63.9839 13.988 63.5143 13.5346C63.0608 13.0811 62.3564 12.8544 61.4009 12.8544Z" fill="black"/>
<path d="M27.901 5.29874L31.0201 3.76476L31.0962 3.72731L31.1344 3.65154L32.6908 0.562205L34.2473 3.65154L34.2854 3.72731L34.3616 3.76476L37.4807 5.29874L34.3616 6.83272L34.2854 6.87017L34.2473 6.94594L32.6908 10.0353L31.1344 6.94594L31.0962 6.87017L31.0201 6.83272L27.901 5.29874Z" fill="black" stroke="black" stroke-width="0.506067"/>
</svg>
