<svg width="129" height="129" viewBox="0 0 129 129" fill="none" xmlns="http://www.w3.org/2000/svg">
<path d="M117.957 65.6428L123.379 65.8522L123.417 64.8647L124.243 64.8966L124.205 65.884L124.846 65.9088C125.516 65.9346 126.027 66.1336 126.379 66.5058C126.73 66.8779 126.894 67.3912 126.868 68.0456C126.859 68.292 126.817 68.5352 126.742 68.7752L125.878 68.684C125.92 68.5044 125.944 68.3126 125.952 68.1085C125.966 67.7621 125.874 67.4906 125.677 67.2941C125.484 67.0977 125.199 66.9923 124.822 66.9777L124.164 66.9523L124.112 68.2862L123.287 68.2543L123.338 66.9204L117.916 66.711L117.957 65.6428Z" fill="#3A3A3A"/>
<path d="M121.022 69.3671C121.628 69.4518 122.158 69.6462 122.609 69.9504C123.06 70.2584 123.388 70.6425 123.592 71.1028C123.795 71.5668 123.859 72.0717 123.783 72.6173C123.665 73.4605 123.278 74.1008 122.622 74.5382C121.966 74.9795 121.153 75.1325 120.184 74.9972L120.109 74.9868C119.506 74.9027 118.981 74.7107 118.532 74.4109C118.087 74.1154 117.762 73.7334 117.555 73.265C117.347 72.8004 117.282 72.2895 117.36 71.7325C117.477 70.8931 117.864 70.2528 118.521 69.8115C119.177 69.3741 119.986 69.2225 120.947 69.3567L121.022 69.3671ZM120.747 70.414C120.061 70.3182 119.487 70.3995 119.027 70.6582C118.566 70.9206 118.299 71.3189 118.224 71.8531C118.149 72.3911 118.299 72.8477 118.675 73.223C119.054 73.5988 119.624 73.8396 120.383 73.9456C121.062 74.0404 121.634 73.9549 122.099 73.6892C122.567 73.4278 122.839 73.03 122.913 72.4959C122.986 71.9732 122.837 71.5225 122.466 71.144C122.095 70.7654 121.522 70.5221 120.747 70.414Z" fill="#3A3A3A"/>
<path d="M121.17 80.1439C121.235 79.9933 121.29 79.8263 121.335 79.6431C121.503 78.9623 121.327 78.4289 120.808 78.0428L116.499 76.9799L116.755 75.9419L122.825 77.4394L122.576 78.4493L121.871 78.2931C122.329 78.7673 122.481 79.3167 122.327 79.9413C122.277 80.1433 122.213 80.2902 122.135 80.382L121.17 80.1439Z" fill="#3A3A3A"/>
<path d="M114.749 82.4576C115.031 81.6587 115.523 81.1012 116.223 80.7851C116.927 80.4703 117.719 80.4684 118.598 80.7795L118.783 80.8451C119.367 81.052 119.849 81.3472 120.229 81.7307C120.61 82.1191 120.859 82.5587 120.976 83.0495C121.094 83.5451 121.071 84.0272 120.905 84.4957C120.634 85.262 120.171 85.7682 119.515 86.0144C118.86 86.2607 118.062 86.2173 117.122 85.8844L116.702 85.736L118.116 81.7429C117.529 81.5518 116.999 81.5542 116.525 81.7502C116.054 81.9511 115.729 82.3021 115.552 82.8033C115.426 83.1592 115.392 83.4863 115.45 83.7847C115.508 84.083 115.624 84.3672 115.798 84.6373L115.1 85.0832C114.516 84.3206 114.399 83.4455 114.749 82.4576ZM120.077 84.2026C120.221 83.7959 120.193 83.4018 119.993 83.0204C119.796 82.6402 119.443 82.323 118.932 82.0687L117.887 85.0212L117.963 85.0482C118.486 85.2004 118.93 85.2025 119.297 85.0546C119.668 84.9079 119.928 84.6239 120.077 84.2026Z" fill="#3A3A3A"/>
<path d="M116.584 87.0181C117.132 87.2919 117.572 87.645 117.903 88.0773C118.232 88.5131 118.42 88.9817 118.466 89.483C118.511 89.9878 118.411 90.4866 118.164 90.9794C117.784 91.741 117.213 92.2244 116.451 92.4296C115.688 92.6383 114.869 92.5239 113.994 92.0865L113.926 92.053C113.382 91.7809 112.945 91.4312 112.616 91.0041C112.288 90.582 112.101 90.116 112.055 89.6061C112.006 89.0996 112.108 88.5948 112.359 88.0916C112.738 87.3335 113.309 86.8501 114.072 86.6414C114.834 86.4362 115.649 86.5506 116.517 86.9845L116.584 87.0181ZM115.99 87.9227C115.37 87.6128 114.8 87.507 114.282 87.6053C113.762 87.7071 113.381 87.9992 113.14 88.4817C112.897 88.9676 112.894 89.4482 113.13 89.9237C113.369 90.4009 113.832 90.8108 114.518 91.1535C115.131 91.46 115.701 91.5615 116.226 91.458C116.753 91.3597 117.137 91.0693 117.379 90.5868C117.614 90.1147 117.617 89.64 117.386 89.1629C117.155 88.6857 116.69 88.2723 115.99 87.9227Z" fill="#3A3A3A"/>
<path d="M107.993 96.8738C107.765 97.1797 107.659 97.5161 107.674 97.8828C107.69 98.2495 107.827 98.5487 108.087 98.7804L107.483 99.5916C107.207 99.3623 107.007 99.0598 106.883 98.6843C106.759 98.3087 106.734 97.9105 106.807 97.4895C106.878 97.0717 107.04 96.6928 107.293 96.3528C107.802 95.6698 108.434 95.295 109.189 95.2283C109.946 95.167 110.719 95.4307 111.51 96.0196L111.654 96.1265C112.142 96.49 112.51 96.9028 112.757 97.3649C113.003 97.8271 113.108 98.3032 113.069 98.7934C113.029 99.2867 112.838 99.762 112.498 100.219C112.079 100.782 111.563 101.123 110.95 101.243C110.335 101.366 109.75 101.24 109.194 100.865L109.797 100.054C110.14 100.27 110.498 100.345 110.871 100.276C111.244 100.213 111.552 100.019 111.793 99.6949C112.117 99.2592 112.212 98.8035 112.076 98.3278C111.941 97.8575 111.577 97.4016 110.983 96.96L110.821 96.8392C110.243 96.4091 109.71 96.1968 109.22 96.2025C108.731 96.2081 108.322 96.4319 107.993 96.8738Z" fill="#3A3A3A"/>
<path d="M102.543 102.082C102.676 102.121 102.87 102.234 103.127 102.422C103.09 101.707 103.307 101.097 103.779 100.594C104.2 100.144 104.673 99.8928 105.197 99.8402C105.722 99.7931 106.179 99.9525 106.57 100.319C107.045 100.764 107.245 101.289 107.169 101.893C107.094 102.504 106.749 103.136 106.136 103.791L105.425 104.551L105.783 104.886C106.056 105.142 106.349 105.263 106.662 105.25C106.978 105.24 107.284 105.076 107.582 104.758C107.843 104.48 107.991 104.181 108.027 103.86C108.063 103.54 107.981 103.287 107.781 103.1L108.516 102.315C108.744 102.529 108.888 102.814 108.949 103.172C109.01 103.535 108.973 103.913 108.839 104.304C108.702 104.698 108.478 105.061 108.167 105.393C107.674 105.919 107.156 106.207 106.613 106.257C106.072 106.311 105.566 106.127 105.095 105.706L102.994 103.739C102.575 103.347 102.192 103.088 101.845 102.963L101.777 102.9L102.543 102.082ZM104.351 101.344C104.122 101.588 103.968 101.88 103.889 102.217C103.81 102.555 103.826 102.868 103.936 103.156L104.872 104.033L105.445 103.422C106.34 102.466 106.508 101.726 105.949 101.202C105.704 100.972 105.437 100.875 105.146 100.909C104.856 100.943 104.591 101.088 104.351 101.344Z" fill="#3A3A3A"/>
<path d="M104.213 109.121L103.681 108.542C103.702 109.309 103.417 109.94 102.827 110.436C101.814 111.285 100.825 111.142 99.8575 110.008L97.2016 106.843L98.0205 106.156L100.68 109.325C100.973 109.668 101.267 109.856 101.562 109.89C101.854 109.927 102.164 109.808 102.491 109.533C102.757 109.31 102.931 109.043 103.012 108.733C103.094 108.423 103.095 108.106 103.014 107.782L100.15 104.369L100.969 103.682L104.988 108.471L104.213 109.121Z" fill="#3A3A3A"/>
<path d="M97.7137 110.47C98.2346 111.276 98.4621 112.046 98.3962 112.781C98.3325 113.52 97.9916 114.089 97.3737 114.489C96.7591 114.886 96.1362 114.991 95.5052 114.802L97.2749 117.539L96.3772 118.12L91.5576 110.666L92.3825 110.133L92.7902 110.667C92.8648 109.995 93.2223 109.452 93.8629 109.038C94.4711 108.645 95.1287 108.573 95.8358 108.822C96.5397 109.073 97.151 109.6 97.6698 110.402L97.7137 110.47ZM96.7501 110.949C96.3652 110.354 95.9411 109.967 95.4776 109.79C95.0142 109.612 94.5658 109.664 94.1323 109.944C93.5629 110.312 93.3125 110.836 93.3809 111.517L94.9404 113.929C95.529 114.25 96.1015 114.231 96.6579 113.871C97.0979 113.587 97.3309 113.195 97.3572 112.696C97.3834 112.198 97.181 111.615 96.7501 110.949Z" fill="#3A3A3A"/>
<path d="M88.8944 112.075L89.8417 111.579L93.9555 119.444L93.0082 119.94L88.8944 112.075Z" fill="#3A3A3A"/>
<path d="M84.8834 113.801C85.6652 113.474 86.4085 113.464 87.1131 113.77C87.8191 114.08 88.3522 114.665 88.7121 115.525L88.788 115.706C89.0275 116.279 89.1325 116.834 89.1032 117.372C89.0718 117.916 88.9134 118.396 88.6281 118.812C88.3407 119.233 87.9679 119.539 87.5094 119.731C86.7596 120.045 86.0734 120.042 85.4509 119.722C84.8283 119.402 84.3244 118.782 83.9392 117.861L83.7674 117.451L87.6747 115.815C87.4225 115.253 87.0646 114.862 86.6011 114.642C86.1355 114.428 85.6574 114.423 85.167 114.629C84.8188 114.774 84.5536 114.969 84.3714 115.212C84.1893 115.455 84.0567 115.732 83.9736 116.043L83.1749 115.826C83.3473 114.881 83.9168 114.206 84.8834 113.801ZM87.1703 118.921C87.5683 118.754 87.8414 118.469 87.9895 118.064C88.1391 117.663 88.1365 117.188 87.9818 116.639L85.0927 117.848L85.1239 117.923C85.3621 118.412 85.6593 118.743 86.0154 118.915C86.3731 119.091 86.7581 119.093 87.1703 118.921Z" fill="#3A3A3A"/>
<path d="M75.5503 118.509C75.6141 118.791 75.7706 118.985 76.0196 119.09C76.2658 119.2 76.6665 119.252 77.2218 119.244C77.7734 119.238 78.2229 119.278 78.5705 119.365C78.9144 119.453 79.1861 119.589 79.3858 119.773C79.5817 119.958 79.7137 120.2 79.7818 120.501C79.895 121.001 79.7804 121.471 79.4379 121.912C79.0917 122.354 78.5898 122.649 77.9323 122.798C77.241 122.955 76.6407 122.903 76.1315 122.643C75.6186 122.384 75.2991 121.977 75.1731 121.421L76.2214 121.183C76.2861 121.469 76.4639 121.687 76.755 121.839C77.0423 121.991 77.37 122.025 77.7382 121.942C78.1177 121.856 78.3958 121.706 78.5725 121.492C78.7492 121.278 78.8073 121.038 78.7469 120.771C78.6898 120.519 78.5473 120.352 78.3192 120.27C78.0911 120.187 77.7046 120.146 77.1597 120.147C76.6111 120.149 76.1569 120.106 75.7972 120.017C75.4375 119.929 75.1546 119.788 74.9487 119.593C74.7398 119.404 74.5983 119.145 74.5242 118.819C74.4008 118.274 74.5195 117.787 74.8805 117.357C75.2422 116.932 75.7707 116.64 76.4657 116.483C76.9542 116.372 77.4058 116.36 77.8207 116.448C78.2356 116.536 78.585 116.71 78.869 116.969C79.15 117.233 79.3314 117.546 79.4132 117.906L78.3705 118.143C78.2726 117.797 78.0706 117.551 77.7645 117.403C77.4555 117.26 77.0869 117.237 76.6586 117.334C76.264 117.423 75.9663 117.573 75.7654 117.785C75.5615 118.001 75.4898 118.242 75.5503 118.509Z" fill="#3A3A3A"/>
<path d="M72.2857 122.949C71.8749 123.577 71.2921 123.93 70.5373 124.009C69.223 124.146 68.4827 123.474 68.3163 121.993L67.887 117.883L68.9502 117.772L69.3802 121.887C69.4308 122.335 69.5689 122.656 69.7944 122.849C70.016 123.043 70.3395 123.117 70.7648 123.073C71.1097 123.037 71.4028 122.913 71.6441 122.702C71.8854 122.491 72.0633 122.229 72.1777 121.914L71.7147 117.483L72.778 117.372L73.7003 126.2L72.637 126.311L72.2857 122.949Z" fill="#3A3A3A"/>
<path d="M66.0728 121.174C66.0586 121.786 65.9264 122.334 65.6763 122.818C65.4223 123.301 65.0785 123.671 64.6449 123.927C64.2074 124.183 63.7132 124.304 63.1625 124.291C62.3113 124.272 61.6307 123.961 61.1205 123.36C60.6065 122.758 60.3609 121.968 60.3835 120.99L60.3853 120.915C60.3994 120.307 60.5295 119.762 60.7757 119.283C61.0179 118.806 61.3598 118.439 61.8012 118.179C62.2388 117.92 62.7388 117.796 63.3011 117.809C64.1484 117.829 64.829 118.139 65.343 118.741C65.8531 119.342 66.097 120.128 66.0745 121.099L66.0728 121.174ZM65.0012 121.022C65.0172 120.329 64.8703 119.768 64.5603 119.341C64.2465 118.914 63.82 118.694 63.2809 118.682C62.7378 118.669 62.3015 118.871 61.9721 119.287C61.6425 119.707 61.4688 120.3 61.4511 121.067C61.4352 121.752 61.586 122.311 61.9036 122.742C62.2172 123.177 62.6436 123.401 63.1828 123.413C63.7105 123.426 64.1409 123.225 64.4741 122.813C64.8074 122.401 64.9831 121.804 65.0012 121.022Z" fill="#3A3A3A"/>
<path d="M53.473 119.974C53.6153 119.033 53.9453 118.308 54.4627 117.798C54.9802 117.288 55.6065 117.088 56.3416 117.2C57.092 117.313 57.6464 117.64 58.0048 118.182L58.4552 115.205L59.5123 115.365L58.2171 123.924L57.2515 123.778L57.3038 123.084C56.7927 123.553 56.1543 123.729 55.3887 123.613C54.6459 123.5 54.1017 123.132 53.756 122.507C53.4065 121.881 53.3073 121.069 53.4583 120.071L53.473 119.974ZM54.5118 120.254C54.4064 120.951 54.4716 121.524 54.7076 121.973C54.9436 122.421 55.3206 122.685 55.8387 122.763C56.4786 122.86 57.0015 122.649 57.4073 122.13L57.8543 119.176C57.6235 118.564 57.1824 118.209 56.531 118.111C56.0244 118.034 55.5923 118.173 55.2347 118.528C54.8727 118.886 54.6317 119.462 54.5118 120.254Z" fill="#3A3A3A"/>
<path d="M46.0968 113.012L46.9041 113.312L43.4352 122.663L42.628 122.363L46.0968 113.012Z" fill="#3A3A3A"/>
<path d="M37.8233 110.807L35.0292 115.459L35.8762 115.967L35.4507 116.676L34.6036 116.167L34.2733 116.717C33.9282 117.291 33.5078 117.643 33.0122 117.773C32.5166 117.902 31.9881 117.798 31.4267 117.461C31.2154 117.334 31.0225 117.18 30.8482 116.999L31.3441 116.285C31.4814 116.408 31.6376 116.522 31.8127 116.627C32.1099 116.806 32.392 116.856 32.6589 116.778C32.9239 116.704 33.1536 116.505 33.348 116.181L33.6872 115.617L32.543 114.929L32.9685 114.221L34.1128 114.908L36.9069 110.257L37.8233 110.807Z" fill="#3A3A3A"/>
<path d="M33.0071 111.641C32.6396 112.131 32.2135 112.5 31.7289 112.748C31.2412 112.994 30.7465 113.095 30.245 113.051C29.7403 113.005 29.2676 112.816 28.8269 112.486C28.1458 111.975 27.7725 111.327 27.707 110.541C27.6384 109.753 27.8976 108.967 28.4848 108.184L28.5298 108.124C28.895 107.637 29.3173 107.27 29.7965 107.023C30.2703 106.776 30.7623 106.676 31.2724 106.721C31.7793 106.764 32.2578 106.955 32.7078 107.292C33.3858 107.801 33.7591 108.449 33.8277 109.237C33.8932 110.023 33.6347 110.804 33.0522 111.581L33.0071 111.641ZM32.2235 110.894C32.6396 110.34 32.8457 109.798 32.8419 109.271C32.8349 108.741 32.6157 108.314 32.1842 107.99C31.7497 107.664 31.2774 107.575 30.7673 107.722C30.2549 107.872 29.7688 108.254 29.3088 108.867C28.8974 109.416 28.6955 109.958 28.7032 110.493C28.7055 111.03 28.9224 111.46 29.3539 111.783C29.7761 112.1 30.2426 112.187 30.7535 112.046C31.2643 111.904 31.7543 111.52 32.2235 110.894Z" fill="#3A3A3A"/>
<path d="M23.5205 106.575C23.6211 106.704 23.7407 106.833 23.8794 106.961C24.3946 107.437 24.9467 107.54 25.5358 107.271L28.546 104.01L29.3315 104.735L25.0906 109.33L24.3263 108.624L24.8035 108.081C24.167 108.254 23.6124 108.122 23.1396 107.686C22.9868 107.545 22.889 107.418 22.8463 107.305L23.5205 106.575Z" fill="#3A3A3A"/>
<path d="M24.5987 99.8408C25.1621 100.474 25.4134 101.173 25.3524 101.939C25.2886 102.708 24.9085 103.402 24.212 104.022L24.0653 104.152C23.602 104.565 23.1109 104.845 22.592 104.992C22.0678 105.139 21.5626 105.145 21.0766 105.01C20.5851 104.875 20.1741 104.622 19.8437 104.251C19.3033 103.643 19.0833 102.993 19.1837 102.301C19.284 101.608 19.7069 100.93 20.4522 100.267L20.7846 99.9708L23.6006 103.135C24.0508 102.714 24.3044 102.248 24.3613 101.738C24.4129 101.228 24.2619 100.775 23.9085 100.378C23.6575 100.096 23.3873 99.9081 23.0981 99.8149C22.8088 99.7216 22.5039 99.6861 22.1833 99.7084L22.1291 98.8826C23.0788 98.7386 23.902 99.0581 24.5987 99.8408ZM20.4999 103.667C20.7867 103.989 21.1455 104.154 21.5761 104.163C22.0038 104.174 22.4523 104.018 22.9214 103.693L20.8392 101.353L20.7788 101.407C20.3935 101.791 20.1771 102.18 20.1297 102.573C20.0794 102.968 20.2028 103.333 20.4999 103.667Z" fill="#3A3A3A"/>
<path d="M19.8203 99.3758C19.3185 99.7271 18.7986 99.9451 18.2609 100.03C17.7208 100.112 17.2194 100.053 16.7564 99.8555C16.2912 99.6545 15.9007 99.3282 15.5848 98.8769C15.0967 98.1794 14.9438 97.447 15.1263 96.6798C15.3066 95.9094 15.7976 95.2437 16.5993 94.6826L16.6608 94.6396C17.1595 94.2906 17.6751 94.0732 18.2075 93.9874C18.7346 93.9006 19.2334 93.9583 19.7039 94.1603C20.1723 94.3592 20.5677 94.6891 20.8902 95.1499C21.3761 95.8442 21.529 96.5766 21.3487 97.347C21.1662 98.1142 20.6772 98.7761 19.8819 99.3328L19.8203 99.3758ZM19.3082 98.4223C19.8763 98.0247 20.2407 97.5746 20.4014 97.0718C20.5599 96.5659 20.4845 96.0921 20.1753 95.6502C19.8638 95.2051 19.4429 94.9731 18.9123 94.9541C18.3786 94.9374 17.7978 95.1487 17.1697 95.5883C16.6078 95.9815 16.2472 96.4337 16.0878 96.945C15.923 97.4553 15.9952 97.9314 16.3044 98.3733C16.6071 98.8057 17.0232 99.0341 17.5527 99.0584C18.0823 99.0828 18.6675 98.8707 19.3082 98.4223Z" fill="#3A3A3A"/>
<path d="M15.2773 87.1442C15.1171 86.7981 14.8722 86.5443 14.5426 86.3827C14.2131 86.2212 13.8845 86.1993 13.5569 86.317L13.132 85.3993C13.4652 85.2663 13.8264 85.2349 14.2155 85.3051C14.6047 85.3754 14.9668 85.5431 15.3018 85.8082C15.6353 86.0699 15.891 86.393 16.0691 86.7775C16.4269 87.5501 16.4549 88.2843 16.1531 88.9802C15.8461 89.6743 15.2452 90.2285 14.3503 90.6429L14.1878 90.7182C13.6354 90.974 13.0973 91.1001 12.5734 91.0964C12.0496 91.0928 11.5814 90.9573 11.1688 90.6898C10.7546 90.4189 10.4278 90.0247 10.1882 89.5073C9.89352 88.8711 9.83959 88.255 10.0264 87.659C10.2115 87.0596 10.6018 86.605 11.1971 86.2954L11.622 87.213C11.2679 87.411 11.032 87.69 10.9144 88.0502C10.7916 88.4085 10.8152 88.7712 10.9852 89.1382C11.2135 89.6311 11.569 89.9313 12.0518 90.0389C12.5296 90.1446 13.104 90.042 13.7752 89.7311L13.9588 89.6462C14.6125 89.3434 15.0535 88.9757 15.2819 88.543C15.5104 88.1104 15.5088 87.6441 15.2773 87.1442Z" fill="#3A3A3A"/>
<path d="M13.3087 79.8495C13.2109 79.9465 13.0179 80.0627 12.7298 80.1979C13.3754 80.5088 13.8059 80.9918 14.0212 81.6469C14.2137 82.2325 14.2072 82.7679 14.0018 83.2531C13.7914 83.7359 13.4319 84.0609 12.9232 84.2281C12.3047 84.4314 11.7483 84.3548 11.2539 83.9982C10.7547 83.6392 10.365 83.0333 10.0847 82.1806L9.75985 81.1924L9.29323 81.3458C8.93823 81.4625 8.69132 81.6613 8.55249 81.9421C8.40999 82.2242 8.40672 82.572 8.54266 82.9855C8.66176 83.3478 8.85311 83.6215 9.1167 83.8066C9.38029 83.9916 9.642 84.0415 9.90185 83.956L10.2375 84.9771C9.94105 85.0746 9.6213 85.0641 9.27825 84.9457C8.93033 84.8249 8.61691 84.6116 8.33798 84.3059C8.05785 83.9965 7.84681 83.6259 7.70485 83.194C7.47989 82.5096 7.47565 81.9169 7.69215 81.4159C7.90499 80.9161 8.30911 80.5602 8.9045 80.3483L11.6383 79.4496C12.1837 79.2704 12.5945 79.0583 12.8708 78.8134L12.9587 78.7845L13.3087 79.8495ZM13.0887 81.7892C12.984 81.4708 12.8024 81.196 12.5439 80.9646C12.2854 80.7333 12.0033 80.5969 11.6977 80.5554L10.479 80.9561L10.7407 81.7521C11.1497 82.9964 11.7183 83.4988 12.4466 83.2594C12.765 83.1548 12.979 82.9668 13.0886 82.6956C13.1981 82.4244 13.1982 82.1223 13.0887 81.7892Z" fill="#3A3A3A"/>
<path d="M6.33257 77.9387L7.09664 77.7515C6.4141 77.4001 5.99776 76.8465 5.84762 76.0908C5.59013 74.7948 6.19142 73.9958 7.65148 73.694L11.704 72.8888L11.9123 73.9374L7.85413 74.7436C7.41278 74.8352 7.1062 75.0022 6.93439 75.2445C6.76183 75.483 6.71721 75.812 6.80053 76.2314C6.86809 76.5715 7.01808 76.852 7.2505 77.0729C7.48292 77.2938 7.76076 77.4468 8.08401 77.5318L12.4539 76.6636L12.6623 77.7122L6.52962 78.9306L6.33257 77.9387Z" fill="#3A3A3A"/>
<path d="M8.26676 71.5485C7.30982 71.6151 6.52542 71.4418 5.91356 71.0286C5.29786 70.6158 4.96448 70.0423 4.91343 69.3083C4.86264 68.5781 5.07222 67.9823 5.54216 67.521L2.29086 67.7471L2.21668 66.6806L11.0713 66.0648L11.1394 67.0448L10.4744 67.1432C11.0267 67.5334 11.3293 68.109 11.3822 68.87C11.4325 69.5925 11.1776 70.203 10.6176 70.7015C10.0573 71.1961 9.30056 71.4766 8.34746 71.5429L8.26676 71.5485ZM8.31364 70.4736C9.02078 70.4244 9.56404 70.2399 9.94341 69.92C10.3228 69.6001 10.4946 69.1827 10.4587 68.6677C10.4117 67.9913 10.0737 67.5186 9.44487 67.2495L6.57981 67.4488C6.01399 67.8087 5.75407 68.3191 5.80005 68.9802C5.8364 69.5028 6.0665 69.8962 6.49034 70.1602C6.91419 70.4242 7.52195 70.5287 8.31364 70.4736Z" fill="#3A3A3A"/>
<path d="M11.1164 62.919L11.0917 63.9878L2.21804 63.7822L2.2428 62.7135L11.1164 62.919Z" fill="#3A3A3A"/>
<path d="M11.5338 58.5904C11.4425 59.433 11.0924 60.0887 10.4836 60.5575C9.87099 61.0258 9.10125 61.2098 8.17439 61.1094L7.97906 61.0882C7.36243 61.0214 6.82548 60.845 6.36821 60.5591C5.90753 60.2689 5.56405 59.8985 5.33778 59.4477C5.10808 58.9927 5.02001 58.5181 5.07355 58.0241C5.16112 57.2159 5.49537 56.6166 6.07629 56.2262C6.65722 55.8358 7.44367 55.6943 8.43565 55.8018L8.87801 55.8498L8.42169 60.0609C9.03615 60.1119 9.55144 59.9876 9.96755 59.6878C10.3802 59.3838 10.6152 58.9675 10.6725 58.439C10.7132 58.0636 10.671 57.7374 10.546 57.4604C10.4211 57.1833 10.2428 56.9335 10.0111 56.7107L10.5871 56.1163C11.3311 56.724 11.6467 57.5486 11.5338 58.5904ZM5.94679 58.1187C5.9003 58.5476 6.01832 58.9247 6.30084 59.2498C6.57953 59.5745 6.99664 59.8018 7.55219 59.9318L7.8896 56.818L7.80917 56.8093C7.26582 56.7814 6.83258 56.8817 6.50945 57.1102C6.18248 57.3382 5.99493 57.6744 5.94679 58.1187Z" fill="#3A3A3A"/>
<path d="M11.8809 48.1847C11.6032 48.1049 11.3581 48.1487 11.1457 48.3161C10.9306 48.4788 10.6925 48.8052 10.4314 49.2953C10.1714 49.7818 9.91945 50.1563 9.67564 50.419C9.43289 50.6779 9.18286 50.8506 8.92555 50.937C8.66931 51.0197 8.39308 51.0184 8.09688 50.9333C7.60443 50.7918 7.24746 50.4648 7.02598 49.9522C6.80556 49.436 6.78844 48.8538 6.97462 48.2059C7.17038 47.5246 7.50477 47.0235 7.9778 46.7024C8.4519 46.3777 8.96294 46.2941 9.51093 46.4515L9.2141 47.4845C8.9327 47.4037 8.6556 47.4543 8.38281 47.6365C8.11107 47.8149 7.92308 48.0856 7.81882 48.4485C7.71136 48.8224 7.70877 49.1383 7.81105 49.3962C7.91332 49.6541 8.0959 49.8208 8.35878 49.8963C8.60686 49.9676 8.82203 49.9232 9.00431 49.7631C9.18658 49.603 9.40852 49.284 9.67012 48.806C9.93278 48.3244 10.1895 47.9472 10.4402 47.6745C10.6909 47.4018 10.951 47.222 11.2205 47.1351C11.4873 47.0434 11.7818 47.0439 12.1039 47.1364C12.6408 47.2907 13.0104 47.6294 13.2128 48.1525C13.4116 48.6746 13.4125 49.2781 13.2157 49.9631C13.0774 50.4444 12.8699 50.8458 12.5932 51.1671C12.3165 51.4884 11.996 51.711 11.6317 51.8348C11.2648 51.9538 10.9037 51.9623 10.5482 51.8602L10.8434 50.8327C11.1931 50.9131 11.5065 50.8548 11.7835 50.6579C12.0579 50.4561 12.2558 50.1442 12.3771 49.7221C12.4888 49.3334 12.5004 49 12.4119 48.722C12.3208 48.4393 12.1438 48.2602 11.8809 48.1847Z" fill="#3A3A3A"/>
<path d="M9.52491 43.2351C9.17374 42.5721 9.14597 41.8911 9.44161 41.1921C9.95636 39.9751 10.9025 39.6517 12.2802 40.2218L16.0855 41.8314L15.6691 42.816L11.8584 41.2042C11.4418 41.0322 11.0943 40.9981 10.8161 41.1022C10.5394 41.2026 10.3177 41.4498 10.1511 41.8436C10.0161 42.1629 9.98266 42.4793 10.0509 42.7926C10.1192 43.1059 10.2632 43.3885 10.4829 43.6403L14.5863 45.3759L14.1698 46.3605L5.995 42.9029L6.41145 41.9183L9.52491 43.2351Z" fill="#3A3A3A"/>
<path d="M13.9338 38.8661C13.4041 38.5585 12.9878 38.1785 12.6847 37.7262C12.3835 37.2706 12.2254 36.7912 12.2103 36.2879C12.1972 35.7813 12.3289 35.2898 12.6056 34.8134C13.0333 34.0772 13.6335 33.6306 14.4063 33.4736C15.1811 33.3133 15.9915 33.4789 16.8377 33.9704L16.9026 34.0081C17.429 34.3138 17.843 34.6902 18.1447 35.1372C18.445 35.5789 18.6024 36.0557 18.617 36.5676C18.6334 37.0762 18.5004 37.5736 18.2179 38.06C17.7922 38.7928 17.192 39.2395 16.4172 39.3998C15.6444 39.5568 14.8382 39.3915 13.9988 38.9039L13.9338 38.8661ZM14.5836 38.0006C15.1832 38.3489 15.7449 38.4902 16.2686 38.4246C16.7942 38.3557 17.1925 38.0881 17.4634 37.6217C17.7362 37.152 17.7697 36.6725 17.5639 36.1831C17.3547 35.6919 16.9187 35.2537 16.2558 34.8687C15.6628 34.5242 15.1009 34.3872 14.57 34.4575C14.0377 34.5225 13.6361 34.7882 13.3652 35.2546C13.1001 35.711 13.0678 36.1845 13.2684 36.6753C13.4689 37.166 13.9074 37.6078 14.5836 38.0006Z" fill="#3A3A3A"/>
<path d="M21.1745 28.2045C21.9294 28.7837 22.4052 29.4231 22.6017 30.1226C22.7983 30.822 22.6702 31.4667 22.2177 32.0566C21.7557 32.6588 21.2012 32.9859 20.5541 33.0382L22.9428 34.8708L22.292 35.719L15.4241 30.4497L16.0186 29.6749L16.6004 30.0558C16.4375 29.3821 16.5917 28.7381 17.0631 28.1237C17.5203 27.5277 18.1061 27.2294 18.8204 27.2287C19.537 27.225 20.2958 27.5303 21.0966 28.1447L21.1745 28.2045ZM20.4275 28.9788C19.8681 28.5497 19.335 28.33 18.8281 28.3198C18.3212 28.3097 17.9083 28.5124 17.5894 28.9281C17.1954 29.4416 17.1277 30.0014 17.3861 30.6076L19.7564 32.4262C20.4034 32.5195 20.9274 32.3049 21.3284 31.7822C21.6403 31.3757 21.7272 30.9301 21.5892 30.4455C21.4505 29.9555 21.0632 29.4666 20.4275 28.9788Z" fill="#3A3A3A"/>
<path d="M30.7506 25.1349L30.0991 25.6979L23.5773 18.1517L24.2288 17.5887L30.7506 25.1349Z" fill="#3A3A3A"/>
<path d="M36.6834 18.8798L33.9408 14.1978L33.0881 14.6973L32.6705 13.9843L33.5231 13.4848L33.1989 12.9314C32.8601 12.353 32.7527 11.8153 32.8769 11.3185C33.0011 10.8216 33.3457 10.4076 33.9108 10.0766C34.1235 9.95197 34.3512 9.85658 34.5937 9.79042L34.9819 10.5675C34.8082 10.6291 34.6332 10.7115 34.457 10.8148C34.1579 10.99 33.9784 11.2134 33.9188 11.485C33.8571 11.7533 33.9217 12.0503 34.1126 12.376L34.4455 12.9445L35.5973 12.2698L36.015 12.9828L34.8632 13.6575L37.6059 18.3395L36.6834 18.8798Z" fill="#3A3A3A"/>
<path d="M38.3036 14.2173C38.0504 13.6596 37.9313 13.1086 37.9465 12.5644C37.9652 12.0185 38.1143 11.5362 38.3938 11.1174C38.6767 10.697 39.069 10.3729 39.5706 10.1451C40.3458 9.79307 41.0938 9.77709 41.8146 10.0972C42.5388 10.4156 43.1032 11.0203 43.5078 11.9113L43.5389 11.9797C43.7905 12.5339 43.9097 13.0806 43.8964 13.6197C43.8851 14.1538 43.737 14.6335 43.4521 15.0591C43.1707 15.483 42.774 15.8113 42.2618 16.0438C41.4901 16.3942 40.7422 16.4102 40.0179 16.0917C39.2971 15.7717 38.7361 15.1697 38.3347 14.2857L38.3036 14.2173ZM39.3348 13.8887C39.6216 14.5201 39.9973 14.9608 40.462 15.211C40.9303 15.4595 41.41 15.4723 41.9011 15.2493C42.3957 15.0247 42.7009 14.6534 42.8168 14.1353C42.9312 13.6138 42.8299 13.004 42.5129 12.3059C42.2294 11.6816 41.8509 11.2442 41.3776 10.9937C40.9061 10.7381 40.4249 10.7218 39.9338 10.9448C39.4532 11.1631 39.1524 11.5302 39.0314 12.0464C38.9104 12.5625 39.0115 13.1766 39.3348 13.8887Z" fill="#3A3A3A"/>
<path d="M47.053 8.40627C46.8911 8.4324 46.7207 8.47562 46.5418 8.53591C45.8774 8.75988 45.5219 9.19478 45.4754 9.84061L46.893 14.0461L45.8799 14.3876L43.8827 8.46266L44.8684 8.1304L45.1155 8.80935C45.2693 8.16803 45.651 7.74462 46.2607 7.53911C46.4578 7.47266 46.6161 7.44776 46.7355 7.46442L47.053 8.40627Z" fill="#3A3A3A"/>
<path d="M52.4782 12.5543C51.6524 12.7447 50.9181 12.6294 50.2754 12.2083C49.6319 11.7834 49.2053 11.1168 48.9959 10.2083L48.9517 10.0169C48.8124 9.41249 48.8026 8.8474 48.9226 8.32161C49.0454 7.79119 49.2825 7.34511 49.634 6.98336C49.9883 6.617 50.4077 6.37798 50.8919 6.26632C51.684 6.08367 52.3598 6.20261 52.9193 6.62313C53.4788 7.04365 53.8707 7.74004 54.0949 8.7123L54.1949 9.14588L50.0674 10.0976C50.221 10.6948 50.5076 11.1407 50.9274 11.4353C51.3501 11.7252 51.8205 11.8105 52.3385 11.6911C52.7064 11.6062 53.0006 11.4593 53.2213 11.2503C53.4419 11.0413 53.6194 10.7908 53.7537 10.4989L54.5043 10.8477C54.1747 11.75 53.4993 12.3189 52.4782 12.5543ZM51.0893 7.12221C50.6688 7.21916 50.3514 7.45444 50.1371 7.82805C49.9219 8.1979 49.8442 8.66653 49.9039 9.23394L52.9558 8.5302L52.9376 8.45136C52.7855 7.92899 52.5485 7.5527 52.2266 7.32251C51.9038 7.08857 51.5247 7.0218 51.0893 7.12221Z" fill="#3A3A3A"/>
<path d="M55.4924 8.51986C55.4287 7.91064 55.4903 7.35032 55.677 6.83889C55.8675 6.32706 56.1616 5.91674 56.5593 5.60793C56.9608 5.29872 57.4356 5.11549 57.9835 5.05825C58.8303 4.96979 59.5448 5.19145 60.1272 5.72324C60.7133 6.25463 61.0572 7.00694 61.1589 7.98016L61.1667 8.05488C61.23 8.66027 61.17 9.21656 60.9867 9.72375C60.8068 10.2267 60.5144 10.6349 60.1095 10.9484C59.7083 11.2614 59.2281 11.4472 58.6687 11.5056C57.8257 11.5937 57.1112 11.372 56.525 10.8406C55.9426 10.3088 55.601 9.56014 55.5002 8.59458L55.4924 8.51986ZM56.5746 8.53462C56.6466 9.22431 56.8635 9.76136 57.2251 10.1458C57.5906 10.5298 58.0416 10.6938 58.578 10.6377C59.1182 10.5813 59.5254 10.3257 59.7994 9.87103C60.0729 9.4125 60.1699 8.802 60.0903 8.03951C60.019 7.35749 59.7985 6.82276 59.4288 6.43531C59.0625 6.04363 58.6112 5.87581 58.0747 5.93185C57.5498 5.98669 57.1482 6.23974 56.87 6.69101C56.5918 7.14228 56.4933 7.75681 56.5746 8.53462Z" fill="#3A3A3A"/>
<path d="M68.4955 10.4584C68.8758 10.4863 69.2166 10.3955 69.5179 10.1858C69.8191 9.97616 69.9978 9.69957 70.0539 9.35604L71.0625 9.43009C71.017 9.786 70.8691 10.117 70.6187 10.4231C70.3684 10.7292 70.0459 10.9643 69.6515 11.1285C69.2608 11.2929 68.8542 11.3597 68.4316 11.3286C67.5825 11.2663 66.927 10.9342 66.4651 10.3325C66.0074 9.72719 65.8147 8.93275 65.8869 7.94918L65.9 7.77052C65.9446 7.16347 66.0956 6.63184 66.3532 6.17562C66.6107 5.71941 66.9566 5.3759 67.3907 5.14511C67.8287 4.9146 68.332 4.82022 68.9006 4.86197C69.5998 4.91331 70.1646 5.1653 70.5949 5.61794C71.0291 6.07087 71.237 6.63272 71.2186 7.3035L70.2101 7.22944C70.209 6.82377 70.0795 6.48206 69.8218 6.20433C69.5682 5.92304 69.2397 5.76759 68.8363 5.73796C68.2945 5.69819 67.8594 5.86324 67.531 6.23313C67.2066 6.59946 67.0174 7.15147 66.9632 7.88915L66.9484 8.09086C66.8957 8.80933 67.003 9.37345 67.2703 9.78322C67.5377 10.193 67.946 10.418 68.4955 10.4584Z" fill="#3A3A3A"/>
<path d="M75.9264 12.2729C75.8889 12.1403 75.8809 11.9152 75.9022 11.5977C75.3173 12.0116 74.6862 12.154 74.0088 12.0248C73.4034 11.9093 72.9382 11.6441 72.6134 11.2292C72.2931 10.8112 72.1831 10.3392 72.2835 9.81322C72.4054 9.17369 72.7422 8.72415 73.2937 8.46461C73.8497 8.20201 74.5686 8.15479 75.4503 8.32297L76.472 8.51785L76.564 8.03536C76.6341 7.6683 76.5799 7.35598 76.4015 7.09842C76.2239 6.83707 75.9213 6.66561 75.4937 6.58405C75.1191 6.51259 74.7869 6.54729 74.4973 6.68814C74.2077 6.82899 74.0372 7.03376 73.986 7.30244L72.9302 7.10106C72.9886 6.79454 73.1528 6.51994 73.4226 6.27727C73.697 6.03153 74.0354 5.86078 74.4381 5.76501C74.8445 5.66996 75.2709 5.66502 75.7175 5.75019C76.4251 5.88516 76.9456 6.16876 77.2788 6.60099C77.6128 7.02943 77.7282 7.5554 77.625 8.1789L77.0858 11.0057C76.9783 11.5695 76.9646 12.0317 77.0449 12.3921L77.0276 12.4829L75.9264 12.2729ZM74.3364 11.1402C74.6656 11.203 74.9941 11.1774 75.3217 11.0634C75.6494 10.9494 75.9054 10.7688 76.0898 10.5216L76.3302 9.26145L75.5071 9.10446C74.2205 8.85905 73.5054 9.11288 73.3617 9.86593C73.2989 10.1952 73.3596 10.4734 73.5437 10.7007C73.7278 10.928 73.9921 11.0745 74.3364 11.1402Z" fill="#3A3A3A"/>
<path d="M80.6396 6.98574L80.4357 7.74552C81.0724 7.31653 81.7581 7.21819 82.4927 7.4505C83.7526 7.8489 84.1633 8.7606 83.7248 10.1856L82.4791 14.1251L81.4598 13.8027L82.7072 9.85776C82.8395 9.42684 82.8408 9.07775 82.7111 8.81049C82.5852 8.5444 82.3183 8.34689 81.9106 8.21796C81.58 8.11342 81.262 8.10982 80.9564 8.20715C80.6509 8.30447 80.3831 8.47432 80.1529 8.71669L78.8096 12.9647L77.7903 12.6424L79.6754 6.68084L80.6396 6.98574Z" fill="#3A3A3A"/>
<path d="M85.3734 11.757C85.7765 10.8866 86.3065 10.2829 86.9635 9.9461C87.622 9.60576 88.2852 9.5902 88.9529 9.89941C89.6171 10.207 90.0379 10.6779 90.2155 11.312L91.5851 8.35458L92.5552 8.80382L88.8253 16.8581L87.9339 16.4453L88.1683 15.8152C87.5601 16.1109 86.91 16.0985 86.2178 15.7779C85.5606 15.4736 85.1487 14.9559 84.982 14.2249C84.8188 13.4955 84.9379 12.6974 85.3394 11.8304L85.3734 11.757ZM86.2925 12.3164C85.9946 12.9596 85.8943 13.5245 85.9916 14.0111C86.0889 14.4977 86.3718 14.8495 86.8403 15.0664C87.4555 15.3513 88.0326 15.2832 88.5716 14.862L89.7784 12.2559C89.736 11.5866 89.4141 11.1128 88.8128 10.8344C88.3374 10.6142 87.8819 10.6261 87.4462 10.8701C87.0105 11.1142 86.626 11.5962 86.2925 12.3164Z" fill="#3A3A3A"/>
<path d="M91.5213 18.381L90.5968 17.844L95.055 10.1688L95.9794 10.7058L91.5213 18.381Z" fill="#3A3A3A"/>
<path d="M95.0314 20.7698C94.337 20.2838 93.9311 19.6612 93.8136 18.9018C93.6983 18.1394 93.9079 17.3762 94.4425 16.6124L94.5552 16.4514C94.9108 15.9433 95.324 15.5577 95.7949 15.2948C96.2711 15.0309 96.7612 14.9084 97.2652 14.9272C97.7746 14.9452 98.2329 15.0966 98.64 15.3816C99.306 15.8476 99.6701 16.4293 99.7324 17.1264C99.7946 17.8236 99.5397 18.5809 98.9676 19.3984L98.7125 19.7629L95.2422 17.3342C94.9014 17.8481 94.7621 18.3595 94.8243 18.8686C94.8919 19.3767 95.1435 19.7832 95.579 20.088C95.8884 20.3045 96.1945 20.4247 96.4975 20.4486C96.8005 20.4726 97.1053 20.4367 97.4121 20.3411L97.6555 21.1321C96.7646 21.4914 95.8899 21.3706 95.0314 20.7698ZM98.1364 16.1012C97.7829 15.8538 97.3957 15.7756 96.9747 15.8665C96.5559 15.9543 96.1557 16.2103 95.7742 16.6345L98.3402 18.4303L98.3866 18.364C98.6728 17.9013 98.7937 17.4734 98.7491 17.0801C98.7068 16.6837 98.5025 16.3574 98.1364 16.1012Z" fill="#3A3A3A"/>
<path d="M104.089 26.1506C104.292 25.9455 104.372 25.7096 104.327 25.4428C104.288 25.176 104.116 24.8102 103.812 24.3455C103.511 23.8835 103.304 23.4824 103.191 23.1423C103.081 22.8049 103.05 22.5027 103.098 22.2356C103.148 21.9711 103.282 21.7296 103.5 21.5108C103.861 21.1472 104.319 20.9917 104.875 21.0441C105.434 21.0993 105.952 21.3644 106.431 21.8393C106.934 22.3388 107.212 22.873 107.266 23.4422C107.322 24.014 107.15 24.5023 106.748 24.9069L105.985 24.1496C106.192 23.9419 106.281 23.6746 106.252 23.3478C106.226 23.0237 106.08 22.7287 105.812 22.4627C105.536 22.1886 105.26 22.0343 104.985 21.9999C104.709 21.9655 104.475 22.0453 104.283 22.2394C104.101 22.4226 104.036 22.6326 104.089 22.8694C104.141 23.1062 104.314 23.4543 104.607 23.9136C104.903 24.3756 105.111 24.7821 105.229 25.1331C105.347 25.484 105.38 25.7986 105.326 26.0766C105.278 26.3546 105.136 26.6126 104.9 26.8504C104.507 27.2469 104.032 27.4079 103.476 27.3337C102.923 27.2567 102.393 26.9671 101.887 26.465C101.532 26.1122 101.28 25.7372 101.131 25.34C100.983 24.9428 100.942 24.5548 101.009 24.1759C101.081 23.797 101.247 23.4763 101.508 23.2138L102.266 23.967C102.028 24.2348 101.928 24.5376 101.967 24.8752C102.012 25.2128 102.19 25.5364 102.502 25.8458C102.789 26.1308 103.076 26.3013 103.362 26.3575C103.654 26.4137 103.896 26.3447 104.089 26.1506Z" fill="#3A3A3A"/>
<path d="M109.657 26.5678C110.408 26.5787 111.018 26.8818 111.489 27.4772C112.308 28.5137 112.137 29.4988 110.975 30.4326L107.734 32.9951L107.071 32.1565L110.316 29.5904C110.667 29.3078 110.864 29.0195 110.907 28.7256C110.952 28.4346 110.842 28.1214 110.576 27.786C110.361 27.514 110.1 27.3326 109.793 27.2418C109.485 27.151 109.168 27.1414 108.842 27.2129L105.347 29.9762L104.684 29.1376L111.646 23.6326L112.309 24.4712L109.657 26.5678Z" fill="#3A3A3A"/>
<path d="M111.342 32.4964C111.866 32.179 112.399 31.9958 112.941 31.9466C113.486 31.9007 113.982 31.9917 114.431 32.2198C114.882 32.4511 115.25 32.8024 115.536 33.2736C115.977 34.0018 116.081 34.7426 115.848 35.4961C115.617 36.2529 115.084 36.8848 114.247 37.3918L114.182 37.4307C113.662 37.7461 113.133 37.929 112.596 37.9795C112.064 38.0313 111.57 37.9408 111.114 37.7082C110.66 37.4789 110.287 37.1237 109.996 36.6426C109.557 35.9177 109.453 35.1768 109.683 34.42C109.916 33.6665 110.448 33.0383 111.278 32.5353L111.342 32.4964ZM111.79 33.4816C111.197 33.8408 110.804 34.266 110.61 34.757C110.419 35.2514 110.463 35.7292 110.742 36.1905C111.024 36.6551 111.428 36.9144 111.957 36.9683C112.488 37.0203 113.082 36.8477 113.737 36.4505C114.324 36.0952 114.713 35.6677 114.906 35.1681C115.104 34.6698 115.064 34.1899 114.784 33.7286C114.511 33.2772 114.111 33.0219 113.584 32.9627C113.057 32.9034 112.459 33.0764 111.79 33.4816Z" fill="#3A3A3A"/>
<path d="M117.138 43.7487C116.268 44.1357 115.479 44.2486 114.771 44.0874C114.063 43.9263 113.557 43.5061 113.255 42.8268C112.946 42.1335 112.923 41.49 113.186 40.8965L110.436 42.1208L110.001 41.1442L117.909 37.6239L118.306 38.5161L117.694 38.8456C118.364 39.024 118.856 39.4669 119.171 40.1743C119.477 40.8606 119.459 41.5178 119.119 42.1458C118.78 42.7773 118.15 43.2983 117.227 43.7088L117.138 43.7487ZM116.814 42.7227C117.458 42.436 117.905 42.0724 118.156 41.6318C118.407 41.1912 118.426 40.7316 118.213 40.2529C117.95 39.6616 117.49 39.3349 116.834 39.2727L114.105 40.4876C113.714 41.0116 113.652 41.5745 113.92 42.1763C114.129 42.6444 114.479 42.9335 114.97 43.0435C115.467 43.1555 116.082 43.0486 116.814 42.7227Z" fill="#3A3A3A"/>
<path d="M115.815 56.676L115.683 55.8252L125.538 54.295L125.671 55.1459L115.815 56.676Z" fill="#3A3A3A"/>
</svg>
