<svg width="150" height="150" viewBox="0 0 150 150" fill="none" xmlns="http://www.w3.org/2000/svg">
<path d="M139.921 76.5346L139.936 75.863L145.992 76.0032L145.976 76.6748L139.921 76.5346ZM147.746 75.9263C147.873 75.9292 147.979 75.9727 148.063 76.0568C148.15 76.1409 148.192 76.2539 148.189 76.3957C148.186 76.5375 148.139 76.6484 148.047 76.7284C147.959 76.8122 147.852 76.8527 147.725 76.8497C147.598 76.8468 147.493 76.8014 147.409 76.7136C147.325 76.6295 147.285 76.5166 147.288 76.3748C147.291 76.233 147.337 76.1221 147.425 76.042C147.512 75.9619 147.62 75.9233 147.746 75.9263Z" fill="#DD7660"/>
<path d="M145.851 79.9116L144.817 79.8382C145.168 80.0993 145.424 80.408 145.586 80.7641C145.751 81.1206 145.815 81.5032 145.777 81.912C145.717 82.5586 145.491 83.0229 145.097 83.305C144.704 83.5871 144.142 83.6962 143.414 83.6323L139.456 83.265L139.517 82.6016L143.481 82.9695C144.02 83.0158 144.432 82.9378 144.717 82.7356C145.002 82.5371 145.167 82.1908 145.213 81.6965C145.251 81.284 145.155 80.9059 144.924 80.5621C144.697 80.2225 144.371 79.9561 143.947 79.763L139.817 79.3796L139.878 78.7163L145.91 79.2761L145.851 79.9116Z" fill="#DD7660"/>
<path d="M139.117 85.3927L144.547 86.3211L144.716 85.3333L145.256 85.4258L145.088 86.4135L145.81 86.5371C146.421 86.6416 146.864 86.8763 147.138 87.2413C147.412 87.61 147.502 88.072 147.407 88.6275C147.364 88.8777 147.293 89.106 147.193 89.3123L146.65 89.1683C146.725 88.9919 146.782 88.7952 146.819 88.5781C146.881 88.2139 146.816 87.9112 146.622 87.6698C146.432 87.4291 146.13 87.2732 145.714 87.2022L144.974 87.0757L144.731 88.4994L144.19 88.407L144.434 86.9833L139.004 86.0548L139.117 85.3927Z" fill="#DD7660"/>
<path d="M141.632 89.2014C142.196 89.3451 142.677 89.5831 143.074 89.9152C143.47 90.251 143.742 90.6496 143.89 91.111C144.041 91.577 144.052 92.0631 143.923 92.5695C143.724 93.3507 143.288 93.9136 142.614 94.2582C141.945 94.6037 141.158 94.6612 140.254 94.4309L140.118 94.3963C139.55 94.2517 139.067 94.011 138.667 93.6743C138.27 93.3421 138 92.9458 137.855 92.4853C137.71 92.0248 137.703 91.5396 137.833 91.0296C138.031 90.2521 138.465 89.6887 139.136 89.3396C139.809 88.995 140.598 88.9379 141.502 89.1682L141.632 89.2014ZM141.287 89.8068C140.586 89.628 139.963 89.6619 139.419 89.9084C138.877 90.1594 138.531 90.5797 138.381 91.1692C138.232 91.7551 138.335 92.286 138.692 92.762C139.051 93.2424 139.599 93.5766 140.337 93.7646L140.462 93.7964C140.91 93.9106 141.342 93.932 141.757 93.8606C142.172 93.7891 142.518 93.6291 142.797 93.3805C143.08 93.1328 143.271 92.8155 143.369 92.4285C143.517 91.8498 143.409 91.3198 143.046 90.8384C142.687 90.358 142.141 90.0242 141.407 89.8372L141.287 89.8068Z" fill="#DD7660"/>
<path d="M141.138 99.3157C141.209 99.1899 141.27 99.051 141.322 98.8992C141.457 98.5036 141.46 98.13 141.332 97.7786C141.205 97.4319 140.952 97.1285 140.572 96.8685L136.635 95.525L136.85 94.8945L142.583 96.851L142.371 97.4709L141.456 97.1705C142.02 97.7375 142.175 98.3918 141.922 99.1336C141.862 99.3102 141.791 99.4419 141.71 99.5287L141.138 99.3157Z" fill="#DD7660"/>
<path d="M140.968 101.582L140.066 101.184C140.303 101.542 140.432 101.912 140.456 102.294C140.479 102.676 140.404 103.052 140.23 103.424C139.825 104.29 139.213 104.673 138.394 104.574C138.644 104.93 138.784 105.315 138.813 105.728C138.845 106.143 138.769 106.548 138.584 106.944C138.034 108.12 137.111 108.42 135.815 107.843L132.154 106.131L132.439 105.522L136.054 107.213C136.546 107.439 136.959 107.502 137.294 107.403C137.627 107.308 137.904 107.025 138.123 106.555C138.32 106.116 138.351 105.681 138.214 105.25C138.081 104.821 137.825 104.497 137.445 104.279L133.814 102.581L134.098 101.972L137.76 103.684C138.231 103.901 138.634 103.953 138.966 103.841C139.301 103.733 139.574 103.453 139.786 103C139.964 102.618 140.008 102.239 139.916 101.862C139.828 101.487 139.6 101.133 139.232 100.801L135.469 99.0411L135.754 98.4325L141.241 100.998L140.968 101.582Z" fill="#DD7660"/>
<path d="M129.185 110.845C129.382 110.89 129.643 111.004 129.969 111.187C129.836 110.825 129.796 110.444 129.849 110.046C129.903 109.652 130.039 109.283 130.256 108.939C130.567 108.446 130.956 108.134 131.424 108.001C131.89 107.871 132.332 107.939 132.752 108.204C133.251 108.519 133.515 108.974 133.544 109.571C133.572 110.171 133.351 110.842 132.883 111.583L132.235 112.611L132.817 112.978C133.183 113.209 133.542 113.277 133.894 113.181C134.247 113.09 134.56 112.829 134.833 112.397C135.082 112.002 135.187 111.612 135.148 111.225C135.11 110.839 134.948 110.556 134.664 110.377L135.027 109.812C135.435 110.069 135.667 110.48 135.725 111.046C135.785 111.614 135.642 112.174 135.293 112.727C134.932 113.298 134.505 113.657 134.011 113.804C133.517 113.956 133.012 113.876 132.495 113.562L130.071 112.033C129.575 111.72 129.172 111.538 128.86 111.487L128.803 111.451L129.185 110.845ZM130.716 109.322C130.477 109.701 130.355 110.096 130.351 110.508C130.345 110.924 130.452 111.296 130.673 111.625L131.799 112.336L132.439 111.323C132.789 110.754 132.964 110.246 132.963 109.8C132.965 109.356 132.791 109.023 132.441 108.802C132.154 108.621 131.849 108.576 131.526 108.668C131.201 108.763 130.931 108.981 130.716 109.322Z" fill="#DD7660"/>
<path d="M133.273 118.231L132.029 117.305L131.28 118.311L130.84 117.983L131.589 116.977L128.351 114.567C128.082 114.367 127.845 114.265 127.642 114.263C127.437 114.264 127.25 114.378 127.08 114.606C127.013 114.695 126.92 114.852 126.801 115.075L126.344 114.769C126.398 114.591 126.515 114.38 126.696 114.138C126.97 113.77 127.276 113.581 127.613 113.571C127.953 113.564 128.331 113.715 128.748 114.025L131.99 116.438L132.655 115.545L133.095 115.872L132.43 116.766L133.674 117.692L133.273 118.231Z" fill="#DD7660"/>
<path d="M124.916 116.552L125.346 116.036L130.001 119.913L129.571 120.429L124.916 116.552ZM131.422 120.944C131.52 121.025 131.575 121.125 131.589 121.243C131.605 121.363 131.568 121.478 131.477 121.587C131.386 121.696 131.28 121.753 131.159 121.759C131.038 121.77 130.929 121.735 130.831 121.654C130.734 121.572 130.679 121.471 130.668 121.35C130.655 121.232 130.694 121.119 130.784 121.01C130.875 120.901 130.98 120.842 131.098 120.834C131.217 120.826 131.325 120.863 131.422 120.944Z" fill="#DD7660"/>
<path d="M125.99 120.164C126.411 120.566 126.712 121.01 126.894 121.494C127.074 121.981 127.115 122.462 127.017 122.937C126.919 123.417 126.689 123.845 126.328 124.223C125.771 124.805 125.114 125.081 124.358 125.05C123.605 125.021 122.892 124.685 122.218 124.039L122.117 123.943C121.694 123.537 121.391 123.09 121.209 122.6C121.026 122.116 120.986 121.638 121.086 121.166C121.187 120.694 121.419 120.267 121.783 119.887C122.338 119.308 122.993 119.031 123.749 119.057C124.504 119.088 125.219 119.426 125.893 120.071L125.99 120.164ZM125.392 120.521C124.869 120.021 124.31 119.744 123.715 119.691C123.12 119.643 122.612 119.839 122.191 120.278C121.773 120.715 121.602 121.228 121.679 121.818C121.755 122.413 122.068 122.974 122.618 123.5L122.711 123.589C123.045 123.909 123.411 124.14 123.807 124.282C124.204 124.424 124.584 124.455 124.95 124.376C125.317 124.299 125.639 124.116 125.916 123.828C126.329 123.397 126.495 122.882 126.416 122.285C126.34 121.69 126.028 121.13 125.481 120.607L125.392 120.521Z" fill="#DD7660"/>
<path d="M122.594 127.716L121.9 126.947C121.972 127.378 121.943 127.778 121.813 128.147C121.685 128.519 121.466 128.839 121.155 129.107C120.664 129.532 120.179 129.709 119.7 129.64C119.22 129.571 118.74 129.261 118.259 128.71L115.66 125.702L116.164 125.267L118.767 128.278C119.123 128.685 119.475 128.915 119.82 128.966C120.163 129.02 120.522 128.885 120.897 128.56C121.211 128.29 121.404 127.95 121.476 127.543C121.547 127.141 121.497 126.723 121.325 126.29L118.612 123.151L119.116 122.715L123.077 127.298L122.594 127.716Z" fill="#DD7660"/>
<path d="M108.574 130.628C108.733 130.753 108.921 130.967 109.137 131.272C109.171 130.888 109.297 130.527 109.515 130.189C109.733 129.856 110.013 129.58 110.356 129.362C110.847 129.049 111.333 128.933 111.813 129.012C112.289 129.094 112.661 129.344 112.927 129.763C113.244 130.26 113.288 130.785 113.06 131.337C112.829 131.892 112.343 132.404 111.603 132.875L110.578 133.527L110.948 134.108C111.18 134.473 111.476 134.688 111.835 134.751C112.192 134.82 112.587 134.717 113.018 134.443C113.412 134.192 113.674 133.884 113.804 133.518C113.934 133.152 113.909 132.828 113.728 132.544L114.298 132.188C114.557 132.595 114.591 133.066 114.401 133.602C114.214 134.142 113.845 134.587 113.294 134.938C112.724 135.3 112.184 135.443 111.674 135.364C111.163 135.291 110.741 135.003 110.407 134.499L108.868 132.08C108.553 131.586 108.266 131.249 108.006 131.07L107.97 131.013L108.574 130.628ZM110.609 129.904C110.231 130.145 109.952 130.451 109.772 130.821C109.589 131.194 109.527 131.577 109.586 131.968L110.301 133.092L111.312 132.449C111.872 132.084 112.247 131.7 112.436 131.296C112.628 130.895 112.613 130.52 112.391 130.171C112.208 129.884 111.951 129.714 111.62 129.659C111.286 129.606 110.949 129.688 110.609 129.904Z" fill="#DD7660"/>
<path d="M103.51 136.712C103.082 135.87 102.928 135.107 103.048 134.422C103.17 133.74 103.545 133.239 104.174 132.919C104.926 132.536 105.637 132.526 106.307 132.889L105.956 132.137L106.515 131.853L110.415 139.516L109.822 139.819L108.27 136.77C108.191 137.552 107.778 138.132 107.033 138.512C106.395 138.837 105.766 138.849 105.148 138.548C104.528 138.252 103.998 137.67 103.556 136.801L103.51 136.712ZM104.162 136.512C104.524 137.224 104.942 137.702 105.414 137.947C105.888 138.196 106.377 138.193 106.879 137.937C107.261 137.742 107.537 137.482 107.707 137.157C107.878 136.836 107.94 136.459 107.892 136.027L106.652 133.592C106.008 133.066 105.306 132.996 104.548 133.382C104.056 133.632 103.77 134.023 103.692 134.552C103.611 135.084 103.768 135.737 104.162 136.512Z" fill="#DD7660"/>
<path d="M102.414 137.382C102.626 137.924 102.714 138.453 102.675 138.969C102.634 139.487 102.469 139.94 102.181 140.33C101.891 140.725 101.503 141.017 101.016 141.208C100.266 141.503 99.5541 141.477 98.8814 141.132C98.2099 140.79 97.7038 140.185 97.3629 139.316L97.3118 139.186C97.0978 138.64 97.0108 138.107 97.0509 137.586C97.089 137.07 97.2527 136.619 97.5422 136.233C97.8316 135.847 98.2213 135.557 98.7112 135.365C99.4581 135.072 100.169 135.096 100.844 135.436C101.517 135.782 102.024 136.389 102.364 137.257L102.414 137.382ZM101.721 137.456C101.456 136.782 101.065 136.296 100.547 135.998C100.027 135.705 99.484 135.669 98.9177 135.891C98.3549 136.112 97.9843 136.506 97.8059 137.073C97.6255 137.645 97.6743 138.286 97.9524 138.995L97.9995 139.114C98.1685 139.545 98.4032 139.908 98.7034 140.203C99.0037 140.498 99.3361 140.687 99.7009 140.768C100.067 140.853 100.436 140.823 100.808 140.677C101.363 140.458 101.731 140.062 101.91 139.486C102.091 138.914 102.042 138.276 101.766 137.57L101.721 137.456Z" fill="#DD7660"/>
<path d="M91.5774 138.629C91.8029 137.955 92.3408 137.496 93.1909 137.251C93.8115 137.073 94.3347 137.117 94.7606 137.383C95.1876 137.652 95.5061 138.139 95.7164 138.844L96.8048 142.632L96.1645 142.816L95.0993 139.109C94.7808 138 94.1732 137.575 93.2764 137.833C92.3438 138.101 91.8645 138.656 91.8386 139.498L93.0491 143.711L92.4034 143.897L90.7306 138.075L91.3548 137.895L91.5774 138.629Z" fill="#DD7660"/>
<path d="M89.5323 146.1L89.2243 144.58L87.9952 144.829L87.8863 144.292L89.1153 144.043L88.3137 140.087C88.247 139.757 88.1388 139.524 87.9891 139.387C87.8358 139.25 87.6201 139.21 87.3421 139.267C87.2324 139.289 87.0587 139.343 86.821 139.429L86.6846 138.897C86.844 138.8 87.0718 138.722 87.368 138.662C87.818 138.571 88.1717 138.634 88.4291 138.852C88.6873 139.074 88.8679 139.439 88.971 139.948L89.7737 143.909L90.8656 143.688L90.9746 144.226L89.8827 144.447L90.1907 145.967L89.5323 146.1Z" fill="#DD7660"/>
<path d="M78.3741 140.648C78.7332 140.034 79.3538 139.694 80.2359 139.63C80.8799 139.582 81.383 139.733 81.7453 140.08C82.1079 140.431 82.3199 140.974 82.3812 141.706L82.6698 145.637L82.0054 145.686L81.7229 141.839C81.6384 140.689 81.1309 140.148 80.2004 140.216C79.2326 140.287 78.6497 140.732 78.4516 141.551L78.7726 145.923L78.1026 145.972L77.6591 139.931L78.3067 139.884L78.3741 140.648Z" fill="#DD7660"/>
<path d="M72.0628 141.438C72.0551 141.77 72.1832 142.04 72.4472 142.247C72.7075 142.455 73.1049 142.621 73.6396 142.745C74.1743 142.873 74.5891 143.014 74.8843 143.166C75.1756 143.322 75.3915 143.508 75.5321 143.724C75.669 143.94 75.7339 144.199 75.7269 144.502C75.7158 144.979 75.5071 145.368 75.1007 145.669C74.6942 145.973 74.1794 146.118 73.5563 146.103C72.8809 146.088 72.3438 145.907 71.9449 145.562C71.5421 145.22 71.347 144.781 71.3594 144.244L72.031 144.259C72.0228 144.614 72.1652 144.912 72.4583 145.154C72.7476 145.396 73.118 145.522 73.5695 145.532C74.0098 145.543 74.3665 145.452 74.6397 145.26C74.9092 145.072 75.0475 144.822 75.0548 144.508C75.0618 144.206 74.9571 143.969 74.7409 143.796C74.5208 143.626 74.1195 143.466 73.5369 143.314C72.9505 143.162 72.5137 143.005 72.2263 142.841C71.9351 142.678 71.7212 142.484 71.5845 142.261C71.4479 142.037 71.3831 141.769 71.3904 141.456C71.4022 140.944 71.6188 140.541 72.04 140.244C72.4576 139.948 72.9984 139.807 73.6625 139.823C74.3677 139.839 74.9365 140.022 75.369 140.372C75.7976 140.725 76.0058 141.163 75.9937 141.685L75.3221 141.67C75.3051 141.277 75.148 140.968 74.8508 140.741C74.5499 140.517 74.1494 140.4 73.6494 140.388C73.183 140.377 72.8038 140.471 72.5118 140.67C72.2197 140.868 72.0701 141.124 72.0628 141.438Z" fill="#DD7660"/>
<path d="M56.9812 135.841L57.5234 136.001L54.7847 145.267L54.2425 145.107L56.9812 135.841Z" fill="#DD7660"/>
<path d="M42.28 131.113L42.8609 131.45L39.8184 136.688L39.2375 136.35L42.28 131.113ZM39.04 138.262C38.9763 138.372 38.8873 138.443 38.7732 138.476C38.6572 138.512 38.5379 138.495 38.4153 138.424C38.2926 138.352 38.2183 138.257 38.1923 138.139C38.1612 138.021 38.1775 137.908 38.2412 137.798C38.305 137.688 38.3955 137.618 38.5129 137.587C38.627 137.554 38.7453 137.573 38.868 137.644C38.9906 137.715 39.0659 137.809 39.0938 137.924C39.1217 138.04 39.1037 138.152 39.04 138.262Z" fill="#DD7660"/>
<path d="M36.3624 134.6L36.9284 133.733C36.5299 133.912 36.1356 133.986 35.7457 133.955C35.3537 133.927 34.9883 133.797 34.6493 133.565C34.1132 133.198 33.8174 132.775 33.762 132.294C33.7065 131.813 33.8836 131.269 34.2934 130.663L36.5365 127.382L37.0865 127.758L34.8402 131.044C34.5379 131.493 34.4059 131.891 34.4443 132.238C34.4796 132.583 34.7022 132.896 35.1119 133.176C35.4539 133.41 35.8311 133.509 36.2436 133.475C36.6508 133.441 37.0418 133.286 37.4167 133.009L39.7578 129.584L40.3078 129.96L36.8893 134.96L36.3624 134.6Z" fill="#DD7660"/>
<path d="M34.8227 126.029L31.3747 130.325L32.1562 130.953L31.8128 131.381L31.0313 130.753L30.5723 131.325C30.1845 131.808 29.7644 132.081 29.312 132.144C28.8567 132.205 28.4092 132.059 27.9697 131.706C27.7718 131.547 27.6068 131.374 27.4748 131.187L27.8645 130.782C27.982 130.933 28.1266 131.078 28.2984 131.216C28.5865 131.447 28.8831 131.537 29.188 131.485C29.4906 131.436 29.7739 131.247 30.0378 130.918L30.5074 130.333L29.3809 129.429L29.7243 129.001L30.8508 129.905L34.2988 125.609L34.8227 126.029Z" fill="#DD7660"/>
<path d="M30.3269 126.423C29.9273 126.846 29.486 127.151 29.003 127.337C28.5172 127.52 28.0367 127.564 27.5614 127.47C27.0807 127.375 26.6504 127.149 26.2704 126.79C25.684 126.237 25.4036 125.583 25.4291 124.827C25.4521 124.074 25.7838 123.358 26.4241 122.679L26.5201 122.577C26.9222 122.151 27.3675 121.845 27.8558 121.659C28.3388 121.474 28.8167 121.429 29.2895 121.526C29.7623 121.624 30.19 121.853 30.5728 122.214C31.1564 122.765 31.4381 123.418 31.4179 124.173C31.3923 124.929 31.0594 125.646 30.4191 126.325L30.3269 126.423ZM29.965 125.827C30.4619 125.301 30.7347 124.74 30.7834 124.144C30.8268 123.549 30.6273 123.043 30.1848 122.625C29.745 122.21 29.2306 122.043 28.6415 122.123C28.0472 122.204 27.4888 122.521 26.9663 123.075L26.8779 123.169C26.5603 123.505 26.3321 123.872 26.1931 124.27C26.0542 124.667 26.0257 125.048 26.1075 125.413C26.1869 125.78 26.3718 126.101 26.6622 126.375C27.0966 126.785 27.6122 126.948 28.2091 126.865C28.8034 126.784 29.3606 126.468 29.8805 125.917L29.965 125.827Z" fill="#DD7660"/>
<path d="M21.7723 121.148C21.8484 121.271 21.9404 121.391 22.0484 121.51C22.3297 121.819 22.6553 122.003 23.0251 122.06C23.3896 122.116 23.7776 122.041 24.189 121.833L27.2659 119.034L27.7142 119.527L23.2335 123.603L22.7927 123.119L23.4975 122.462C22.7288 122.682 22.0808 122.502 21.5534 121.923C21.4278 121.785 21.3465 121.659 21.3096 121.547L21.7723 121.148Z" fill="#DD7660"/>
<path d="M19.916 119.95L20.6975 119.349C20.2701 119.385 19.8834 119.321 19.5373 119.159C19.1912 118.996 18.8968 118.749 18.6541 118.418C18.0893 117.647 18.0468 116.926 18.5266 116.255C18.0946 116.303 17.6904 116.241 17.3138 116.068C16.9342 115.898 16.6153 115.636 16.3572 115.284C15.5893 114.237 15.7696 113.283 16.898 112.424L20.1579 110.034L20.5551 110.576L17.3358 112.936C16.9015 113.259 16.6474 113.591 16.5735 113.932C16.4974 114.27 16.6127 114.648 16.9194 115.066C17.2101 115.45 17.577 115.686 18.0202 115.773C18.4604 115.862 18.8676 115.792 19.2419 115.564L22.4747 113.195L22.8719 113.736L19.612 116.126C19.1958 116.436 18.957 116.763 18.8958 117.109C18.8293 117.454 18.9439 117.828 19.2395 118.231C19.4889 118.572 19.8007 118.792 20.1751 118.892C20.5465 118.995 20.9663 118.965 21.4347 118.802L24.7849 116.346L25.1821 116.888L20.2967 120.469L19.916 119.95Z" fill="#DD7660"/>
<path d="M17.4729 105.193C17.3393 105.344 17.1139 105.519 16.7968 105.716C17.1786 105.773 17.5318 105.92 17.8564 106.158C18.1759 106.395 18.4346 106.691 18.6324 107.046C18.9155 107.555 19.0032 108.047 18.8955 108.521C18.786 108.992 18.5143 109.348 18.0806 109.589C17.5653 109.876 17.0388 109.889 16.501 109.629C15.9614 109.365 15.4784 108.85 15.0519 108.084L14.4612 107.023L13.8595 107.357C13.4812 107.568 13.2498 107.85 13.1652 108.205C13.0755 108.558 13.155 108.958 13.4036 109.405C13.6305 109.813 13.9227 110.092 14.2802 110.243C14.6377 110.395 14.9632 110.389 15.2568 110.225L15.5785 110.815C15.1578 111.049 14.6853 111.056 14.161 110.835C13.6334 110.616 13.2108 110.221 12.8932 109.65C12.5647 109.06 12.4545 108.513 12.5626 108.009C12.6655 107.503 12.9785 107.098 13.5013 106.794L16.006 105.401C16.518 105.116 16.8713 104.849 17.0658 104.599L17.1245 104.567L17.4729 105.193ZM18.0757 107.266C17.858 106.875 17.5692 106.579 17.2095 106.377C16.8479 106.173 16.4699 106.088 16.0756 106.124L14.9113 106.772L15.4938 107.819C15.8252 108.399 16.1869 108.796 16.5789 109.009C16.9676 109.224 17.343 109.231 17.705 109.029C18.0018 108.864 18.1872 108.618 18.2613 108.291C18.3336 107.96 18.2717 107.619 18.0757 107.266Z" fill="#DD7660"/>
<path d="M8.97271 105.092L10.3847 104.451L9.8662 103.309L10.3657 103.083L10.8842 104.224L14.5594 102.556C14.8653 102.417 15.0683 102.259 15.1684 102.082C15.267 101.902 15.2577 101.683 15.1404 101.425C15.0941 101.323 15.0023 101.166 14.8649 100.954L15.3529 100.701C15.4832 100.835 15.6108 101.039 15.7358 101.314C15.9256 101.732 15.9431 102.091 15.7882 102.391C15.63 102.693 15.3147 102.95 14.8423 103.165L11.162 104.836L11.6226 105.851L11.1231 106.077L10.6624 105.063L9.25046 105.704L8.97271 105.092Z" fill="#DD7660"/>
<path d="M14.52 98.6886L14.7654 99.314L9.12668 101.527L8.88127 100.901L14.52 98.6886ZM7.53847 102.276C7.42034 102.323 7.30633 102.323 7.19642 102.278C7.08305 102.235 7.00045 102.147 6.94865 102.015C6.89684 101.883 6.89762 101.762 6.95101 101.653C6.99956 101.542 7.0829 101.463 7.20102 101.416C7.31915 101.37 7.43384 101.371 7.54511 101.42C7.65501 101.465 7.73587 101.553 7.78768 101.685C7.83949 101.817 7.84044 101.937 7.79052 102.045C7.74061 102.153 7.65659 102.23 7.53847 102.276Z" fill="#DD7660"/>
<path d="M10.8372 97.8983C10.2814 98.0717 9.74746 98.1211 9.23541 98.0463C8.72224 97.9679 8.2816 97.7711 7.91347 97.456C7.54066 97.1383 7.27643 96.7301 7.12078 96.2313C6.88062 95.4618 6.95682 94.7538 7.34938 94.1074C7.73837 93.4621 8.37821 93.0005 9.26889 92.7225L9.4025 92.6808C9.96185 92.5063 10.4999 92.4576 11.0166 92.5348C11.5287 92.6096 11.967 92.8052 12.3315 93.1215C12.6961 93.4378 12.9568 93.8471 13.1135 94.3494C13.3526 95.1154 13.2782 95.8229 12.8903 96.4717C12.4977 97.1181 11.8561 97.5803 10.9654 97.8583L10.8372 97.8983ZM10.8134 97.202C11.5046 96.9863 12.0172 96.6308 12.3514 96.1355C12.6809 95.6378 12.755 95.0986 12.5738 94.5179C12.3937 93.9407 12.0271 93.5429 11.4742 93.3245C10.9165 93.1037 10.2743 93.1066 9.54752 93.3335L9.4246 93.3718C8.98282 93.5097 8.60402 93.7178 8.2882 93.9962C7.97238 94.2746 7.76086 94.5928 7.65362 94.9508C7.54283 95.3099 7.54691 95.68 7.66588 96.0612C7.84377 96.6313 8.21331 97.0262 8.77451 97.2459C9.33215 97.4668 9.97259 97.4643 10.6958 97.2386L10.8134 97.202Z" fill="#DD7660"/>
<path d="M5.83648 91.167L6.84621 90.9355C6.43464 90.7881 6.09947 90.5677 5.84069 90.2744C5.57825 89.9818 5.4055 89.6345 5.32242 89.2324C5.19102 88.5965 5.27232 88.0861 5.56632 87.7014C5.86032 87.3168 6.36513 87.0486 7.08075 86.8969L10.9733 86.0926L11.1081 86.7451L7.21007 87.5505C6.68085 87.6636 6.30952 87.8585 6.09608 88.1351C5.88189 88.408 5.82501 88.7875 5.92546 89.2736C6.00928 89.6793 6.21159 90.0129 6.53239 90.2744C6.84878 90.5329 7.23809 90.6926 7.70035 90.7533L11.7629 89.9139L11.8977 90.5663L5.96562 91.792L5.83648 91.167Z" fill="#DD7660"/>
<path d="M10.1072 77.6565C9.92136 77.7353 9.64277 77.7955 9.27141 77.8371C9.59137 78.0529 9.84645 78.3382 10.0366 78.6929C10.2229 79.0441 10.3286 79.4227 10.3536 79.8287C10.3896 80.4099 10.2567 80.8911 9.9549 81.2725C9.65292 81.6501 9.25422 81.8542 8.75878 81.8849C8.17021 81.9212 7.6895 81.706 7.31663 81.2392C6.94352 80.7687 6.72992 80.0957 6.67581 79.2203L6.60086 78.0078L5.91359 78.0503C5.48147 78.077 5.15078 78.2321 4.9215 78.5155C4.68827 78.7954 4.58742 79.1905 4.61897 79.7008C4.64775 80.1665 4.79078 80.5446 5.04807 80.8354C5.30536 81.1261 5.60163 81.2611 5.93689 81.2404L5.97274 81.9112C5.49221 81.9409 5.06304 81.7431 4.68526 81.3177C4.30374 80.8926 4.09284 80.3541 4.05254 79.7022C4.01087 79.0279 4.14755 78.4866 4.46259 78.0783C4.77367 77.6664 5.2306 77.4363 5.83337 77.3878L8.69424 77.211C9.27908 77.1748 9.71298 77.0863 9.99594 76.9454L10.063 76.9413L10.1072 77.6565ZM9.75652 79.7871C9.72889 79.3401 9.59623 78.9482 9.35853 78.6114C9.1206 78.2709 8.81602 78.0317 8.44478 77.8938L7.11493 77.976L7.18884 79.1718C7.2375 79.8381 7.39266 80.352 7.65433 80.7135C7.91226 81.0753 8.24797 81.2434 8.66146 81.2178C9.00044 81.1968 9.27397 81.0547 9.48205 80.7913C9.6899 80.5242 9.78139 80.1894 9.75652 79.7871Z" fill="#DD7660"/>
<path d="M7.2495 69.8764C8.19304 69.9128 8.93459 70.1506 9.47415 70.5898C10.01 71.0288 10.2643 71.6007 10.2371 72.3056C10.2045 73.1484 9.86662 73.7741 9.22338 74.1825L10.0502 74.2424L10.026 74.869L1.43345 74.5372L1.45915 73.8715L4.87717 74.0035C4.23348 73.5528 3.92776 72.9098 3.96001 72.0744C3.98766 71.3584 4.28359 70.8039 4.8478 70.4111C5.40842 70.0145 6.17543 69.8349 7.1488 69.8725L7.2495 69.8764ZM7.1061 70.5432C6.30801 70.5123 5.68668 70.6434 5.24211 70.9362C4.79382 71.2289 4.5588 71.6568 4.53705 72.2199C4.52049 72.6488 4.61274 73.0166 4.8138 73.3231C5.01112 73.6295 5.31009 73.867 5.71069 74.0356L8.44063 74.1411C9.21439 73.8348 9.61769 73.2565 9.65052 72.4062C9.67183 71.8542 9.47029 71.4151 9.0459 71.0887C8.62166 70.7585 7.97506 70.5767 7.1061 70.5432Z" fill="#DD7660"/>
<path d="M7.17229 68.8137C6.59505 68.7376 6.0898 68.5581 5.65652 68.2752C5.22373 67.9885 4.90649 67.6249 4.70481 67.1842C4.4999 66.7394 4.43158 66.2579 4.49983 65.7399C4.60514 64.9406 4.97167 64.3302 5.59943 63.9084C6.22349 63.4862 6.99805 63.3361 7.9231 63.4579L8.06186 63.4762C8.6428 63.5528 9.15151 63.7346 9.588 64.0217C10.0213 64.3047 10.3369 64.6662 10.5349 65.1064C10.7329 65.5466 10.7975 66.0276 10.7288 66.5493C10.624 67.3448 10.2593 67.9556 9.63472 68.3815C9.00696 68.8032 8.23055 68.9531 7.3055 68.8313L7.17229 68.8137ZM7.4432 68.1718C8.16105 68.2664 8.77561 68.1591 9.28689 67.85C9.79495 67.5368 10.0887 67.0786 10.1682 66.4754C10.2472 65.876 10.0816 65.361 9.67154 64.9306C9.25825 64.4959 8.67418 64.2288 7.91934 64.1294L7.79168 64.1126C7.33285 64.0521 6.90166 64.0819 6.49812 64.2019C6.09457 64.3219 5.76895 64.5218 5.52128 64.8016C5.2699 65.0809 5.11813 65.4186 5.06597 65.8145C4.98796 66.4065 5.15746 66.9201 5.57445 67.3553C5.98773 67.7899 6.56995 68.0567 7.3211 68.1557L7.4432 68.1718Z" fill="#DD7660"/>
<path d="M11.305 58.7871C11.7854 59.3115 11.9262 60.0047 11.7275 60.8666C11.5824 61.4958 11.2903 61.9321 10.8511 62.1755C10.4084 62.4181 9.8279 62.4605 9.10978 62.3026L5.26935 61.417L5.41904 60.7678L9.17764 61.6345C10.3014 61.8937 10.9681 61.5686 11.1778 60.6594C11.3958 59.7139 11.1428 59.0255 10.4187 58.5942L6.14737 57.6093L6.29832 56.9547L12.2008 58.3157L12.0549 58.9485L11.305 58.7871Z" fill="#DD7660"/>
<path d="M5.77046 53.2931L7.24903 53.7607L7.62712 52.565L8.15022 52.7304L7.77213 53.9261L11.6207 55.143C11.9409 55.2443 12.1974 55.2628 12.39 55.1984C12.5837 55.1305 12.7233 54.9613 12.8088 54.6909C12.8426 54.5841 12.8793 54.4059 12.9191 54.1562L13.4507 54.2949C13.4583 54.4813 13.4165 54.7186 13.3254 55.0069C13.187 55.4446 12.9599 55.7231 12.6443 55.8425C12.325 55.9608 11.9181 55.9417 11.4235 55.7853L7.56958 54.5666L7.23369 55.6288L6.71059 55.4634L7.04648 54.4012L5.56791 53.9336L5.77046 53.2931Z" fill="#DD7660"/>
<path d="M15.9607 46.1237C16.3231 46.7356 16.3184 47.443 15.9467 48.2456C15.6753 48.8315 15.2998 49.1984 14.82 49.3464C14.3367 49.4928 13.76 49.4149 13.0897 49.1127L9.51334 47.4565L9.79329 46.852L13.2934 48.4729C14.3399 48.9575 15.0592 48.7765 15.4513 47.9298C15.8591 47.0493 15.753 46.3236 15.1331 45.7527L11.1554 43.9107L11.4377 43.3011L16.9343 45.8465L16.6614 46.4358L15.9607 46.1237Z" fill="#DD7660"/>
<path d="M18.1983 40.4516C17.9116 40.2837 17.6135 40.2648 17.3038 40.3948C16.9959 40.5215 16.6579 40.7885 16.2896 41.1956C15.9181 41.6009 15.5941 41.8955 15.3176 42.0796C15.0398 42.2586 14.7723 42.3571 14.5152 42.3751C14.2599 42.39 14.0019 42.321 13.741 42.1682C13.3288 41.9267 13.09 41.5554 13.0246 41.0543C12.9559 40.5512 13.0791 40.0308 13.3941 39.493C13.7356 38.9101 14.154 38.5281 14.6495 38.3468C15.1436 38.1605 15.6225 38.2031 16.0863 38.4748L15.7467 39.0545C15.4408 38.8752 15.1109 38.855 14.7571 38.9938C14.4052 39.1294 14.1151 39.392 13.8868 39.7816C13.6642 40.1616 13.5704 40.5176 13.6052 40.8494C13.6387 41.1762 13.7908 41.4188 14.0613 41.5772C14.3221 41.73 14.5807 41.7539 14.8369 41.6488C15.0918 41.5385 15.4269 41.2655 15.8422 40.8297C16.2594 40.3907 16.6092 40.0852 16.8916 39.9133C17.1759 39.7381 17.4489 39.645 17.7105 39.6339C17.9722 39.6228 18.2383 39.6965 18.5088 39.855C18.95 40.1134 19.198 40.4987 19.2526 41.0109C19.3092 41.5198 19.1696 42.0609 18.8338 42.6341C18.4773 43.2427 18.0412 43.6512 17.5255 43.8596C17.0085 44.0628 16.5246 44.0323 16.0738 43.7682L16.4133 43.1886C16.7647 43.3641 17.1117 43.3771 17.4545 43.2276C17.796 43.0729 18.0931 42.7798 18.3459 42.3483C18.5817 41.9457 18.6837 41.5686 18.6518 41.2169C18.62 40.8652 18.4688 40.6101 18.1983 40.4516Z" fill="#DD7660"/>
<path d="M30.3917 29.9343L29.989 30.3312L23.2063 23.4492L23.609 23.0523L30.3917 29.9343Z" fill="#DD7660"/>
<path d="M41.4738 19.3945L40.8979 19.7404L37.7787 14.5479L38.3546 14.202L41.4738 19.3945ZM36.7756 13.1064C36.7102 12.9976 36.6907 12.8853 36.7168 12.7694C36.7411 12.6503 36.814 12.5543 36.9356 12.4813C37.0572 12.4082 37.1762 12.389 37.2927 12.4235C37.4105 12.4528 37.5021 12.5219 37.5674 12.6307C37.6328 12.7395 37.6507 12.8528 37.6214 12.9705C37.5952 13.0864 37.5213 13.1809 37.3997 13.2539C37.2782 13.3269 37.1601 13.3478 37.0455 13.3165C36.9309 13.2852 36.8409 13.2151 36.7756 13.1064Z" fill="#DD7660"/>
<path d="M41.4609 12.4055L41.9473 13.3202C41.9825 12.8844 42.1081 12.5035 42.3239 12.1772C42.5381 11.8477 42.8285 11.5905 43.195 11.4056C43.7749 11.1132 44.2888 11.0588 44.7367 11.2425C45.1847 11.4263 45.575 11.8438 45.9077 12.4953L47.6976 16.0443L47.1028 16.3443L45.3104 12.7903C45.0634 12.3088 44.7786 12.001 44.456 11.8669C44.1367 11.7312 43.7554 11.775 43.3122 11.9986C42.9423 12.1851 42.6729 12.4673 42.504 12.8451C42.3367 13.2179 42.2839 13.6353 42.3456 14.0975L44.2136 17.8014L43.6188 18.1014L40.8911 12.6929L41.4609 12.4055Z" fill="#DD7660"/>
<path d="M49.7073 15.1862L47.6183 10.0889L46.6911 10.4689L46.483 9.96121L47.4103 9.58122L47.1322 8.90261C46.8973 8.32934 46.8619 7.82958 47.026 7.40334C47.1936 6.97569 47.5381 6.65501 48.0596 6.4413C48.2944 6.34507 48.5257 6.28455 48.7535 6.25976L48.9192 6.79688C48.7296 6.82621 48.5328 6.88262 48.3291 6.96612C47.9872 7.10623 47.7652 7.32226 47.663 7.61421C47.5594 7.90271 47.5875 8.24208 47.7474 8.63232L48.0319 9.32647L49.3684 8.77876L49.5764 9.28642L48.2399 9.83413L50.3289 14.9314L49.7073 15.1862Z" fill="#DD7660"/>
<path d="M51.5575 11.047C51.3798 10.4925 51.3265 9.959 51.3974 9.4464C51.4719 8.93266 51.6653 8.49054 51.9777 8.12004C52.2925 7.74485 52.6987 7.47754 53.1963 7.31812C53.964 7.07217 54.6726 7.14302 55.3219 7.53068C55.9701 7.91479 56.4366 8.55112 56.7212 9.43968L56.7639 9.57297C56.9427 10.131 56.9954 10.6686 56.9221 11.1859C56.8512 11.6985 56.659 12.1383 56.3454 12.5053C56.0319 12.8722 55.6245 13.136 55.1234 13.2965C54.3592 13.5413 53.6513 13.4723 52.9995 13.0893C52.3501 12.7016 51.8831 12.0635 51.5985 11.175L51.5575 11.047ZM52.2536 11.018C52.4745 11.7075 52.8338 12.2175 53.3316 12.5479C53.8318 12.8736 54.3715 12.9437 54.9509 12.758C55.5267 12.5736 55.9217 12.204 56.1359 11.6494C56.3525 11.0902 56.3447 10.448 56.1124 9.72291L56.0731 9.60029C55.9319 9.15956 55.721 8.78235 55.4402 8.46864C55.1594 8.15493 54.8396 7.94581 54.4809 7.84129C54.1209 7.73321 53.7508 7.74008 53.3705 7.86192C52.8019 8.04412 52.4098 8.41663 52.1943 8.97948C51.9776 9.53877 51.9849 10.1792 52.216 10.9007L52.2536 11.018Z" fill="#DD7660"/>
<path d="M59.987 6.18362C59.843 6.19113 59.693 6.21351 59.5369 6.25076C59.1303 6.34778 58.8127 6.54443 58.5841 6.8407C58.3583 7.13248 58.237 7.50867 58.2203 7.96926L59.1857 12.0152L58.5377 12.1698L57.1318 6.27789L57.7689 6.12586L58.0033 7.05987C58.1818 6.28057 58.6523 5.79995 59.4146 5.61804C59.5962 5.57472 59.7452 5.5641 59.8617 5.58618L59.987 6.18362Z" fill="#DD7660"/>
<path d="M62.3581 5.03979L62.5015 6.01485C62.6788 5.62433 62.9228 5.31766 63.2337 5.09486C63.5445 4.87205 63.9037 4.7354 64.3111 4.6849C65.2593 4.56738 65.9094 4.88168 66.2613 5.62782C66.4298 5.2271 66.6813 4.90447 67.0158 4.65993C67.3498 4.41169 67.7335 4.26071 68.1668 4.207C69.4558 4.04724 70.2004 4.66949 70.4008 6.07374L70.898 10.085L70.2313 10.1677L69.7403 6.20638C69.67 5.66978 69.504 5.28607 69.2422 5.05527C68.9842 4.824 68.5977 4.74027 68.0829 4.80409C67.606 4.87071 67.2216 5.07632 66.9296 5.42089C66.6371 5.76176 66.4992 6.15117 66.5159 6.58911L67.0089 10.5671L66.3422 10.6497L65.8451 6.63841C65.7775 6.12403 65.6078 5.75583 65.3358 5.53381C65.0671 5.30762 64.6846 5.22529 64.1883 5.2868C63.7697 5.33868 63.4254 5.50359 63.1552 5.78152C62.8846 6.05575 62.7062 6.43702 62.62 6.92531L63.131 11.0477L62.4643 11.1303L61.7192 5.11898L62.3581 5.03979Z" fill="#DD7660"/>
<path d="M76.5841 10.0856C76.5177 9.89496 76.4758 9.61302 76.4586 9.23973C76.2223 9.54486 75.921 9.78069 75.5546 9.94723C75.1919 10.11 74.8072 10.1907 74.4004 10.1891C73.8181 10.1869 73.3467 10.0227 72.9859 9.69658C72.6289 9.3705 72.4513 8.95927 72.4532 8.46289C72.4555 7.87321 72.7017 7.40763 73.192 7.06616C73.686 6.7247 74.3715 6.55566 75.2485 6.55905L76.4634 6.56374L76.466 5.87515C76.4677 5.44222 76.3346 5.10207 76.0669 4.85471C75.8029 4.60363 75.4152 4.47711 74.9039 4.47513C74.4374 4.47333 74.0506 4.59127 73.7437 4.82895C73.4367 5.06663 73.2826 5.35341 73.2813 5.68931L72.6095 5.68112C72.6114 5.19967 72.8369 4.7844 73.2861 4.4353C73.7353 4.08247 74.2865 3.90732 74.9397 3.90984C75.6152 3.91245 76.1464 4.08432 76.5332 4.42544C76.9238 4.76285 77.1235 5.23388 77.1324 5.83854L77.1213 8.70484C77.119 9.2908 77.1789 9.72956 77.301 10.0211L77.3007 10.0883L76.5841 10.0856ZM74.481 9.59599C74.9289 9.59771 75.3287 9.49102 75.6803 9.27591C76.0357 9.06081 76.2943 8.77256 76.4562 8.41116L76.4614 7.07878L75.2633 7.07415C74.5952 7.07904 74.0723 7.20018 73.6944 7.43759C73.3165 7.67126 73.1268 7.99523 73.1252 8.4095C73.1239 8.74913 73.2478 9.03139 73.497 9.25629C73.75 9.4812 74.078 9.59443 74.481 9.59599Z" fill="#DD7660"/>
<path d="M80.7412 2.69535L80.6157 4.241L81.8656 4.34246L81.8212 4.88929L80.5713 4.78783L80.2447 8.81097C80.2176 9.14577 80.2568 9.39984 80.3626 9.57318C80.4721 9.74682 80.6682 9.84512 80.9509 9.86807C81.0625 9.87713 81.2444 9.87317 81.4967 9.85621L81.4802 10.4053C81.3002 10.4544 81.0596 10.4666 80.7582 10.4422C80.3007 10.405 79.9785 10.246 79.7916 9.96493C79.605 9.68018 79.5327 9.27927 79.5747 8.7622L79.9017 4.73348L78.7913 4.64334L78.8357 4.0965L79.9461 4.18664L80.0716 2.641L80.7412 2.69535Z" fill="#DD7660"/>
<path d="M83.7381 10.6619L83.0724 10.5716L83.8867 4.56921L84.5524 4.65952L83.7381 10.6619ZM84.0058 2.81705C84.0228 2.6913 84.0778 2.59142 84.1707 2.5174C84.2641 2.43968 84.3811 2.41035 84.5216 2.42941C84.6621 2.44848 84.7671 2.50791 84.8364 2.60771C84.9099 2.70431 84.9381 2.81548 84.9211 2.94122C84.904 3.06697 84.8472 3.1666 84.7506 3.24012C84.6577 3.31414 84.541 3.34162 84.4004 3.32256C84.2599 3.30349 84.1547 3.24591 84.0849 3.14981C84.0151 3.05371 83.9887 2.94279 84.0058 2.81705Z" fill="#DD7660"/>
<path d="M86.3619 7.84684C86.4819 7.27711 86.6996 6.78706 87.0148 6.3767C87.3337 5.96711 87.7206 5.67862 88.1754 5.51123C88.6346 5.34095 89.1199 5.30966 89.6312 5.41734C90.42 5.58347 91.0007 5.99563 91.3732 6.65381C91.7464 7.30834 91.8369 8.09211 91.6446 9.00514L91.6158 9.14209C91.495 9.71547 91.2748 10.2088 90.9551 10.622C90.6398 11.0324 90.2552 11.3194 89.8011 11.4832C89.3471 11.6469 88.8626 11.6746 88.3477 11.5661C87.5625 11.4007 86.9814 10.9904 86.6045 10.3351C86.2321 9.67693 86.142 8.89133 86.3343 7.97831L86.3619 7.84684ZM86.9812 8.16606C86.832 8.87456 86.892 9.49553 87.161 10.029C87.4345 10.5595 87.8689 10.8874 88.4642 11.0128C89.0558 11.1374 89.5819 11.0117 90.0425 10.6358C90.5075 10.257 90.8185 9.69504 90.9754 8.95002L91.0019 8.82402C91.0973 8.37116 91.1006 7.93896 91.0118 7.52741C90.923 7.11587 90.7486 6.77592 90.4886 6.50756C90.2293 6.23556 89.9043 6.0584 89.5135 5.97611C88.9292 5.85305 88.4041 5.98275 87.9383 6.36524C87.4733 6.74406 87.1628 7.30416 87.0066 8.04554L86.9812 8.16606Z" fill="#DD7660"/>
<path d="M94.3719 6.67113L94.0848 7.66647C94.4133 7.37801 94.7685 7.19174 95.1506 7.10766C95.5337 7.02001 95.9212 7.03733 96.3131 7.15963C96.933 7.35309 97.3399 7.67164 97.5338 8.1153C97.7277 8.55895 97.7175 9.13048 97.5031 9.82989L96.319 13.6242L95.6831 13.4258L96.8688 9.62609C97.0265 9.10838 97.0361 8.68914 96.8977 8.36836C96.7629 8.0487 96.4585 7.81493 95.9847 7.66706C95.5892 7.54364 95.1994 7.55883 94.8152 7.7126C94.4356 7.86393 94.1072 8.127 93.8299 8.50182L92.5942 12.4618L91.9582 12.2634L93.7627 6.48101L94.3719 6.67113Z" fill="#DD7660"/>
<path d="M104.376 17.0699C104.398 16.8692 104.482 16.5967 104.627 16.2523C104.282 16.4261 103.909 16.5094 103.506 16.5021C103.109 16.4931 102.727 16.4003 102.36 16.2239C101.836 15.9714 101.481 15.6204 101.295 15.1708C101.113 14.7229 101.13 14.2752 101.345 13.828C101.601 13.2966 102.023 12.9823 102.613 12.8849C103.206 12.7891 103.897 12.9314 104.687 13.3118L105.782 13.8386L106.081 13.2182C106.269 12.828 106.295 12.4638 106.159 12.1253C106.029 11.785 105.734 11.504 105.273 11.2823C104.852 11.08 104.453 11.0201 104.073 11.1026C103.694 11.1851 103.431 11.3777 103.286 11.6804L102.683 11.384C102.892 10.9502 103.274 10.6723 103.83 10.5504C104.387 10.4251 104.96 10.5041 105.548 10.7874C106.157 11.0803 106.563 11.464 106.765 11.9383C106.972 12.411 106.95 12.9221 106.698 13.4718L105.455 16.0545C105.201 16.5825 105.066 17.0044 105.051 17.3201L105.022 17.3806L104.376 17.0699ZM102.688 15.7232C103.092 15.9174 103.499 15.9931 103.909 15.9502C104.322 15.9089 104.679 15.7599 104.981 15.5033L105.559 14.3027L104.479 13.7832C103.874 13.5002 103.35 13.3846 102.907 13.4363C102.465 13.4847 102.154 13.6956 101.975 14.0689C101.827 14.3749 101.818 14.683 101.946 14.9932C102.078 15.3051 102.325 15.5484 102.688 15.7232Z" fill="#DD7660"/>
<path d="M112.222 18.1601C111.733 18.9678 111.166 19.5011 110.52 19.7602C109.876 20.0161 109.253 19.9613 108.649 19.5958C107.928 19.1588 107.544 18.56 107.499 17.7994L107.046 18.4936L106.509 18.1688L110.965 10.8138L111.534 11.159L109.762 14.0847C110.468 13.7401 111.179 13.7844 111.894 14.2175C112.507 14.5887 112.848 15.1163 112.919 15.8002C112.994 16.4829 112.779 17.2408 112.274 18.0739L112.222 18.1601ZM111.708 17.7115C112.122 17.0284 112.309 16.4214 112.268 15.8906C112.229 15.3566 111.969 14.9437 111.487 14.6517C111.12 14.4293 110.754 14.3318 110.388 14.359C110.024 14.3831 109.672 14.5295 109.33 14.7981L107.915 17.1349C107.807 17.9601 108.118 18.5932 108.846 19.034C109.318 19.3202 109.8 19.3568 110.291 19.1438C110.785 18.9327 111.258 18.4553 111.708 17.7115Z" fill="#DD7660"/>
<path d="M113.331 18.7026C113.679 18.2355 114.081 17.8817 114.54 17.6412C115.001 17.4029 115.473 17.303 115.956 17.3415C116.444 17.3793 116.898 17.5542 117.317 17.8662C117.964 18.3475 118.319 18.965 118.381 19.7187C118.446 20.4694 118.199 21.219 117.642 21.9674L117.559 22.0797C117.209 22.5498 116.802 22.9054 116.339 23.1467C115.881 23.3873 115.411 23.4868 114.93 23.4452C114.449 23.4037 113.998 23.2258 113.576 22.9116C112.932 22.4325 112.576 21.8165 112.509 21.0636C112.446 20.3099 112.694 19.5588 113.251 18.8104L113.331 18.7026ZM113.76 19.2519C113.327 19.8327 113.121 20.4217 113.142 21.0187C113.168 21.615 113.425 22.0948 113.913 22.458C114.398 22.819 114.929 22.9253 115.505 22.7769C116.085 22.6278 116.603 22.2478 117.058 21.637L117.135 21.5337C117.411 21.1625 117.595 20.7714 117.687 20.3606C117.779 19.9497 117.763 19.5679 117.639 19.2153C117.518 18.8597 117.297 18.5627 116.976 18.3242C116.497 17.9677 115.966 17.8655 115.383 18.0177C114.802 18.1668 114.285 18.5453 113.833 19.1531L113.76 19.2519Z" fill="#DD7660"/>
<path d="M120.072 27.1865C119.38 27.3512 118.706 27.1372 118.05 26.5443C117.571 26.1116 117.331 25.6442 117.332 25.142C117.336 24.6372 117.581 24.1094 118.068 23.5587L120.71 20.6337L121.204 21.0803L118.619 23.9429C117.846 24.7988 117.806 25.5394 118.498 26.1648C119.218 26.8151 119.943 26.9289 120.672 26.506L123.61 23.2528L124.108 23.703L120.049 28.1985L119.567 27.7632L120.072 27.1865Z" fill="#DD7660"/>
<path d="M127.417 24.8611L126.293 25.9294L127.157 26.8384L126.759 27.2163L125.895 26.3073L122.97 29.088C122.726 29.3194 122.586 29.5349 122.549 29.7346C122.515 29.937 122.596 30.141 122.791 30.3466C122.868 30.4278 123.006 30.5462 123.206 30.7017L122.827 31.0999C122.661 31.0165 122.473 30.8652 122.265 30.6461C121.949 30.3133 121.814 29.9799 121.863 29.6459C121.913 29.3093 122.127 28.9623 122.503 28.6049L125.433 25.8204L124.665 25.0129L125.063 24.6349L125.83 25.4424L126.954 24.3741L127.417 24.8611Z" fill="#DD7660"/>
<path d="M128.905 37.4079C128.195 37.4292 127.578 37.0832 127.055 36.3698C126.673 35.849 126.533 35.3429 126.636 34.8513C126.741 34.3576 127.088 33.8903 127.677 33.4496L130.855 31.1196L131.249 31.6569L128.138 33.9373C127.208 34.6191 127.019 35.3363 127.571 36.0888C128.144 36.8714 128.831 37.1294 129.63 36.8627L133.166 34.2712L133.563 34.813L128.677 38.3941L128.293 37.8704L128.905 37.4079Z" fill="#DD7660"/>
<path d="M132.768 42.0754C133.054 41.9054 133.214 41.6534 133.25 41.3194C133.287 40.9886 133.217 40.5637 133.038 40.0447C132.862 39.5237 132.761 39.0978 132.733 38.7668C132.71 38.4371 132.753 38.1552 132.861 37.9213C132.971 37.6906 133.156 37.4979 133.416 37.3432C133.827 37.0987 134.267 37.0687 134.738 37.2532C135.211 37.4359 135.608 37.7949 135.927 38.3304C136.272 38.9107 136.405 39.4616 136.325 39.983C136.249 40.5057 135.981 40.9046 135.519 41.1797L135.175 40.6025C135.48 40.421 135.657 40.1419 135.706 39.765C135.757 39.3914 135.667 39.0106 135.436 38.6226C135.211 38.2443 134.944 37.9903 134.637 37.8607C134.334 37.7323 134.049 37.7484 133.779 37.9088C133.519 38.0636 133.374 38.2785 133.342 38.5536C133.316 38.83 133.393 39.2553 133.574 39.8294C133.758 40.4067 133.856 40.8605 133.871 41.1908C133.887 41.5243 133.837 41.8083 133.72 42.0429C133.603 42.2774 133.41 42.4749 133.141 42.6354C132.702 42.897 132.245 42.9282 131.77 42.729C131.297 42.5329 130.89 42.1495 130.55 41.5787C130.189 40.9727 130.042 40.3936 130.108 39.8415C130.18 39.2906 130.44 38.8815 130.889 38.614L131.233 39.1912C130.909 39.4142 130.731 39.7119 130.696 40.0843C130.667 40.458 130.78 40.8597 131.036 41.2894C131.275 41.6902 131.556 41.9615 131.879 42.1033C132.203 42.2451 132.499 42.2358 132.768 42.0754Z" fill="#DD7660"/>
<path d="M136.075 57.8379L135.922 57.2933L145.229 54.6953L145.381 55.2399L136.075 57.8379Z" fill="#DD7660"/>
</svg>
