<svg width="145" height="146" viewBox="0 0 145 146" fill="none" xmlns="http://www.w3.org/2000/svg">
<path d="M73.134 9.8896C73.2624 9.13878 73.5224 8.48724 73.9141 7.935C74.3105 7.38358 74.8019 6.98708 75.3881 6.74551C75.9799 6.49994 76.6128 6.43477 77.2866 6.54998C78.3262 6.72773 79.1059 7.23753 79.6257 8.07938C80.1464 8.91641 80.3039 9.93654 80.0982 11.1398L80.0673 11.3203C79.9381 12.0759 79.6749 12.7318 79.2776 13.2881C78.8859 13.8403 78.3974 14.2348 77.812 14.4716C77.2266 14.7083 76.5946 14.7687 75.916 14.6527C74.8812 14.4757 74.1011 13.9683 73.5756 13.1305C73.0557 12.2886 72.8987 11.2661 73.1044 10.0629L73.134 9.8896ZM73.9596 10.276C73.8 11.2097 73.9094 12.0185 74.2878 12.7024C74.6719 13.3823 75.2562 13.7894 76.0407 13.9235C76.8204 14.0568 77.5019 13.8662 78.0852 13.3517C78.6742 12.8332 79.0527 12.083 79.2205 11.1012L79.2489 10.9351C79.351 10.3383 79.3337 9.77313 79.197 9.23954C79.0604 8.70595 78.8154 8.27024 78.462 7.93241C78.1094 7.58977 77.6756 7.37442 77.1607 7.28636C76.3906 7.15469 75.7106 7.35052 75.1208 7.87384C74.5319 8.39234 74.1539 9.14011 73.9868 10.1171L73.9596 10.276Z" fill="black"/>
<path d="M87.4931 8.17088L87.0784 9.46114C87.5193 9.09689 87.9913 8.86733 88.4942 8.77244C88.9986 8.67294 89.5047 8.71089 90.0124 8.88628C90.8154 9.16373 91.3349 9.59636 91.571 10.1842C91.807 10.772 91.771 11.519 91.4631 12.4251L89.765 17.3402L88.9412 17.0556L90.6417 12.1336C90.8683 11.4628 90.8975 10.9149 90.7291 10.49C90.5654 10.0667 90.1767 9.74895 89.5629 9.53688C89.0506 9.35989 88.5402 9.36436 88.0317 9.55029C87.5294 9.7332 87.0895 10.0643 86.7122 10.5435L84.9399 15.6732L84.1161 15.3886L86.704 7.89821L87.4931 8.17088Z" fill="black"/>
<path d="M93.9954 18.7683L93.1979 18.399L97.9254 8.19051L98.7229 8.55985L93.9954 18.7683Z" fill="black"/>
<path d="M100.891 20.5322L106.437 16.1717L107.233 16.6818L99.378 22.6597L99.0086 22.91C98.1235 23.4851 97.2987 23.5274 96.5342 23.0371C96.3575 22.9237 96.1869 22.7737 96.0224 22.587L96.4077 21.9727L96.7662 22.2548C97.1279 22.4868 97.4777 22.5836 97.8157 22.5451C98.1551 22.5134 98.5426 22.3298 98.9782 21.9943L99.8823 21.3038L101.61 13.0754L102.418 13.5934L100.891 20.5322Z" fill="black"/>
<path d="M116.193 22.8746L115.221 23.8187C115.781 23.7043 116.306 23.7234 116.794 23.8759C117.286 24.0251 117.715 24.2963 118.081 24.6897C118.659 25.3118 118.915 25.9378 118.847 26.5676C118.779 27.1974 118.396 27.84 117.699 28.4952L113.891 32.0363L113.297 31.398L117.111 27.852C117.626 27.3663 117.909 26.8963 117.96 26.4421C118.014 25.9915 117.821 25.5284 117.378 25.0528C117.009 24.6559 116.557 24.42 116.02 24.3453C115.491 24.2707 114.947 24.3564 114.389 24.6021L110.414 28.2978L109.821 27.6595L115.624 22.2631L116.193 22.8746Z" fill="black"/>
<path d="M119.3 38.2934C119.458 38.082 119.734 37.8306 120.126 37.5392C119.623 37.5056 119.146 37.3509 118.698 37.0749C118.256 36.8003 117.888 36.4417 117.592 35.999C117.169 35.3655 117.003 34.7339 117.093 34.1041C117.186 33.4784 117.503 32.9852 118.043 32.6246C118.685 32.1963 119.37 32.1234 120.099 32.4059C120.83 32.6925 121.514 33.313 122.152 34.2673L123.034 35.5892L123.783 35.089C124.254 34.7745 124.526 34.3816 124.599 33.9102C124.679 33.4403 124.533 32.9271 124.161 32.3707C123.822 31.8631 123.412 31.5296 122.93 31.3701C122.447 31.2106 122.024 31.2529 121.658 31.4969L121.176 30.7618C121.7 30.4121 122.316 30.3534 123.023 30.5859C123.734 30.8157 124.327 31.2859 124.801 31.9965C125.292 32.7316 125.493 33.4336 125.406 34.1027C125.325 34.7731 124.96 35.334 124.31 35.7854L121.191 37.8676C120.553 38.2932 120.121 38.6788 119.894 39.0243L119.821 39.0731L119.3 38.2934ZM118.295 35.6532C118.62 36.1405 119.028 36.4964 119.518 36.7209C120.012 36.9495 120.513 37.0196 121.024 36.9312L122.474 35.9633L121.603 34.6597C121.11 33.9383 120.596 33.4592 120.063 33.2225C119.533 32.9832 119.043 33.014 118.592 33.3149C118.222 33.5616 118.007 33.9024 117.945 34.3371C117.885 34.7759 118.002 35.2146 118.295 35.6532Z" fill="black"/>
<path d="M131.4 38.5395L129.596 39.4665L130.345 40.9258L129.707 41.2538L128.957 39.7944L124.26 42.2072C123.869 42.408 123.614 42.627 123.494 42.8642C123.376 43.1056 123.402 43.3914 123.572 43.7215C123.639 43.8518 123.769 44.0513 123.962 44.32L123.34 44.6806C123.161 44.5143 122.982 44.2553 122.801 43.9035C122.526 43.3693 122.481 42.9014 122.664 42.4997C122.852 42.0959 123.248 41.7389 123.852 41.4288L128.555 39.0126L127.89 37.7161L128.528 37.3882L129.194 38.6847L130.999 37.7577L131.4 38.5395Z" fill="black"/>
<path d="M127.8 51.7664C126.907 51.5048 126.28 50.8243 125.919 49.7249C125.655 48.9225 125.686 48.2362 126.013 47.6663C126.344 47.0948 126.965 46.6542 127.876 46.3446L132.775 44.7344L133.047 45.5624L128.253 47.1383C126.819 47.6094 126.293 48.4248 126.674 49.5845C127.071 50.7905 127.82 51.3897 128.923 51.3819L134.371 49.5911L134.645 50.426L127.117 52.9007L126.852 52.0936L127.8 51.7664Z" fill="black"/>
<path d="M136.153 58.2863C136.149 58.0977 136.126 57.9006 136.084 57.6949C135.973 57.1594 135.728 56.7362 135.35 56.4255C134.978 56.1186 134.49 55.945 133.889 55.9047L128.559 57.0059L128.383 56.1523L136.144 54.5488L136.317 55.388L135.087 55.6572C136.099 55.9218 136.708 56.5562 136.916 57.5604C136.965 57.7995 136.973 57.9948 136.94 58.1463L136.153 58.2863Z" fill="black"/>
<path d="M130.377 67.2122C130.621 67.112 130.986 67.0374 131.473 66.9885C131.057 66.7014 130.728 66.3243 130.485 65.8575C130.246 65.3952 130.114 64.8983 130.087 64.3667C130.049 63.606 130.23 62.9784 130.63 62.4841C131.031 61.9946 131.556 61.7336 132.205 61.701C132.975 61.6623 133.601 61.9512 134.081 62.5675C134.562 63.1887 134.832 64.0723 134.889 65.2183L134.969 66.8057L135.869 66.7605C136.434 66.7321 136.869 66.5342 137.173 66.167C137.483 65.8043 137.621 65.2889 137.587 64.6208C137.557 64.0113 137.375 63.5143 137.043 63.1301C136.711 62.7459 136.325 62.5648 135.886 62.5869L135.85 61.7087C136.479 61.6771 137.037 61.9424 137.525 62.5046C138.018 63.0665 138.285 63.7742 138.328 64.6276C138.373 65.5103 138.186 66.2164 137.767 66.7458C137.354 67.2799 136.753 67.5741 135.964 67.6284L132.218 67.8164C131.453 67.8549 130.884 67.9641 130.511 68.1441L130.424 68.1485L130.377 67.2122ZM130.868 64.4302C130.897 65.0154 131.065 65.5301 131.37 65.9743C131.676 66.4234 132.071 66.7409 132.555 66.9269L134.296 66.8394L134.217 65.274C134.164 64.4016 133.968 63.7269 133.632 63.2501C133.3 62.773 132.863 62.548 132.322 62.5752C131.878 62.5974 131.518 62.7793 131.242 63.1207C130.966 63.467 130.841 63.9035 130.868 64.4302Z" fill="black"/>
<path d="M130.661 72.917L130.709 72.0394L141.942 72.6468L141.895 73.5244L130.661 72.917Z" fill="black"/>
<path d="M130.753 87.8957C131.168 88.0252 131.553 87.9614 131.91 87.7043C132.265 87.4519 132.617 87.0119 132.966 86.3844C133.32 85.7583 133.646 85.2871 133.944 84.971C134.246 84.6609 134.558 84.4565 134.88 84.3576C135.201 84.2634 135.55 84.2752 135.928 84.393C136.524 84.5792 136.938 84.982 137.17 85.6015C137.405 86.2224 137.402 86.9221 137.159 87.7005C136.896 88.5442 136.475 89.1546 135.897 89.5317C135.322 89.915 134.699 90.0019 134.028 89.7924L134.29 88.9534C134.733 89.0916 135.159 89.0201 135.569 88.7388C135.978 88.4622 136.27 88.0419 136.446 87.4779C136.617 86.9279 136.632 86.4466 136.49 86.0339C136.351 85.6273 136.085 85.3629 135.694 85.2407C135.316 85.1229 134.98 85.1688 134.684 85.3783C134.392 85.594 134.045 86.0408 133.644 86.7188C133.242 87.4014 132.886 87.894 132.577 88.1965C132.266 88.5036 131.946 88.7028 131.616 88.7941C131.285 88.8854 130.925 88.87 130.533 88.7478C129.894 88.5485 129.465 88.1305 129.244 87.4939C129.022 86.8619 129.04 86.1311 129.299 85.3014C129.574 84.4204 130.009 83.7711 130.605 83.3535C131.204 82.9419 131.83 82.838 132.482 83.0416L132.221 83.8806C131.721 83.7605 131.275 83.8464 130.882 84.1381C130.492 84.4359 130.2 84.8972 130.005 85.5217C129.823 86.1044 129.805 86.6152 129.949 87.0541C130.093 87.493 130.361 87.7735 130.753 87.8957Z" fill="black"/>
<path d="M131.948 93.1842C132.624 93.5347 133.166 93.9805 133.573 94.5215C133.978 95.0668 134.206 95.6554 134.258 96.2873C134.312 96.9258 134.182 97.5485 133.867 98.1554C133.382 99.0918 132.659 99.6796 131.699 99.9189C130.743 100.161 129.723 100 128.64 99.4387L128.477 99.3544C127.797 99.0016 127.252 98.5515 126.843 98.0039C126.435 97.4629 126.208 96.8776 126.161 96.2479C126.113 95.6183 126.248 94.9978 126.564 94.3866C127.048 93.4545 127.768 92.8656 128.726 92.6196C129.686 92.3803 130.708 92.5415 131.792 93.1033L131.948 93.1842ZM131.329 93.8533C130.488 93.4173 129.684 93.2757 128.917 93.4283C128.153 93.5875 127.587 94.0204 127.221 94.727C126.857 95.4293 126.832 96.1365 127.144 96.8486C127.459 97.5674 128.059 98.1559 128.943 98.6143L129.093 98.6918C129.63 98.9705 130.174 99.1258 130.724 99.1579C131.274 99.1899 131.763 99.0889 132.193 98.8549C132.626 98.6232 132.963 98.2754 133.204 97.8116C133.563 97.118 133.583 96.4107 133.264 95.6897C132.949 94.971 132.352 94.3836 131.472 93.9274L131.329 93.8533Z" fill="black"/>
<path d="M123.253 103.846L127.303 109.624L126.75 110.39L121.212 102.219L120.983 101.836C120.457 100.921 120.46 100.095 120.991 99.3587C121.114 99.1885 121.274 99.0264 121.469 98.8724L122.061 99.2908L121.76 99.6333C121.508 99.9817 121.392 100.326 121.412 100.665C121.425 101.006 121.587 101.403 121.899 101.856L122.538 102.797L130.66 104.974L130.098 105.752L123.253 103.846Z" fill="black"/>
<path d="M115.853 115.16L115.34 114.692L115.628 115.373L117.721 121.375L117.122 121.821L112.021 118.121L111.358 117.574L111.682 118.291L114.008 124.139L113.279 124.681L110.398 116.946L110.998 116.5L116.383 120.326L116.717 120.615L116.531 120.206L114.388 113.977L114.987 113.531L121.564 118.515L120.841 119.053L115.853 115.16Z" fill="black"/>
<path d="M101.522 123.14C101.714 123.321 101.933 123.623 102.178 124.046C102.268 123.55 102.476 123.094 102.802 122.68C103.125 122.273 103.523 121.947 103.996 121.704C104.674 121.356 105.32 121.263 105.936 121.424C106.547 121.588 107.001 121.959 107.297 122.536C107.65 123.223 107.644 123.912 107.281 124.604C106.913 125.298 106.218 125.907 105.198 126.431L103.784 127.157L104.195 127.959C104.454 128.462 104.814 128.777 105.274 128.903C105.731 129.036 106.258 128.949 106.853 128.644C107.396 128.365 107.774 127.995 107.987 127.534C108.201 127.073 108.207 126.647 108.006 126.256L108.791 125.861C109.079 126.422 109.067 127.04 108.756 127.716C108.447 128.396 107.912 128.932 107.152 129.322C106.366 129.726 105.645 129.846 104.99 129.683C104.334 129.526 103.818 129.099 103.444 128.402L101.73 125.067C101.38 124.385 101.046 123.911 100.729 123.646L100.689 123.568L101.522 123.14ZM104.26 122.442C103.739 122.709 103.339 123.074 103.06 123.536C102.777 124 102.65 124.49 102.679 125.007L103.476 126.558L104.87 125.842C105.643 125.434 106.178 124.978 106.473 124.475C106.772 123.976 106.797 123.485 106.549 123.003C106.346 122.608 106.032 122.355 105.607 122.244C105.178 122.135 104.729 122.201 104.26 122.442Z" fill="black"/>
<path d="M97.0375 130.797L95.9959 134.515L95.0066 134.836L96.3628 130.307L92.4488 127.335L93.4311 127.016L96.6123 129.51L97.7225 125.623L98.7048 125.304L97.2893 130.006L101.047 132.876L100.064 133.195L97.0375 130.797Z" fill="black"/>
<path d="M80.9486 130.995C80.3393 131.03 79.8398 131.23 79.4501 131.595C79.0558 131.965 78.8574 132.424 78.8549 132.972L78.014 133.021C78.0104 132.537 78.136 132.087 78.3907 131.671C78.6456 131.26 78.9982 130.929 79.4483 130.678C79.8935 130.427 80.3793 130.287 80.9058 130.256C81.9441 130.196 82.7888 130.509 83.44 131.195C84.0862 131.882 84.4446 132.834 84.5153 134.053L84.5305 134.316C84.5757 135.096 84.4792 135.794 84.2409 136.409C84.0027 137.024 83.6396 137.51 83.1515 137.866C82.6586 138.222 82.0709 138.42 81.3885 138.46C80.5208 138.51 79.7917 138.293 79.2012 137.809C78.6058 137.325 78.2641 136.662 78.1763 135.821L79.0172 135.773C79.092 136.39 79.3452 136.876 79.7767 137.233C80.2033 137.589 80.7262 137.75 81.3453 137.714C82.135 137.668 82.7326 137.348 83.1383 136.752C83.5391 136.156 83.7097 135.344 83.6501 134.316L83.6353 134.06C83.5768 133.051 83.3143 132.276 82.8477 131.736C82.3762 131.196 81.7432 130.949 80.9486 130.995Z" fill="black"/>
<path d="M69.5584 130.779C69.6209 131.036 69.6399 131.408 69.6153 131.897C69.9615 131.529 70.3836 131.26 70.8817 131.089C71.3745 130.923 71.8856 130.866 72.4152 130.92C73.1731 130.996 73.7664 131.269 74.1951 131.739C74.619 132.209 74.7985 132.766 74.7335 133.413C74.6563 134.18 74.277 134.755 73.5956 135.138C72.9093 135.521 71.9953 135.655 70.8536 135.54L69.2723 135.381L69.1821 136.277C69.1254 136.841 69.2558 137.3 69.5734 137.656C69.8856 138.016 70.3745 138.23 71.0401 138.297C71.6474 138.358 72.1658 138.253 72.5955 137.982C73.0251 137.711 73.262 137.357 73.3059 136.92L74.1797 137.015C74.1167 137.642 73.7707 138.154 73.1417 138.553C72.5123 138.955 71.7725 139.114 70.9223 139.029C70.043 138.94 69.3729 138.649 68.9121 138.157C68.446 137.668 68.2452 137.029 68.3098 136.241L68.6851 132.51C68.7618 131.747 68.739 131.168 68.6168 130.773L68.6256 130.686L69.5584 130.779ZM72.2355 131.682C71.6525 131.623 71.1185 131.712 70.6334 131.948C70.1436 132.183 69.7705 132.526 69.5142 132.976L69.3397 134.71L70.8992 134.867C71.7698 134.945 72.4661 134.853 72.9881 134.591C73.5095 134.335 73.7974 133.937 73.8516 133.397C73.8961 132.955 73.7703 132.572 73.4741 132.248C73.173 131.923 72.7602 131.735 72.2355 131.682Z" fill="black"/>
<path d="M62.3412 138.302L62.6623 136.985C62.2486 137.38 61.7944 137.643 61.2996 137.773C60.8035 137.909 60.296 137.907 59.7771 137.769C58.9562 137.55 58.407 137.155 58.1294 136.586C57.8518 136.017 57.8341 135.269 58.0762 134.343L59.4173 129.319L60.2594 129.544L58.9164 134.575C58.7385 135.26 58.7488 135.809 58.9471 136.221C59.1408 136.631 59.5513 136.92 60.1788 137.088C60.7024 137.227 61.2112 137.186 61.7051 136.964C62.1929 136.746 62.6079 136.384 62.9499 135.879L64.3496 130.635L65.1917 130.86L63.1479 138.517L62.3412 138.302Z" fill="black"/>
<path d="M54.8713 132.966C54.3542 134.082 53.6947 134.856 52.8927 135.286C52.0843 135.719 51.2525 135.737 50.3974 135.341C49.427 134.892 48.8646 134.166 48.71 133.163L46.8418 137.198L46.0509 136.831L50.7784 126.623L51.5228 126.968L51.1128 127.94C51.9588 127.449 52.8759 127.433 53.8639 127.89C54.6925 128.274 55.2076 128.916 55.4094 129.817C55.6047 130.72 55.4397 131.738 54.9144 132.873L54.8713 132.966ZM54.1318 132.454C54.5565 131.537 54.7081 130.727 54.5866 130.025C54.463 129.327 54.0667 128.824 53.3976 128.514C52.4184 128.06 51.5227 128.17 50.7106 128.843L49.147 132.22C49.1262 133.345 49.6009 134.133 50.5712 134.582C51.2403 134.892 51.883 134.87 52.4993 134.515C53.1136 134.164 53.6578 133.477 54.1318 132.454Z" fill="black"/>
<path d="M45.8276 124.371L46.5826 124.821L40.825 134.486L40.0699 134.036L45.8276 124.371Z" fill="black"/>
<path d="M39.4595 120.469C39.9788 120.899 40.3434 121.416 40.5533 122.02C40.7594 122.621 40.7909 123.246 40.6478 123.894C40.5015 124.546 40.1934 125.156 39.7236 125.725L39.5229 125.967C39.0376 126.554 38.4875 126.99 37.8728 127.274C37.2543 127.554 36.6314 127.66 36.0041 127.591C35.3737 127.526 34.8214 127.297 34.3472 126.905C33.6059 126.293 33.2289 125.553 33.2161 124.687C33.1965 123.822 33.5492 122.951 34.2742 122.074L34.5869 121.696L38.9446 125.299L39.0519 125.169C39.6244 124.477 39.9044 123.736 39.892 122.946C39.8727 122.157 39.562 121.514 38.9599 121.016C38.5986 120.718 38.2262 120.52 37.8426 120.425C37.4552 120.327 37.0289 120.329 36.5635 120.432L36.4062 119.76C37.4972 119.452 38.5149 119.688 39.4595 120.469ZM34.8233 126.33C35.3313 126.75 35.9143 126.918 36.5723 126.835C37.2265 126.749 37.8511 126.422 38.4459 125.856L34.7825 122.827L34.7219 122.901C34.2553 123.503 34.0276 124.12 34.0388 124.75C34.05 125.38 34.3115 125.907 34.8233 126.33Z" fill="black"/>
<path d="M29.7227 114.918C29.397 115.206 29.2517 115.568 29.2869 116.006C29.3188 116.441 29.5127 116.97 29.8684 117.594C30.2205 118.221 30.4546 118.744 30.5705 119.163C30.6795 119.581 30.6928 119.954 30.6103 120.281C30.5246 120.604 30.3335 120.897 30.0371 121.159C29.5687 121.573 29.0097 121.718 28.3601 121.595C27.7068 121.475 27.1102 121.109 26.5703 120.498C25.9851 119.836 25.681 119.16 25.658 118.47C25.628 117.78 25.8765 117.202 26.4034 116.736L26.9854 117.395C26.6377 117.702 26.478 118.104 26.5061 118.6C26.5309 119.093 26.739 119.561 27.1301 120.003C27.5116 120.435 27.9157 120.697 28.3424 120.789C28.7622 120.881 29.1258 120.791 29.4332 120.519C29.7296 120.258 29.8648 119.946 29.8387 119.585C29.8057 119.223 29.6032 118.695 29.231 118.001C28.8556 117.303 28.6186 116.743 28.5202 116.322C28.4185 115.897 28.4141 115.52 28.5072 115.19C28.6002 114.86 28.8004 114.56 29.1078 114.288C29.6091 113.845 30.1892 113.694 30.8481 113.835C31.5038 113.973 32.1194 114.367 32.6949 115.019C33.3059 115.71 33.6356 116.419 33.6841 117.145C33.7257 117.871 33.4904 118.46 32.9781 118.912L32.3961 118.254C32.7577 117.889 32.9156 117.462 32.8696 116.975C32.8167 116.488 32.5737 115.999 32.1405 115.508C31.7364 115.051 31.3092 114.77 30.859 114.666C30.4088 114.562 30.03 114.646 29.7227 114.918Z" fill="black"/>
<path d="M16.224 109.282L17.4076 108.77C16.8541 108.679 16.3839 108.474 15.997 108.157C15.6102 107.839 15.3159 107.432 15.114 106.934C14.6444 105.776 14.8214 104.848 15.645 104.15C15.0816 104.073 14.5887 103.865 14.1664 103.525C13.7396 103.187 13.4188 102.753 13.2042 102.224C12.5657 100.649 13.0998 99.4971 14.8065 98.7683L19.7071 96.7813L20.0373 97.5958L15.1978 99.558C14.5435 99.8285 14.1149 100.168 13.9118 100.577C13.707 100.982 13.7321 101.498 13.9871 102.127C14.2328 102.707 14.6229 103.124 15.1572 103.376C15.687 103.63 16.2258 103.672 16.7736 103.503L21.6335 101.533L21.9637 102.347L17.0631 104.334C16.436 104.594 16.0282 104.933 15.8397 105.352C15.6449 105.768 15.6704 106.279 15.9163 106.886C16.1236 107.397 16.4486 107.776 16.8913 108.023C17.3296 108.273 17.8718 108.369 18.518 108.312L23.5544 106.27L23.8846 107.085L16.5405 110.062L16.224 109.282Z" fill="black"/>
<path d="M16.57 88.2077C16.3454 88.3468 15.9973 88.4803 15.5255 88.6085C15.9823 88.8235 16.3692 89.1413 16.686 89.5618C16.997 89.9787 17.2094 90.4471 17.323 90.967C17.4857 91.7112 17.4101 92.3599 17.0962 92.9134C16.7813 93.462 16.3066 93.8057 15.6722 93.9444C14.9185 94.1091 14.2539 93.927 13.6785 93.398C13.102 92.8643 12.6912 92.0369 12.4462 90.9159L12.1068 89.3632L11.2267 89.5556C10.6734 89.6765 10.2768 89.9432 10.0371 90.3554C9.7915 90.764 9.74013 91.295 9.88298 91.9485C10.0133 92.5448 10.2739 93.0051 10.6647 93.3296C11.0555 93.654 11.4655 93.7693 11.8948 93.6754L12.0754 94.5356C11.46 94.6701 10.8656 94.5002 10.292 94.0258C9.71376 93.5524 9.33338 92.8983 9.15091 92.0635C8.96219 91.2001 9.03065 90.4729 9.3563 89.882C9.67614 89.2873 10.2209 88.8983 10.9905 88.7151L14.654 87.9143C15.4029 87.7506 15.9462 87.5494 16.2839 87.3106L16.3698 87.2919L16.57 88.2077ZM16.5427 91.0326C16.4175 90.4602 16.1676 89.98 15.793 89.5921C15.4172 89.1994 14.9756 88.9511 14.4681 88.8471L12.7651 89.2193L13.0998 90.7506C13.296 91.6023 13.5994 92.2358 14.01 92.6508C14.4158 93.0669 14.8835 93.2171 15.413 93.1014C15.847 93.0065 16.1723 92.768 16.3886 92.3858C16.6039 91.9989 16.6553 91.5478 16.5427 91.0326Z" fill="black"/>
<path d="M10.998 84.7609C9.76862 84.8132 8.77889 84.5815 8.0288 84.066C7.27363 83.5458 6.87604 82.815 6.83605 81.8734C6.79067 80.8051 7.17804 79.9725 7.99818 79.3756L3.55638 79.5643L3.5194 78.6935L14.7593 78.216L14.7941 79.0356L13.7419 79.117C14.5658 79.644 15.0008 80.4515 15.047 81.5393C15.0858 82.4516 14.7512 83.2038 14.0433 83.7959C13.3302 84.3833 12.3493 84.7036 11.1004 84.7566L10.998 84.7609ZM11.114 83.869C12.1239 83.8261 12.9129 83.5898 13.4811 83.16C14.0444 82.7304 14.3105 82.1473 14.2792 81.4107C14.2334 80.3325 13.7252 79.5868 12.7546 79.1736L9.03728 79.3315C8.02721 79.8289 7.54486 80.6118 7.59024 81.6801C7.62153 82.4168 7.93614 82.9777 8.53408 83.3628C9.12714 83.7481 9.98713 83.9169 11.114 83.869Z" fill="black"/>
<path d="M14.5476 70.7801C14.4673 71.4491 14.2297 72.0353 13.8349 72.5387C13.4406 73.0373 12.9321 73.4017 12.3094 73.6318C11.6819 73.8614 11.0021 73.9322 10.27 73.8444L9.95735 73.8068C9.20106 73.716 8.53737 73.4888 7.96629 73.1252C7.39579 72.7567 6.96987 72.29 6.68851 71.7251C6.40231 71.1596 6.29587 70.5715 6.3692 69.9606C6.48385 69.0056 6.90188 68.2886 7.62329 67.8096C8.34043 67.3252 9.2638 67.1508 10.3934 67.2864L10.8806 67.3449L10.2067 72.9589L10.3739 72.979C11.266 73.0861 12.0407 72.9209 12.6981 72.4834C13.3512 72.0405 13.7244 71.4313 13.8175 70.6556C13.8734 70.1902 13.8377 69.7703 13.7105 69.3961C13.5839 69.0169 13.3514 68.6595 13.013 68.3238L13.493 67.8282C14.3421 68.5793 14.6937 69.5633 14.5476 70.7801ZM7.11095 70.0497C7.03238 70.7041 7.20601 71.2856 7.63184 71.7941C8.05825 72.2977 8.67044 72.6466 9.46842 72.8408L10.035 68.1212L9.94044 68.1099C9.18124 68.0433 8.53965 68.1852 8.01566 68.5354C7.49167 68.8856 7.1901 69.3903 7.11095 70.0497Z" fill="black"/>
<path d="M14.1969 56.4644L14.8704 56.631L14.2929 56.1699L9.59015 51.8935L9.90408 51.2156L16.1516 52.0344L16.9954 52.1992L16.3684 51.7231L11.5353 47.6931L11.917 46.869L18.1386 52.2927L17.8247 52.9706L11.2666 52.1775L10.8345 52.0823L11.1933 52.3534L16.0488 56.8054L15.7348 57.4833L7.57727 56.2401L7.95584 55.4226L14.1969 56.4644Z" fill="black"/>
<path d="M21.05 45.9189L20.5974 46.6723L13.804 42.5914L14.2566 41.838L21.05 45.9189ZM11.7597 41.5428C11.6174 41.4573 11.5257 41.3396 11.4848 41.1897C11.4396 41.0373 11.4648 40.8815 11.5604 40.7225C11.6559 40.5634 11.7816 40.468 11.9374 40.4363C12.0915 40.3978 12.2397 40.4214 12.382 40.5068C12.5243 40.5923 12.6147 40.7121 12.6531 40.8662C12.6941 41.0161 12.6668 41.1706 12.5712 41.3297C12.4757 41.4887 12.3521 41.5854 12.2005 41.6196C12.0489 41.6539 11.902 41.6283 11.7597 41.5428Z" fill="black"/>
<path d="M16.1094 34.7763L17.7235 36.0054L18.7174 34.7001L19.2885 35.135L18.2946 36.4403L22.496 39.6394C22.8456 39.9057 23.1532 40.0417 23.4188 40.0475C23.6873 40.0495 23.934 39.9029 24.1588 39.6076C24.2476 39.4911 24.3716 39.2879 24.531 38.998L25.1242 39.4037C25.0512 39.6366 24.8949 39.9104 24.6553 40.225C24.2915 40.7029 23.8888 40.9455 23.4474 40.9531C23.002 40.9576 22.5093 40.7543 21.9693 40.3431L17.7621 37.1395L16.8791 38.2991L16.3081 37.8643L17.1911 36.7047L15.5769 35.4756L16.1094 34.7763Z" fill="black"/>
<path d="M22.6354 31.2289C22.514 30.688 22.5252 30.1685 22.6689 29.6704C22.8126 29.1723 23.076 28.7385 23.4592 28.369C24.0707 27.7793 24.692 27.5126 25.3229 27.5689C25.9538 27.6253 26.6032 27.9962 27.271 28.6818L30.8807 32.425L30.2533 33.03L26.6386 29.2815C26.1436 28.7752 25.6686 28.5007 25.2135 28.4579C24.762 28.4117 24.3025 28.614 23.835 29.0648C23.4449 29.441 23.2173 29.8979 23.1523 30.4354C23.0874 30.966 23.1828 31.5082 23.4387 32.0619L27.206 35.9686L26.5786 36.5736L18.7695 28.4755L19.3968 27.8705L22.6354 31.2289Z" fill="black"/>
<path d="M38.4979 25.7333L37.7582 26.2078L31.6842 16.7384L32.424 16.2639L38.4979 25.7333Z" fill="black"/>
<path d="M39.6483 19.3322C39.349 18.6318 39.2141 17.9434 39.2436 17.267C39.2776 16.5887 39.4754 15.9891 39.8369 15.4682C40.2009 14.9409 40.6973 14.5429 41.3259 14.2743C42.2957 13.8598 43.2273 13.8652 44.1206 14.2906C45.012 14.7114 45.6976 15.4831 46.1773 16.6056L46.2492 16.774C46.5505 17.4789 46.6851 18.1728 46.653 18.8555C46.6234 19.5319 46.427 20.1283 46.0636 20.6447C45.7001 21.1611 45.2019 21.5546 44.5688 21.8251C43.6035 22.2377 42.6728 22.2345 41.777 21.8156C40.8836 21.3902 40.1971 20.6163 39.7174 19.4938L39.6483 19.3322ZM40.5515 19.209C40.9237 20.0801 41.4543 20.7003 42.1432 21.0697C42.8346 21.4326 43.5462 21.4577 44.2781 21.1449C45.0055 20.8341 45.4747 20.3043 45.6857 19.5557C45.8994 18.8006 45.8104 17.9651 45.419 17.0492L45.3528 16.8942C45.1149 16.3375 44.7938 15.872 44.3896 15.4978C43.9854 15.1236 43.5433 14.8904 43.0631 14.7983C42.5811 14.7016 42.0999 14.7559 41.6194 14.9613C40.901 15.2683 40.436 15.8016 40.2243 16.5611C40.0107 17.3162 40.0986 18.1494 40.4882 19.0609L40.5515 19.209Z" fill="black"/>
<path d="M53.0982 16.6719L53.7212 9.56365L54.5925 9.33462L53.7454 17.7513L53.0583 17.9319L48.1677 11.0235L49.0389 10.7944L53.0982 16.6719Z" fill="black"/>
<path d="M61.9278 15.7075C61.2574 15.7749 60.6335 15.6708 60.0561 15.3952C59.4836 15.119 59.0172 14.7022 58.6569 14.1446C58.296 13.5822 58.0787 12.9342 58.0049 12.2006L57.9734 11.8873C57.8972 11.1294 57.9743 10.4321 58.2047 9.7955C58.44 9.1584 58.8026 8.641 59.2926 8.24328C59.7821 7.84071 60.3329 7.60864 60.9451 7.54706C61.9022 7.4508 62.693 7.7025 63.3177 8.30217C63.9468 8.8965 64.3182 9.75966 64.4321 10.8916L64.4812 11.3799L58.8553 11.9458L58.8721 12.1134C58.962 13.0073 59.2921 13.7274 59.8623 14.2737C60.4369 14.8146 61.1129 15.0459 61.8902 14.9678C62.3566 14.9208 62.7586 14.7945 63.0962 14.5888C63.4386 14.3826 63.7367 14.0778 63.9906 13.6744L64.5789 14.0348C64.031 15.0273 63.1473 15.5848 61.9278 15.7075ZM61.0198 8.29038C60.364 8.35635 59.8343 8.65255 59.4309 9.17896C59.0323 9.70489 58.8252 10.3784 58.8097 11.1995L63.5392 10.7238L63.5297 10.6291C63.4292 9.87362 63.1509 9.27836 62.6949 8.84329C62.2389 8.40823 61.6806 8.22392 61.0198 8.29038Z" fill="black"/>
</svg>
