<svg width="15" height="14" viewBox="0 0 15 14" fill="none" xmlns="http://www.w3.org/2000/svg">
<path d="M12.0276 11.3545H2.90322C2.7788 11.3545 2.65438 11.2671 2.57143 11.1798C2.48848 11.0925 2.48848 10.9178 2.52995 10.7868L3.31797 8.69055L2.52995 0.873423H0V0H2.90322C3.1106 0 3.27649 0.174684 3.31797 0.39304L4.14746 8.69055C4.14746 8.7779 4.14746 8.82157 4.10599 8.90891L3.52534 10.4811H12.4424L12.0276 11.3545Z" fill="#82A583"/>
<path d="M3.81581 9.1709L3.64991 8.29745L13.272 6.20117V2.62003H3.31812V1.74658H13.6867C13.9355 1.74658 14.1014 1.92127 14.1014 2.18331V6.55055C14.1014 6.76891 13.977 6.9436 13.7696 6.98728L3.81581 9.1709Z" fill="#82A583"/>
<path d="M12.4426 13.9746C11.5302 13.9746 10.7837 13.1884 10.7837 12.2275C10.7837 11.2667 11.5302 10.4805 12.4426 10.4805C13.355 10.4805 14.1016 11.2667 14.1016 12.2275C14.1016 13.1884 13.355 13.9746 12.4426 13.9746ZM12.4426 11.354C11.9864 11.354 11.6132 11.7471 11.6132 12.2275C11.6132 12.708 11.9864 13.1011 12.4426 13.1011C12.8988 13.1011 13.2721 12.708 13.2721 12.2275C13.2721 11.7471 12.8988 11.354 12.4426 11.354Z" fill="#82A583"/>
<path d="M2.48853 13.9746C1.57611 13.9746 0.82959 13.1884 0.82959 12.2275C0.82959 11.2667 1.57611 10.4805 2.48853 10.4805C3.40094 10.4805 4.14746 11.2667 4.14746 12.2275C4.14746 13.1884 3.40094 13.9746 2.48853 13.9746ZM2.48853 11.354C2.03232 11.354 1.65906 11.7471 1.65906 12.2275C1.65906 12.708 2.03232 13.1011 2.48853 13.1011C2.94473 13.1011 3.31799 12.708 3.31799 12.2275C3.31799 11.7471 2.94473 11.354 2.48853 11.354Z" fill="#82A583"/>
</svg>
