<svg width="84" height="38" viewBox="0 0 84 38" fill="none" xmlns="http://www.w3.org/2000/svg">
<path d="M16.0094 10.4823V14.3364C16.0094 14.8503 15.8612 15.1072 15.5647 15.1072C15.2287 15.1072 14.8828 14.8503 14.5271 14.3364C14.3689 14.1783 14.2108 13.9806 14.0527 13.7435C13.4598 12.9726 12.8767 12.3402 12.3035 11.8461C11.7304 11.3322 11.088 11.0752 10.3765 11.0752H5.63294C5.35624 15.3246 5.208 18.487 5.18824 20.5623H7.70824C8.43953 20.5623 9.05224 20.3646 9.54635 19.9693C10.0405 19.5741 10.5148 19.0799 10.9694 18.487C11.3054 18.0324 11.592 17.8051 11.8292 17.8051C12.0466 17.8051 12.1553 18.0324 12.1553 18.487V23.2305C12.1553 23.6851 12.0466 23.9124 11.8292 23.9124C11.6118 23.9124 11.3252 23.6851 10.9694 23.2305C10.5148 22.6376 10.0405 22.1435 9.54635 21.7482C9.05224 21.3529 8.43953 21.1552 7.70824 21.1552H5.18824C5.18824 22.2818 5.22777 23.6851 5.30682 25.3651C5.38588 27.0451 5.49459 29.0018 5.63294 31.2352H1.18588C1.32424 28.9425 1.43294 26.9364 1.512 25.2169C1.59106 23.4973 1.63059 22.0446 1.63059 20.8588C1.63059 19.6729 1.59106 18.2202 1.512 16.5006C1.43294 14.7811 1.32424 12.775 1.18588 10.4823H16.0094ZM26.3882 15.5223C27.6531 15.4828 28.8983 15.7397 30.1237 16.2931C31.3491 16.8465 32.367 17.7557 33.1774 19.0206C33.9877 20.2856 34.3929 21.8865 34.3929 23.8235C34.3929 25.6813 34.0075 27.2329 33.2367 28.4781C32.4856 29.7035 31.4974 30.6126 30.272 31.2056C29.0663 31.7788 27.7717 32.0851 26.3882 32.1246C24.8861 32.0851 23.5026 31.7689 22.2376 31.1759C20.9924 30.5632 19.9844 29.6442 19.2136 28.4188C18.4626 27.1736 18.087 25.6418 18.087 23.8235C18.087 21.9063 18.5021 20.3251 19.3322 19.0799C20.1623 17.815 21.2098 16.8959 22.4748 16.3228C23.7595 15.7496 25.064 15.4828 26.3882 15.5223ZM26.2993 16.4117C25.1924 16.4117 24.3426 16.7181 23.7496 17.3308C23.1567 17.9435 22.7515 18.8032 22.5341 19.9101C22.3364 21.0169 22.2376 22.4202 22.2376 24.1199C22.2376 25.7011 22.3266 26.9759 22.5044 27.9444C22.7021 28.9129 23.0974 29.6936 23.6903 30.2865C24.303 30.8597 25.2023 31.1759 26.3882 31.2352C27.5346 31.1957 28.3844 30.8893 28.9378 30.3162C29.511 29.7232 29.8668 28.9524 30.0051 28.0037C30.1633 27.055 30.2423 25.7604 30.2423 24.1199C30.2423 22.183 30.1534 20.6908 29.9755 19.6432C29.8174 18.5957 29.4517 17.7952 28.8786 17.2418C28.3251 16.6884 27.4654 16.4117 26.2993 16.4117ZM43.2974 16.7082C43.3963 16.6884 43.5544 16.6785 43.7718 16.6785C44.6414 16.6785 45.4222 16.8861 46.1139 17.3011C46.8254 17.6964 47.4085 18.1016 47.8631 18.5166C48.3374 18.9119 48.5944 19.0997 48.6339 19.0799C48.5746 19.1392 48.3473 19.4357 47.952 19.9693C47.5765 20.503 47.1219 20.9971 46.5883 21.4517C46.0546 21.9063 45.5506 22.1039 45.0763 22.0446H45.017C44.8786 22.0446 44.7502 21.9952 44.6316 21.8964C44.5327 21.7976 44.4833 21.6493 44.4833 21.4517C44.7798 20.5623 44.928 19.831 44.928 19.2578C44.928 18.5858 44.7699 18.0917 44.4537 17.7755C44.1374 17.4592 43.752 17.3011 43.2974 17.3011C42.5069 17.3011 41.9139 17.5976 41.5186 18.1905C40.9257 18.8032 40.5205 19.6333 40.3031 20.6809C40.3031 21.511 40.313 22.1632 40.3327 22.6376L40.2734 22.5783C40.2932 22.6178 40.313 22.6376 40.3327 22.6376V22.9341V24.2978C40.3327 25.8197 40.3723 27.0945 40.4513 28.1223C40.5502 29.1501 40.649 29.9505 40.7478 30.5237C40.8664 31.0969 40.9257 31.3341 40.9257 31.2352H36.1822C36.2019 31.0771 36.2513 30.6917 36.3304 30.079C36.4094 29.4465 36.4885 28.5373 36.5676 27.3515C36.6664 26.1656 36.7356 24.7919 36.7751 23.2305C36.7356 21.6691 36.6664 20.3646 36.5676 19.3171C36.4885 18.2498 36.4094 17.479 36.3304 17.0046C36.2513 16.5105 36.2019 16.2141 36.1822 16.1152H40.6292C40.6094 16.2141 40.5699 16.471 40.5106 16.8861C40.4711 17.3011 40.4316 17.8348 40.392 18.487C40.9652 17.3604 41.9337 16.7675 43.2974 16.7082ZM65.2502 19.3764C65.1316 19.5345 63.7876 20.4239 61.2182 22.0446C58.6685 23.6456 56.6031 24.9402 55.0219 25.9284C55.5753 27.4503 56.3857 28.6658 57.453 29.575C58.5203 30.4842 59.637 30.9388 60.8031 30.9388C61.5344 30.9388 62.0878 30.919 62.4633 30.8795C62.8586 30.8202 63.2539 30.6917 63.6492 30.4941C64.0445 30.2766 64.4793 29.9308 64.9537 29.4564L65.2502 29.7529C64.8944 30.1086 64.5386 30.4249 64.1829 30.7016C63.8469 30.9783 63.1946 31.2846 62.2262 31.6206C61.2775 31.9566 60.1113 32.1246 58.7278 32.1246C56.7909 32.1246 55.1998 31.7788 53.9546 31.087C52.7292 30.3755 51.8299 29.4366 51.2568 28.2705C50.7033 27.1044 50.4266 25.8197 50.4266 24.4164C50.4266 22.8945 50.733 21.4616 51.3457 20.1176C51.9782 18.7538 52.9368 17.647 54.2215 16.7971C55.5259 15.9472 57.1269 15.5223 59.0243 15.5223C60.6055 15.5223 61.8803 15.799 62.8488 16.3524C63.8172 16.8861 64.4892 17.479 64.8648 18.1312C65.26 18.7835 65.3885 19.1985 65.2502 19.3764ZM61.0996 19.1985C61.0996 18.487 60.8723 17.7952 60.4177 17.1232C59.9829 16.4512 59.2219 16.1152 58.1349 16.1152C57.0873 16.1152 56.1782 16.5599 55.4073 17.4493C54.6563 18.319 54.2808 19.7519 54.2808 21.7482C54.2808 22.9538 54.4488 24.1101 54.7848 25.2169C56.3264 24.4263 57.7593 23.5072 59.0836 22.4597C60.4276 21.3924 61.0996 20.3053 61.0996 19.1985ZM75.0279 15.5223C76.2928 15.4828 77.538 15.7397 78.7634 16.2931C79.9888 16.8465 81.0067 17.7557 81.8171 19.0206C82.6274 20.2856 83.0326 21.8865 83.0326 23.8235C83.0326 25.6813 82.6472 27.2329 81.8764 28.4781C81.1253 29.7035 80.1371 30.6126 78.9117 31.2056C77.706 31.7788 76.4114 32.0851 75.0279 32.1246C73.5258 32.0851 72.1423 31.7689 70.8773 31.1759C69.6321 30.5632 68.6241 29.6442 67.8533 28.4188C67.1023 27.1736 66.7267 25.6418 66.7267 23.8235C66.7267 21.9063 67.1418 20.3251 67.9719 19.0799C68.802 17.815 69.8496 16.8959 71.1145 16.3228C72.3992 15.7496 73.7037 15.4828 75.0279 15.5223ZM74.939 16.4117C73.8321 16.4117 72.9823 16.7181 72.3893 17.3308C71.7964 17.9435 71.3912 18.8032 71.1738 19.9101C70.9761 21.0169 70.8773 22.4202 70.8773 24.1199C70.8773 25.7011 70.9663 26.9759 71.1441 27.9444C71.3418 28.9129 71.7371 29.6936 72.33 30.2865C72.9427 30.8597 73.842 31.1759 75.0279 31.2352C76.1743 31.1957 77.0241 30.8893 77.5776 30.3162C78.1507 29.7232 78.5065 28.9524 78.6448 28.0037C78.803 27.055 78.882 25.7604 78.882 24.1199C78.882 22.183 78.7931 20.6908 78.6152 19.6432C78.4571 18.5957 78.0914 17.7952 77.5183 17.2418C76.9648 16.6884 76.1051 16.4117 74.939 16.4117Z" fill="white"/>
<path d="M34.0461 6.5456L37.8609 4.64667L37.9537 4.60052L37.9998 4.50782L39.8987 0.692923L41.7977 4.50782L41.8438 4.60052L41.9365 4.64667L45.7514 6.5456L41.9365 8.44454L41.8438 8.49068L41.7977 8.58339L39.8987 12.3983L37.9998 8.58339L37.9537 8.49068L37.8609 8.44454L34.0461 6.5456Z" fill="white" stroke="white" stroke-width="0.617647"/>
</svg>
