<svg width="18" height="19" viewBox="0 0 18 19" fill="none" xmlns="http://www.w3.org/2000/svg">
<path d="M12.6894 1H5.31061C2.9297 1 1 3.00685 1 5.48215V13.1546C1 15.6302 2.93004 17.6367 5.31095 17.6367H12.689C15.07 17.6367 17 15.6299 17 13.1542V5.48215C17 3.00649 15.07 1 12.689 1H12.6894Z" stroke="white" stroke-miterlimit="10"/>
<path d="M9.00006 13.334C11.1331 13.334 12.8622 11.5361 12.8622 9.31836C12.8622 7.10059 11.1331 5.30273 9.00006 5.30273C6.86707 5.30273 5.13794 7.10059 5.13794 9.31836C5.13794 11.5361 6.86707 13.334 9.00006 13.334Z" stroke="white" stroke-miterlimit="10"/>
<path d="M13.7366 5.0498C14.0854 5.0498 14.3682 4.75577 14.3682 4.39307C14.3682 4.03036 14.0854 3.73633 13.7366 3.73633C13.3878 3.73633 13.1051 4.03036 13.1051 4.39307C13.1051 4.75577 13.3878 5.0498 13.7366 5.0498Z" fill="white"/>
</svg>
