<svg width="15" height="15" viewBox="0 0 15 15" fill="none" xmlns="http://www.w3.org/2000/svg">
<path d="M12.0276 11.8498H2.90322C2.7788 11.8498 2.65437 11.7635 2.57143 11.6772C2.48848 11.5909 2.48848 11.4183 2.52995 11.2889L3.31797 9.21777L2.52995 1.4943H0V0.631348H2.90322C3.1106 0.631348 3.27649 0.803939 3.31797 1.01968L4.14746 9.21777C4.14746 9.30406 4.14746 9.34721 4.10599 9.43351L3.52534 10.9868H12.4424L12.0276 11.8498Z" fill="white"/>
<path d="M3.81581 9.6923L3.64991 8.82935L13.272 6.75825V3.22013H3.31812V2.35718H13.6867C13.9355 2.35718 14.1014 2.52977 14.1014 2.78866V7.10344C14.1014 7.31917 13.977 7.49177 13.7696 7.53491L3.81581 9.6923V9.6923Z" fill="white"/>
<path d="M12.4425 14.4387C11.5301 14.4387 10.7836 13.662 10.7836 12.7127C10.7836 11.7635 11.5301 10.9868 12.4425 10.9868C13.3549 10.9868 14.1014 11.7635 14.1014 12.7127C14.1014 13.662 13.3549 14.4387 12.4425 14.4387ZM12.4425 11.8498C11.9863 11.8498 11.613 12.2381 11.613 12.7127C11.613 13.1874 11.9863 13.5757 12.4425 13.5757C12.8987 13.5757 13.272 13.1874 13.272 12.7127C13.272 12.2381 12.8987 11.8498 12.4425 11.8498Z" fill="white"/>
<path d="M2.48853 14.4387C1.57611 14.4387 0.82959 13.662 0.82959 12.7127C0.82959 11.7635 1.57611 10.9868 2.48853 10.9868C3.40094 10.9868 4.14746 11.7635 4.14746 12.7127C4.14746 13.662 3.40094 14.4387 2.48853 14.4387ZM2.48853 11.8498C2.03232 11.8498 1.65906 12.2381 1.65906 12.7127C1.65906 13.1874 2.03232 13.5757 2.48853 13.5757C2.94473 13.5757 3.31799 13.1874 3.31799 12.7127C3.31799 12.2381 2.94473 11.8498 2.48853 11.8498Z" fill="white"/>
</svg>
